<?xml version="1.0" encoding="UTF-8" standalone="no"?>
<svg width="211.667mm" height="105.833mm"
 viewBox="0 0 600 300"
 xmlns="http://www.w3.org/2000/svg" xmlns:xlink="http://www.w3.org/1999/xlink"  version="1.2" baseProfile="tiny">
<title>Qt SVG Document</title>
<desc>MATLAB, The MathWorks, Inc. Version 25.1.0.2973910 R2025a Update 1</desc>
<defs>
</defs>
<g fill="none" stroke="black" stroke-width="1" fill-rule="evenodd" stroke-linecap="square" stroke-linejoin="bevel" >

<g fill="#ffffff" fill-opacity="1" stroke="none" transform="matrix(0.75,0,0,0.75,0,0)"
font-family=".AppleSystemUIFont" font-size="13" font-weight="400" font-style="normal" 
>
<path vector-effect="none" fill-rule="evenodd" d="M0,0 L801,0 L801,401 L0,401 L0,0"/>
</g>

<g fill="#ffffff" fill-opacity="1" stroke="none" transform="matrix(7.5e-05,0,0,7.5e-05,0,0)"
font-family=".AppleSystemUIFont" font-size="13" font-weight="400" font-style="normal" 
>
<path vector-effect="none" fill-rule="evenodd" d="M1.04e+06,300000 L1.04e+06,3.1e+06 L3.58e+06,3.1e+06 L3.58e+06,300000 L1.04e+06,300000"/>
</g>

<g fill="#212121" fill-opacity="1" stroke="#212121" stroke-opacity="1" stroke-width="1" stroke-linecap="square" stroke-linejoin="bevel" transform="matrix(0.75,0,0,0.75,107.25,284.25)"
font-family="Latin Modern Sans" font-size="22" font-weight="400" font-style="normal" 
>
<text fill="#212121" fill-opacity="1" stroke="none" xml:space="preserve" x="0" y="0.375" font-family="Latin Modern Sans" font-size="22" font-weight="400" font-style="normal" 
 >Incubation time, hr</text>
</g>

<g fill="#212121" fill-opacity="1" stroke="#212121" stroke-opacity="1" stroke-width="0.8" stroke-linecap="square" stroke-linejoin="round" transform="matrix(0.75,0,0,0.75,0,0)"
font-family="Latin Modern Sans" font-size="22" font-weight="400" font-style="normal" 
>
<polyline fill="none" vector-effect="none" points="104,310 358,310 " />
<polyline fill="none" vector-effect="none" points="104,317 104,310 " />
<polyline fill="none" vector-effect="none" points="154.8,317 154.8,310 " />
<polyline fill="none" vector-effect="none" points="205.6,317 205.6,310 " />
<polyline fill="none" vector-effect="none" points="256.4,317 256.4,310 " />
<polyline fill="none" vector-effect="none" points="307.2,317 307.2,310 " />
<polyline fill="none" vector-effect="none" points="358,317 358,310 " />
</g>

<g fill="#212121" fill-opacity="1" stroke="#212121" stroke-opacity="1" stroke-width="1" stroke-linecap="square" stroke-linejoin="bevel" transform="matrix(0.75,0,0,0.75,74.25,260)"
font-family="Latin Modern Sans" font-size="20" font-weight="400" font-style="normal" 
>
<text fill="#212121" fill-opacity="1" stroke="none" xml:space="preserve" x="0" y="0.078125" font-family="Latin Modern Sans" font-size="20" font-weight="400" font-style="normal" 
 >5</text>
</g>

<g fill="#212121" fill-opacity="1" stroke="#212121" stroke-opacity="1" stroke-width="1" stroke-linecap="square" stroke-linejoin="bevel" transform="matrix(0.75,0,0,0.75,108.6,260)"
font-family="Latin Modern Sans" font-size="20" font-weight="400" font-style="normal" 
>
<text fill="#212121" fill-opacity="1" stroke="none" xml:space="preserve" x="0" y="0.078125" font-family="Latin Modern Sans" font-size="20" font-weight="400" font-style="normal" 
 >10</text>
</g>

<g fill="#212121" fill-opacity="1" stroke="#212121" stroke-opacity="1" stroke-width="1" stroke-linecap="square" stroke-linejoin="bevel" transform="matrix(0.75,0,0,0.75,146.7,260)"
font-family="Latin Modern Sans" font-size="20" font-weight="400" font-style="normal" 
>
<text fill="#212121" fill-opacity="1" stroke="none" xml:space="preserve" x="0" y="0.078125" font-family="Latin Modern Sans" font-size="20" font-weight="400" font-style="normal" 
 >15</text>
</g>

<g fill="#212121" fill-opacity="1" stroke="#212121" stroke-opacity="1" stroke-width="1" stroke-linecap="square" stroke-linejoin="bevel" transform="matrix(0.75,0,0,0.75,184.8,260)"
font-family="Latin Modern Sans" font-size="20" font-weight="400" font-style="normal" 
>
<text fill="#212121" fill-opacity="1" stroke="none" xml:space="preserve" x="0" y="0.078125" font-family="Latin Modern Sans" font-size="20" font-weight="400" font-style="normal" 
 >20</text>
</g>

<g fill="#212121" fill-opacity="1" stroke="#212121" stroke-opacity="1" stroke-width="1" stroke-linecap="square" stroke-linejoin="bevel" transform="matrix(0.75,0,0,0.75,222.9,260)"
font-family="Latin Modern Sans" font-size="20" font-weight="400" font-style="normal" 
>
<text fill="#212121" fill-opacity="1" stroke="none" xml:space="preserve" x="0" y="0.078125" font-family="Latin Modern Sans" font-size="20" font-weight="400" font-style="normal" 
 >25</text>
</g>

<g fill="#212121" fill-opacity="1" stroke="#212121" stroke-opacity="1" stroke-width="1" stroke-linecap="square" stroke-linejoin="bevel" transform="matrix(0.75,0,0,0.75,261,260)"
font-family="Latin Modern Sans" font-size="20" font-weight="400" font-style="normal" 
>
<text fill="#212121" fill-opacity="1" stroke="none" xml:space="preserve" x="0" y="0.078125" font-family="Latin Modern Sans" font-size="20" font-weight="400" font-style="normal" 
 >30</text>
</g>

<g fill="#212121" fill-opacity="1" stroke="#212121" stroke-opacity="1" stroke-width="1" stroke-linecap="square" stroke-linejoin="bevel" transform="matrix(0,-0.75,0.75,0,40,239.25)"
font-family="Latin Modern Sans" font-size="22" font-weight="400" font-style="normal" 
>
<text fill="#212121" fill-opacity="1" stroke="none" xml:space="preserve" x="0" y="0.375" font-family="Latin Modern Sans" font-size="22" font-weight="400" font-style="normal" 
 >Observed latent period mean, hr</text>
</g>

<g fill="#212121" fill-opacity="1" stroke="#212121" stroke-opacity="1" stroke-width="0.8" stroke-linecap="square" stroke-linejoin="round" transform="matrix(0.75,0,0,0.75,0,0)"
font-family="Latin Modern Sans" font-size="22" font-weight="400" font-style="normal" 
>
<polyline fill="none" vector-effect="none" points="104,310 104,30 " />
<polyline fill="none" vector-effect="none" points="97,310 104,310 " />
<polyline fill="none" vector-effect="none" points="97,254 104,254 " />
<polyline fill="none" vector-effect="none" points="97,198 104,198 " />
<polyline fill="none" vector-effect="none" points="97,142 104,142 " />
<polyline fill="none" vector-effect="none" points="97,85.9999 104,85.9999 " />
<polyline fill="none" vector-effect="none" points="97,30 104,30 " />
</g>

<g fill="#212121" fill-opacity="1" stroke="#212121" stroke-opacity="1" stroke-width="1" stroke-linecap="square" stroke-linejoin="bevel" transform="matrix(0.75,0,0,0.75,60.25,238.875)"
font-family="Latin Modern Sans" font-size="20" font-weight="400" font-style="normal" 
>
<text fill="#212121" fill-opacity="1" stroke="none" xml:space="preserve" x="0" y="0.078125" font-family="Latin Modern Sans" font-size="20" font-weight="400" font-style="normal" 
 >7</text>
</g>

<g fill="#212121" fill-opacity="1" stroke="#212121" stroke-opacity="1" stroke-width="1" stroke-linecap="square" stroke-linejoin="bevel" transform="matrix(0.75,0,0,0.75,48.25,196.875)"
font-family="Latin Modern Sans" font-size="20" font-weight="400" font-style="normal" 
>
<text fill="#212121" fill-opacity="1" stroke="none" xml:space="preserve" x="0" y="0.078125" font-family="Latin Modern Sans" font-size="20" font-weight="400" font-style="normal" 
 >7.2</text>
</g>

<g fill="#212121" fill-opacity="1" stroke="#212121" stroke-opacity="1" stroke-width="1" stroke-linecap="square" stroke-linejoin="bevel" transform="matrix(0.75,0,0,0.75,48.25,154.875)"
font-family="Latin Modern Sans" font-size="20" font-weight="400" font-style="normal" 
>
<text fill="#212121" fill-opacity="1" stroke="none" xml:space="preserve" x="0" y="0.078125" font-family="Latin Modern Sans" font-size="20" font-weight="400" font-style="normal" 
 >7.4</text>
</g>

<g fill="#212121" fill-opacity="1" stroke="#212121" stroke-opacity="1" stroke-width="1" stroke-linecap="square" stroke-linejoin="bevel" transform="matrix(0.75,0,0,0.75,48.25,112.875)"
font-family="Latin Modern Sans" font-size="20" font-weight="400" font-style="normal" 
>
<text fill="#212121" fill-opacity="1" stroke="none" xml:space="preserve" x="0" y="0.078125" font-family="Latin Modern Sans" font-size="20" font-weight="400" font-style="normal" 
 >7.6</text>
</g>

<g fill="#212121" fill-opacity="1" stroke="#212121" stroke-opacity="1" stroke-width="1" stroke-linecap="square" stroke-linejoin="bevel" transform="matrix(0.75,0,0,0.75,48.25,70.875)"
font-family="Latin Modern Sans" font-size="20" font-weight="400" font-style="normal" 
>
<text fill="#212121" fill-opacity="1" stroke="none" xml:space="preserve" x="0" y="0.078125" font-family="Latin Modern Sans" font-size="20" font-weight="400" font-style="normal" 
 >7.8</text>
</g>

<g fill="#212121" fill-opacity="1" stroke="#212121" stroke-opacity="1" stroke-width="1" stroke-linecap="square" stroke-linejoin="bevel" transform="matrix(0.75,0,0,0.75,60.25,28.875)"
font-family="Latin Modern Sans" font-size="20" font-weight="400" font-style="normal" 
>
<text fill="#212121" fill-opacity="1" stroke="none" xml:space="preserve" x="0" y="0.078125" font-family="Latin Modern Sans" font-size="20" font-weight="400" font-style="normal" 
 >8</text>
</g>

<g fill="none" stroke="#000000" stroke-opacity="1" stroke-width="2" stroke-linecap="butt" stroke-linejoin="round" transform="matrix(0.75,0,0,0.75,0,0)"
font-family="Latin Modern Sans" font-size="20" font-weight="400" font-style="normal" 
>
<polyline fill="none" vector-effect="none" points="104,183.595 114.16,181.669 124.32,179.893 134.48,178.531 144.64,176.966 154.8,175.437 164.96,173.631 175.12,172.567 185.28,170.968 195.44,169.982 205.6,168.371 215.76,167.066 225.92,165.986 236.08,164.775 246.24,163.702 256.4,162.515 266.56,161.682 276.72,160.648 286.88,159.382 297.04,158.861 307.2,157.733 317.36,157.402 327.52,156.295 337.68,155.356 347.84,154.552 358,153.596 " />
</g>

<g fill="#ff0000" fill-opacity="1" stroke="none" transform="matrix(0.75,0,0,0.75,0,0)"
font-family="Latin Modern Sans" font-size="20" font-weight="400" font-style="normal" 
>
<circle cx="205.6" cy="168.371" r="4"/>
<circle cx="205.6" cy="193.956" r="4"/>
</g>

<g fill="#808080" fill-opacity="0.701961" stroke="#808080" stroke-opacity="0.701961" stroke-dasharray="8,8" stroke-dashoffset="0" stroke-width="2" stroke-linecap="butt" stroke-linejoin="round" transform="matrix(0.75,0,0,0.75,0,0)"
font-family="Latin Modern Sans" font-size="20" font-weight="400" font-style="normal" 
>
<polyline fill="none" vector-effect="none" points="104,193.956 358,193.956 " />
</g>

<g fill="#ffffff" fill-opacity="1" stroke="none" transform="matrix(7.5e-05,0,0,7.5e-05,0,0)"
font-family="Latin Modern Sans" font-size="20" font-weight="400" font-style="normal" 
>
<path vector-effect="none" fill-rule="evenodd" d="M4.7e+06,300000 L4.7e+06,3.1e+06 L7.24e+06,3.1e+06 L7.24e+06,300000 L4.7e+06,300000"/>
</g>

<g fill="#212121" fill-opacity="1" stroke="#212121" stroke-opacity="1" stroke-width="1" stroke-linecap="square" stroke-linejoin="bevel" transform="matrix(0.75,0,0,0.75,381.75,284.25)"
font-family="Latin Modern Sans" font-size="22" font-weight="400" font-style="normal" 
>
<text fill="#212121" fill-opacity="1" stroke="none" xml:space="preserve" x="0" y="0.375" font-family="Latin Modern Sans" font-size="22" font-weight="400" font-style="normal" 
 >Incubation time, hr</text>
</g>

<g fill="#212121" fill-opacity="1" stroke="#212121" stroke-opacity="1" stroke-width="0.8" stroke-linecap="square" stroke-linejoin="round" transform="matrix(0.75,0,0,0.75,0,0)"
font-family="Latin Modern Sans" font-size="22" font-weight="400" font-style="normal" 
>
<polyline fill="none" vector-effect="none" points="470,310 724,310 " />
<polyline fill="none" vector-effect="none" points="470,317 470,310 " />
<polyline fill="none" vector-effect="none" points="520.8,317 520.8,310 " />
<polyline fill="none" vector-effect="none" points="571.6,317 571.6,310 " />
<polyline fill="none" vector-effect="none" points="622.4,317 622.4,310 " />
<polyline fill="none" vector-effect="none" points="673.2,317 673.2,310 " />
<polyline fill="none" vector-effect="none" points="724,317 724,310 " />
</g>

<g fill="#212121" fill-opacity="1" stroke="#212121" stroke-opacity="1" stroke-width="1" stroke-linecap="square" stroke-linejoin="bevel" transform="matrix(0.75,0,0,0.75,348.75,260)"
font-family="Latin Modern Sans" font-size="20" font-weight="400" font-style="normal" 
>
<text fill="#212121" fill-opacity="1" stroke="none" xml:space="preserve" x="0" y="0.078125" font-family="Latin Modern Sans" font-size="20" font-weight="400" font-style="normal" 
 >5</text>
</g>

<g fill="#212121" fill-opacity="1" stroke="#212121" stroke-opacity="1" stroke-width="1" stroke-linecap="square" stroke-linejoin="bevel" transform="matrix(0.75,0,0,0.75,383.1,260)"
font-family="Latin Modern Sans" font-size="20" font-weight="400" font-style="normal" 
>
<text fill="#212121" fill-opacity="1" stroke="none" xml:space="preserve" x="0" y="0.078125" font-family="Latin Modern Sans" font-size="20" font-weight="400" font-style="normal" 
 >10</text>
</g>

<g fill="#212121" fill-opacity="1" stroke="#212121" stroke-opacity="1" stroke-width="1" stroke-linecap="square" stroke-linejoin="bevel" transform="matrix(0.75,0,0,0.75,421.2,260)"
font-family="Latin Modern Sans" font-size="20" font-weight="400" font-style="normal" 
>
<text fill="#212121" fill-opacity="1" stroke="none" xml:space="preserve" x="0" y="0.078125" font-family="Latin Modern Sans" font-size="20" font-weight="400" font-style="normal" 
 >15</text>
</g>

<g fill="#212121" fill-opacity="1" stroke="#212121" stroke-opacity="1" stroke-width="1" stroke-linecap="square" stroke-linejoin="bevel" transform="matrix(0.75,0,0,0.75,459.3,260)"
font-family="Latin Modern Sans" font-size="20" font-weight="400" font-style="normal" 
>
<text fill="#212121" fill-opacity="1" stroke="none" xml:space="preserve" x="0" y="0.078125" font-family="Latin Modern Sans" font-size="20" font-weight="400" font-style="normal" 
 >20</text>
</g>

<g fill="#212121" fill-opacity="1" stroke="#212121" stroke-opacity="1" stroke-width="1" stroke-linecap="square" stroke-linejoin="bevel" transform="matrix(0.75,0,0,0.75,497.4,260)"
font-family="Latin Modern Sans" font-size="20" font-weight="400" font-style="normal" 
>
<text fill="#212121" fill-opacity="1" stroke="none" xml:space="preserve" x="0" y="0.078125" font-family="Latin Modern Sans" font-size="20" font-weight="400" font-style="normal" 
 >25</text>
</g>

<g fill="#212121" fill-opacity="1" stroke="#212121" stroke-opacity="1" stroke-width="1" stroke-linecap="square" stroke-linejoin="bevel" transform="matrix(0.75,0,0,0.75,535.5,260)"
font-family="Latin Modern Sans" font-size="20" font-weight="400" font-style="normal" 
>
<text fill="#212121" fill-opacity="1" stroke="none" xml:space="preserve" x="0" y="0.078125" font-family="Latin Modern Sans" font-size="20" font-weight="400" font-style="normal" 
 >30</text>
</g>

<g fill="#212121" fill-opacity="1" stroke="#212121" stroke-opacity="1" stroke-width="1" stroke-linecap="square" stroke-linejoin="bevel" transform="matrix(0,-0.75,0.75,0,307,219.375)"
font-family="Latin Modern Sans" font-size="22" font-weight="400" font-style="normal" 
>
<text fill="#212121" fill-opacity="1" stroke="none" xml:space="preserve" x="0" y="0.375" font-family="Latin Modern Sans" font-size="22" font-weight="400" font-style="normal" 
 >Observed latent period CV</text>
</g>

<g fill="#212121" fill-opacity="1" stroke="#212121" stroke-opacity="1" stroke-width="0.8" stroke-linecap="square" stroke-linejoin="round" transform="matrix(0.75,0,0,0.75,0,0)"
font-family="Latin Modern Sans" font-size="22" font-weight="400" font-style="normal" 
>
<polyline fill="none" vector-effect="none" points="470,310 470,30 " />
<polyline fill="none" vector-effect="none" points="463,310 470,310 " />
<polyline fill="none" vector-effect="none" points="463,216.667 470,216.667 " />
<polyline fill="none" vector-effect="none" points="463,123.333 470,123.333 " />
<polyline fill="none" vector-effect="none" points="463,30 470,30 " />
</g>

<g fill="#212121" fill-opacity="1" stroke="#212121" stroke-opacity="1" stroke-width="1" stroke-linecap="square" stroke-linejoin="bevel" transform="matrix(0.75,0,0,0.75,315.25,238.875)"
font-family="Latin Modern Sans" font-size="20" font-weight="400" font-style="normal" 
>
<text fill="#212121" fill-opacity="1" stroke="none" xml:space="preserve" x="0" y="0.078125" font-family="Latin Modern Sans" font-size="20" font-weight="400" font-style="normal" 
 >0.15</text>
</g>

<g fill="#212121" fill-opacity="1" stroke="#212121" stroke-opacity="1" stroke-width="1" stroke-linecap="square" stroke-linejoin="bevel" transform="matrix(0.75,0,0,0.75,322.75,168.875)"
font-family="Latin Modern Sans" font-size="20" font-weight="400" font-style="normal" 
>
<text fill="#212121" fill-opacity="1" stroke="none" xml:space="preserve" x="0" y="0.078125" font-family="Latin Modern Sans" font-size="20" font-weight="400" font-style="normal" 
 >0.2</text>
</g>

<g fill="#212121" fill-opacity="1" stroke="#212121" stroke-opacity="1" stroke-width="1" stroke-linecap="square" stroke-linejoin="bevel" transform="matrix(0.75,0,0,0.75,315.25,98.875)"
font-family="Latin Modern Sans" font-size="20" font-weight="400" font-style="normal" 
>
<text fill="#212121" fill-opacity="1" stroke="none" xml:space="preserve" x="0" y="0.078125" font-family="Latin Modern Sans" font-size="20" font-weight="400" font-style="normal" 
 >0.25</text>
</g>

<g fill="#212121" fill-opacity="1" stroke="#212121" stroke-opacity="1" stroke-width="1" stroke-linecap="square" stroke-linejoin="bevel" transform="matrix(0.75,0,0,0.75,322.75,28.875)"
font-family="Latin Modern Sans" font-size="20" font-weight="400" font-style="normal" 
>
<text fill="#212121" fill-opacity="1" stroke="none" xml:space="preserve" x="0" y="0.078125" font-family="Latin Modern Sans" font-size="20" font-weight="400" font-style="normal" 
 >0.3</text>
</g>

<g fill="none" stroke="#000000" stroke-opacity="1" stroke-width="2" stroke-linecap="butt" stroke-linejoin="round" transform="matrix(0.75,0,0,0.75,0,0)"
font-family="Latin Modern Sans" font-size="20" font-weight="400" font-style="normal" 
>
<polyline fill="none" vector-effect="none" points="470,170.639 480.16,171.069 490.32,171.429 500.48,171.795 510.64,172.126 520.8,172.471 530.96,172.511 541.12,172.753 551.28,173.117 561.44,173.374 571.6,173.489 581.76,173.562 591.92,173.798 602.08,173.879 612.24,174.249 622.4,174.425 632.56,174.514 642.72,174.619 652.88,174.851 663.04,174.862 673.2,175.112 683.36,175.009 693.52,175.294 703.68,175.365 713.84,175.415 724,175.531 " />
</g>

<g fill="#ff0000" fill-opacity="1" stroke="none" transform="matrix(0.75,0,0,0.75,0,0)"
font-family="Latin Modern Sans" font-size="20" font-weight="400" font-style="normal" 
>
<circle cx="571.6" cy="173.489" r="4"/>
<circle cx="571.6" cy="168.679" r="4"/>
</g>

<g fill="#808080" fill-opacity="0.701961" stroke="#808080" stroke-opacity="0.701961" stroke-dasharray="8,8" stroke-dashoffset="0" stroke-width="2" stroke-linecap="butt" stroke-linejoin="round" transform="matrix(0.75,0,0,0.75,0,0)"
font-family="Latin Modern Sans" font-size="20" font-weight="400" font-style="normal" 
>
<polyline fill="none" vector-effect="none" points="470,168.679 724,168.679 " />
</g>

<g fill="#ffffff" fill-opacity="1" stroke="none" transform="matrix(7.5e-05,0,0,7.5e-05,0,0)"
font-family="Latin Modern Sans" font-size="20" font-weight="400" font-style="normal" 
>
<path vector-effect="none" fill-rule="evenodd" d="M4.79e+06,410000 L4.79e+06,1.27e+06 L7.13e+06,1.27e+06 L7.13e+06,410000 L4.79e+06,410000"/>
</g>

<g fill="#000000" fill-opacity="1" stroke="#000000" stroke-opacity="1" stroke-width="2" stroke-linecap="butt" stroke-linejoin="round" transform="matrix(0.75,0,0,0.75,0,0)"
font-family="Latin Modern Sans" font-size="20" font-weight="400" font-style="normal" 
>
<polyline fill="none" vector-effect="none" points="483,56.5 523,56.5 " />
</g>

<g fill="#808080" fill-opacity="0.701961" stroke="#808080" stroke-opacity="0.701961" stroke-dasharray="8,8" stroke-dashoffset="0" stroke-width="2" stroke-linecap="butt" stroke-linejoin="round" transform="matrix(0.75,0,0,0.75,0,0)"
font-family="Latin Modern Sans" font-size="20" font-weight="400" font-style="normal" 
>
<polyline fill="none" vector-effect="none" points="483,84 523,84 " />
</g>

<g fill="#ff0000" fill-opacity="1" stroke="none" transform="matrix(0.75,0,0,0.75,0,0)"
font-family="Latin Modern Sans" font-size="20" font-weight="400" font-style="normal" 
>
<circle cx="503" cy="111.5" r="4"/>
</g>

<g fill="#212121" fill-opacity="1" stroke="#212121" stroke-opacity="1" stroke-width="1" stroke-linecap="square" stroke-linejoin="bevel" transform="matrix(0.75,0,0,0.75,394.5,48)"
font-family="Latin Modern Sans" font-size="18" font-weight="400" font-style="normal" 
>
<text fill="#212121" fill-opacity="1" stroke="none" xml:space="preserve" x="0" y="-0.234375" font-family="Latin Modern Sans" font-size="18" font-weight="400" font-style="normal" 
 >Observed</text>
</g>

<g fill="#212121" fill-opacity="1" stroke="#212121" stroke-opacity="1" stroke-width="1" stroke-linecap="square" stroke-linejoin="bevel" transform="matrix(0.75,0,0,0.75,394.5,68.625)"
font-family="Latin Modern Sans" font-size="18" font-weight="400" font-style="normal" 
>
<text fill="#212121" fill-opacity="1" stroke="none" xml:space="preserve" x="0" y="-0.234375" font-family="Latin Modern Sans" font-size="18" font-weight="400" font-style="normal" 
 >Underlying</text>
</g>

<g fill="#212121" fill-opacity="1" stroke="#212121" stroke-opacity="1" stroke-width="1" stroke-linecap="square" stroke-linejoin="bevel" transform="matrix(0.75,0,0,0.75,394.5,89.25)"
font-family="Latin Modern Sans" font-size="18" font-weight="400" font-style="normal" 
>
<text fill="#212121" fill-opacity="1" stroke="none" xml:space="preserve" x="0" y="-0.234375" font-family="Latin Modern Sans" font-size="18" font-weight="400" font-style="normal" 
 >Experimental incubation</text>
</g>

<g fill="none" stroke="#212121" stroke-opacity="1" stroke-width="0.8" stroke-linecap="butt" stroke-linejoin="miter" stroke-miterlimit="2" transform="matrix(0.75,0,0,0.75,0,0)"
font-family="Latin Modern Sans" font-size="18" font-weight="400" font-style="normal" 
>
<path vector-effect="none" fill-rule="evenodd" d="M479,127 L479,41 L713,41 L713,127 L479,127"/>
</g>
</g>
</svg>
