<?xml version="1.0" encoding="UTF-8" standalone="no"?>
<svg width="211.667mm" height="119.239mm"
 viewBox="0 0 600 338"
 xmlns="http://www.w3.org/2000/svg" xmlns:xlink="http://www.w3.org/1999/xlink"  version="1.2" baseProfile="tiny">
<title>Qt SVG Document</title>
<desc>MATLAB, The MathWorks, Inc. Version 25.1.0.2973910 R2025a Update 1</desc>
<defs>
</defs>
<g fill="none" stroke="black" stroke-width="1" fill-rule="evenodd" stroke-linecap="square" stroke-linejoin="bevel" >

<g fill="#ffffff" fill-opacity="1" stroke="none" transform="matrix(0.75,0,0,0.75,0,0)"
font-family=".AppleSystemUIFont" font-size="13" font-weight="400" font-style="normal" 
>
<path vector-effect="none" fill-rule="evenodd" d="M0,0 L801,0 L801,451 L0,451 L0,0"/>
</g>

<g fill="#ffffff" fill-opacity="1" stroke="none" transform="matrix(7.5e-05,0,0,7.5e-05,0,0)"
font-family=".AppleSystemUIFont" font-size="13" font-weight="400" font-style="normal" 
>
<path vector-effect="none" fill-rule="evenodd" d="M1.04e+06,340000 L1.04e+06,3.5e+06 L3.54e+06,3.5e+06 L3.54e+06,340000 L1.04e+06,340000"/>
</g>

<g fill="#212121" fill-opacity="1" stroke="none" transform="matrix(0.75,0,0,0.75,168.633,312.561)"
font-family=".AppleSystemUIFont" font-size="13" font-weight="400" font-style="normal" 
>
<path vector-effect="none" fill-rule="evenodd" d="M3.23438,-12.9141 L2.76563,-13.418 L6,-16.6523 L9.21094,-13.418 L8.73047,-12.9141 L6,-15.3164 L3.23438,-12.9141"/>
</g>

<g fill="#212121" fill-opacity="1" stroke="none" transform="matrix(0.75,0,0,0.75,164.578,317.288)"
font-family=".AppleSystemUIFont" font-size="13" font-weight="400" font-style="normal" 
>
<path vector-effect="none" fill-rule="evenodd" d="M1.17188,0 C1.01563,0 0.9375,-0.105469 0.9375,-0.316406 C0.945313,-0.355469 0.960938,-0.423828 0.984375,-0.521484 C1.00781,-0.619141 1.04102,-0.697266 1.08398,-0.755859 C1.12695,-0.814453 1.17969,-0.84375 1.24219,-0.84375 C2.21875,-0.84375 2.90234,-0.898438 3.29297,-1.00781 C3.49609,-1.07813 3.64453,-1.29297 3.73828,-1.65234 L7.03125,-14.8359 C7.0625,-14.9922 7.07813,-15.1016 7.07813,-15.1641 C7.07813,-15.3359 6.98438,-15.4336 6.79688,-15.457 C6.49219,-15.5195 5.91406,-15.5508 5.0625,-15.5508 C4.90625,-15.5508 4.82813,-15.6563 4.82813,-15.8672 C4.83594,-15.9063 4.85156,-15.9746 4.875,-16.0723 C4.89844,-16.1699 4.93164,-16.248 4.97461,-16.3066 C5.01758,-16.3652 5.07031,-16.3945 5.13281,-16.3945 L12.4102,-16.3945 C12.9883,-16.3945 13.5898,-16.3281 14.2148,-16.1953 C14.8398,-16.0625 15.4141,-15.8535 15.9375,-15.5684 C16.4609,-15.2832 16.8906,-14.9043 17.2266,-14.4316 C17.5625,-13.959 17.7305,-13.4063 17.7305,-12.7734 C17.7305,-11.9688 17.4648,-11.25 16.9336,-10.6172 C16.4023,-9.98438 15.7305,-9.45508 14.918,-9.0293 C14.1055,-8.60352 13.3164,-8.30469 12.5508,-8.13281 C13.1758,-7.90625 13.6875,-7.54492 14.0859,-7.04883 C14.4844,-6.55273 14.6836,-5.98047 14.6836,-5.33203 C14.6836,-5.24609 14.6816,-5.18164 14.6777,-5.13867 C14.6738,-5.0957 14.668,-5.04688 14.6602,-4.99219 L14.4727,-2.85938 C14.457,-2.54688 14.4414,-2.28125 14.4258,-2.0625 C14.4102,-1.84375 14.4023,-1.66797 14.4023,-1.53516 C14.4023,-1.09766 14.4668,-0.748047 14.5957,-0.486328 C14.7246,-0.224609 14.9805,-0.09375 15.3633,-0.09375 C15.8633,-0.09375 16.3027,-0.326172 16.6816,-0.791016 C17.0605,-1.25586 17.3086,-1.76172 17.4258,-2.30859 C17.4961,-2.44922 17.5742,-2.51953 17.6602,-2.51953 L17.8828,-2.51953 C18.0391,-2.51953 18.1172,-2.41406 18.1172,-2.20313 C18,-1.74219 17.8145,-1.30469 17.5605,-0.890625 C17.3066,-0.476563 16.9863,-0.136719 16.5996,0.128906 C16.2129,0.394531 15.793,0.527344 15.3398,0.527344 C14.4023,0.527344 13.6035,0.318359 12.9434,-0.0996094 C12.2832,-0.517578 11.9531,-1.17188 11.9531,-2.0625 C11.9531,-2.39844 11.9844,-2.69531 12.0469,-2.95313 L12.5742,-5.08594 C12.6367,-5.28125 12.668,-5.50781 12.668,-5.76563 C12.668,-6.42969 12.4434,-6.95117 11.9941,-7.33008 C11.5449,-7.70898 10.9805,-7.89844 10.3008,-7.89844 L7.34766,-7.89844 L5.76563,-1.55859 C5.72656,-1.42578 5.70703,-1.3125 5.70703,-1.21875 C5.70703,-1.05469 5.80469,-0.960938 6,-0.9375 C6.30469,-0.875 6.87891,-0.84375 7.72266,-0.84375 C7.88672,-0.84375 7.96875,-0.738281 7.96875,-0.527344 C7.91406,-0.300781 7.87109,-0.15625 7.83984,-0.09375 C7.80859,-0.03125 7.71484,0 7.55859,0 L1.17188,0 M7.48828,-8.51953 L10.1484,-8.51953 C11.8906,-8.51953 13.2031,-8.96094 14.0859,-9.84375 C14.4922,-10.25 14.8145,-10.7676 15.0527,-11.3965 C15.291,-12.0254 15.4102,-12.6523 15.4102,-13.2773 C15.4102,-13.8711 15.2363,-14.3359 14.8887,-14.6719 C14.541,-15.0078 14.1113,-15.2383 13.5996,-15.3633 C13.0879,-15.4883 12.5234,-15.5508 11.9063,-15.5508 L10.3008,-15.5508 C9.86328,-15.5508 9.57422,-15.5137 9.43359,-15.4395 C9.29297,-15.3652 9.16406,-15.1289 9.04688,-14.7305 L7.48828,-8.51953"/>
</g>

<g fill="#212121" fill-opacity="1" stroke="#212121" stroke-opacity="1" stroke-width="0.8" stroke-linecap="square" stroke-linejoin="round" transform="matrix(0.75,0,0,0.75,0,0)"
font-family=".AppleSystemUIFont" font-size="13" font-weight="400" font-style="normal" 
>
<polyline fill="none" vector-effect="none" points="104,350 354,350 " />
<polyline fill="none" vector-effect="none" points="104,357.9 104,350 " />
<polyline fill="none" vector-effect="none" points="229,357.9 229,350 " />
<polyline fill="none" vector-effect="none" points="354,357.9 354,350 " />
</g>

<g fill="#212121" fill-opacity="1" stroke="none" transform="matrix(0.75,0,0,0.75,63.375,292.575)"
font-family=".AppleSystemUIFont" font-size="13" font-weight="400" font-style="normal" 
>
<path vector-effect="none" fill-rule="evenodd" d="M10.054,-7.172 C10.054,-8.91 9.966,-10.956 9.042,-12.738 C8.14,-14.388 6.622,-14.916 5.5,-14.916 C4.202,-14.916 2.662,-14.322 1.76,-12.364 C1.034,-10.758 0.924,-8.932 0.924,-7.172 C0.924,-5.434 1.012,-3.828 1.672,-2.222 C2.552,-0.11 4.224,0.484 5.478,0.484 C7.084,0.484 8.47,-0.418 9.174,-1.936 C9.834,-3.366 10.054,-4.818 10.054,-7.172 M8.338,-7.436 C8.338,-5.984 8.338,-4.598 7.942,-3.212 C7.37,-1.21 6.204,-0.858 5.5,-0.858 C4.356,-0.858 3.454,-1.694 3.014,-3.278 C2.662,-4.532 2.64,-5.72 2.64,-7.436 C2.64,-8.822 2.64,-10.142 3.014,-11.352 C3.146,-11.77 3.696,-13.574 5.478,-13.574 C7.194,-13.574 7.766,-11.902 7.92,-11.506 C8.338,-10.274 8.338,-8.8 8.338,-7.436 M14.96,0 L14.96,-1.826 L13.134,-1.826 L13.134,0 L14.96,0 M27.1634,-7.37 C27.1634,-13.53 24.5454,-14.916 22.6754,-14.916 C21.1354,-14.916 20.2334,-14.256 19.4634,-13.442 C18.0774,-11.946 18.0334,-10.494 18.0334,-9.548 C18.0334,-6.732 19.4854,-4.268 21.5974,-4.268 C22.9614,-4.268 24.3694,-4.906 25.3154,-6.094 C25.0734,-2.552 23.3794,-0.858 21.6414,-0.858 C20.8934,-0.858 20.1674,-1.034 19.3754,-1.694 L18.6934,-0.528 C19.4414,0.022 20.2554,0.484 21.6194,0.484 C24.5014,0.484 27.1634,-2.574 27.1634,-7.37 M25.2714,-9.042 C25.2714,-7.238 24.1934,-5.61 22.4554,-5.61 C21.4214,-5.61 20.8054,-6.116 20.3434,-6.93 C19.8594,-7.788 19.8374,-8.602 19.8374,-9.548 C19.8374,-10.516 19.8594,-11.418 20.4754,-12.386 C20.9154,-13.024 21.5314,-13.64 22.6754,-13.64 C24.8314,-13.64 25.2054,-10.648 25.2494,-9.57 C25.2714,-9.416 25.2714,-9.196 25.2714,-9.042 M37.9874,-4.466 C37.9874,-7.216 36.0954,-9.394 33.8294,-9.394 C32.9494,-9.394 32.1134,-9.064 31.4754,-8.492 L31.4754,-13.024 L37.2614,-13.024 L37.2614,-14.432 L29.8914,-14.432 L29.8914,-6.314 L31.3434,-6.314 C31.7174,-7.194 32.5314,-8.052 33.8074,-8.052 C34.8414,-8.052 36.0294,-7.15 36.0294,-4.51 C36.0294,-0.858 33.3454,-0.858 33.1474,-0.858 C31.6734,-0.858 30.3314,-1.716 29.6934,-2.904 L28.9674,-1.672 C29.8694,-0.418 31.3874,0.484 33.1694,0.484 C35.7874,0.484 37.9874,-1.694 37.9874,-4.466 "/>
</g>

<g fill="#212121" fill-opacity="1" stroke="none" transform="matrix(0.75,0,0,0.75,167.625,292.575)"
font-family=".AppleSystemUIFont" font-size="13" font-weight="400" font-style="normal" 
>
<path vector-effect="none" fill-rule="evenodd" d="M9.328,0 L9.328,-1.276 L6.578,-1.276 L6.578,-14.916 L6.138,-14.916 C4.84,-13.574 3.014,-13.508 1.958,-13.464 L1.958,-12.188 C2.684,-12.21 3.74,-12.254 4.84,-12.716 L4.84,-1.276 L2.09,-1.276 L2.09,0 L9.328,0"/>
</g>

<g fill="#212121" fill-opacity="1" stroke="none" transform="matrix(0.75,0,0,0.75,250.875,292.575)"
font-family=".AppleSystemUIFont" font-size="13" font-weight="400" font-style="normal" 
>
<path vector-effect="none" fill-rule="evenodd" d="M9.328,0 L9.328,-1.276 L6.578,-1.276 L6.578,-14.916 L6.138,-14.916 C4.84,-13.574 3.014,-13.508 1.958,-13.464 L1.958,-12.188 C2.684,-12.21 3.74,-12.254 4.84,-12.716 L4.84,-1.276 L2.09,-1.276 L2.09,0 L9.328,0 M14.96,0 L14.96,-1.826 L13.134,-1.826 L13.134,0 L14.96,0 M27.1634,-7.172 C27.1634,-8.91 27.0754,-10.956 26.1514,-12.738 C25.2494,-14.388 23.7314,-14.916 22.6094,-14.916 C21.3114,-14.916 19.7714,-14.322 18.8694,-12.364 C18.1434,-10.758 18.0334,-8.932 18.0334,-7.172 C18.0334,-5.434 18.1214,-3.828 18.7814,-2.222 C19.6614,-0.11 21.3334,0.484 22.5874,0.484 C24.1934,0.484 25.5794,-0.418 26.2834,-1.936 C26.9434,-3.366 27.1634,-4.818 27.1634,-7.172 M25.4474,-7.436 C25.4474,-5.984 25.4474,-4.598 25.0514,-3.212 C24.4794,-1.21 23.3134,-0.858 22.6094,-0.858 C21.4654,-0.858 20.5634,-1.694 20.1234,-3.278 C19.7714,-4.532 19.7494,-5.72 19.7494,-7.436 C19.7494,-8.822 19.7494,-10.142 20.1234,-11.352 C20.2554,-11.77 20.8054,-13.574 22.5874,-13.574 C24.3034,-13.574 24.8754,-11.902 25.0294,-11.506 C25.4474,-10.274 25.4474,-8.8 25.4474,-7.436 M37.9874,-4.466 C37.9874,-7.216 36.0954,-9.394 33.8294,-9.394 C32.9494,-9.394 32.1134,-9.064 31.4754,-8.492 L31.4754,-13.024 L37.2614,-13.024 L37.2614,-14.432 L29.8914,-14.432 L29.8914,-6.314 L31.3434,-6.314 C31.7174,-7.194 32.5314,-8.052 33.8074,-8.052 C34.8414,-8.052 36.0294,-7.15 36.0294,-4.51 C36.0294,-0.858 33.3454,-0.858 33.1474,-0.858 C31.6734,-0.858 30.3314,-1.716 29.6934,-2.904 L28.9674,-1.672 C29.8694,-0.418 31.3874,0.484 33.1694,0.484 C35.7874,0.484 37.9874,-1.694 37.9874,-4.466 "/>
</g>

<g fill="#212121" fill-opacity="1" stroke="none" transform="matrix(0,-0.75,0.75,0,35.9249,182.25)"
font-family=".AppleSystemUIFont" font-size="13" font-weight="400" font-style="normal" 
>
<path vector-effect="none" fill-rule="evenodd" d="M13.968,-11.808 C13.968,-14.376 11.592,-16.656 8.28,-16.656 L2.304,-16.656 L2.304,0 L4.44,0 L4.44,-6.936 L8.448,-6.936 C11.424,-6.936 13.968,-9.12 13.968,-11.808 M12.024,-11.808 C12.024,-9.912 10.512,-8.328 7.752,-8.328 L4.368,-8.328 L4.368,-15.312 L7.752,-15.312 C10.392,-15.312 12.024,-13.848 12.024,-11.808 M24.4723,0 L24.4723,-6.936 C24.4723,-9.384 22.7203,-11.064 20.5123,-11.064 C18.9522,-11.064 17.8723,-10.68 16.7443,-10.032 L16.8882,-8.448 C18.1363,-9.336 19.3362,-9.648 20.5123,-9.648 C21.6403,-9.648 22.6002,-8.688 22.6002,-6.912 L22.6002,-5.88 C19.0003,-5.832 15.9522,-4.824 15.9522,-2.712 C15.9522,-1.68 16.6002,0.264 18.6883,0.264 C19.0243,0.264 21.2803,0.216 22.6722,-0.864 L22.6722,0 L24.4723,0 M22.6002,-3.168 C22.6002,-2.712 22.6002,-2.112 21.7843,-1.656 C21.0883,-1.224 20.1762,-1.2 19.9123,-1.2 C18.7602,-1.2 17.6803,-1.752 17.6803,-2.76 C17.6803,-4.44 21.5682,-4.608 22.6002,-4.656 L22.6002,-3.168 M33.3636,-9.312 L33.3636,-10.92 C31.2276,-10.896 29.9076,-9.72 29.1636,-8.616 L29.1636,-10.8 L27.4836,-10.8 L27.4836,0 L29.2836,0 L29.2836,-5.136 C29.2836,-7.536 31.0116,-9.264 33.3636,-9.312 M43.5348,0 L43.5348,-6.936 C43.5348,-9.384 41.7828,-11.064 39.5748,-11.064 C38.0147,-11.064 36.9348,-10.68 35.8068,-10.032 L35.9507,-8.448 C37.1987,-9.336 38.3987,-9.648 39.5748,-9.648 C40.7028,-9.648 41.6628,-8.688 41.6628,-6.912 L41.6628,-5.88 C38.0628,-5.832 35.0147,-4.824 35.0147,-2.712 C35.0147,-1.68 35.6628,0.264 37.7507,0.264 C38.0868,0.264 40.3428,0.216 41.7347,-0.864 L41.7347,0 L43.5348,0 M41.6628,-3.168 C41.6628,-2.712 41.6628,-2.112 40.8468,-1.656 C40.1508,-1.224 39.2388,-1.2 38.9748,-1.2 C37.8227,-1.2 36.7428,-1.752 36.7428,-2.76 C36.7428,-4.44 40.6307,-4.608 41.6628,-4.656 L41.6628,-3.168 M62.362,0 L62.362,-7.152 C62.362,-8.76 61.978,-10.92 59.074,-10.92 C57.634,-10.92 56.386,-10.248 55.498,-8.952 C54.874,-10.776 53.194,-10.92 52.426,-10.92 C50.698,-10.92 49.57,-9.936 48.922,-9.072 L48.922,-10.8 L47.194,-10.8 L47.194,0 L49.066,0 L49.066,-5.88 C49.066,-7.512 49.714,-9.456 51.49,-9.456 C53.722,-9.456 53.842,-7.896 53.842,-6.984 L53.842,0 L55.714,0 L55.714,-5.88 C55.714,-7.512 56.362,-9.456 58.138,-9.456 C60.37,-9.456 60.49,-7.896 60.49,-6.984 L60.49,0 L62.362,0 M74.2329,-5.256 C74.2329,-6.072 74.2089,-7.872 73.2729,-9.312 C72.2889,-10.8 70.8249,-11.064 69.9609,-11.064 C67.2969,-11.064 65.1369,-8.52 65.1369,-5.424 C65.1369,-2.256 67.4409,0.264 70.3209,0.264 C71.8329,0.264 73.2009,-0.312 74.1369,-0.984 L73.9929,-2.544 C72.4809,-1.296 70.8969,-1.2 70.3449,-1.2 C68.4249,-1.2 66.8889,-2.904 66.8169,-5.256 L74.2329,-5.256 M72.8649,-6.576 L66.9369,-6.576 C67.3209,-8.4 68.5929,-9.6 69.9609,-9.6 C71.2089,-9.6 72.5529,-8.784 72.8649,-6.576 M82.9055,-0.648 L82.5215,-2.064 C81.8975,-1.56 81.1295,-1.272 80.3615,-1.272 C79.4735,-1.272 79.1375,-1.992 79.1375,-3.264 L79.1375,-9.264 L82.5215,-9.264 L82.5215,-10.656 L79.1375,-10.656 L79.1375,-13.704 L77.4815,-13.704 L77.4815,-10.656 L75.3935,-10.656 L75.3935,-9.264 L77.4095,-9.264 L77.4095,-2.856 C77.4095,-1.416 77.7455,0.264 79.4015,0.264 C81.0815,0.264 82.3055,-0.336 82.9055,-0.648 M93.5298,-5.256 C93.5298,-6.072 93.5058,-7.872 92.5697,-9.312 C91.5858,-10.8 90.1218,-11.064 89.2578,-11.064 C86.5938,-11.064 84.4338,-8.52 84.4338,-5.424 C84.4338,-2.256 86.7378,0.264 89.6178,0.264 C91.1298,0.264 92.4977,-0.312 93.4338,-0.984 L93.2897,-2.544 C91.7777,-1.296 90.1937,-1.2 89.6418,-1.2 C87.7218,-1.2 86.1857,-2.904 86.1137,-5.256 L93.5298,-5.256 M92.1617,-6.576 L86.2338,-6.576 C86.6178,-8.4 87.8898,-9.6 89.2578,-9.6 C90.5058,-9.6 91.8498,-8.784 92.1617,-6.576 M102.082,-9.312 L102.082,-10.92 C99.9464,-10.896 98.6264,-9.72 97.8824,-8.616 L97.8824,-10.8 L96.2024,-10.8 L96.2024,0 L98.0024,0 L98.0024,-5.136 C98.0024,-7.536 99.7304,-9.264 102.082,-9.312 "/>
</g>

<g fill="#212121" fill-opacity="1" stroke="#212121" stroke-opacity="1" stroke-width="0.8" stroke-linecap="square" stroke-linejoin="round" transform="matrix(0.75,0,0,0.75,0,0)"
font-family=".AppleSystemUIFont" font-size="13" font-weight="400" font-style="normal" 
>
<polyline fill="none" vector-effect="none" points="104,350 104,34 " />
<polyline fill="none" vector-effect="none" points="96.1,350 104,350 " />
<polyline fill="none" vector-effect="none" points="96.1,286.8 104,286.8 " />
<polyline fill="none" vector-effect="none" points="96.1,223.6 104,223.6 " />
<polyline fill="none" vector-effect="none" points="96.1,160.4 104,160.4 " />
<polyline fill="none" vector-effect="none" points="96.1,97.2 104,97.2 " />
<polyline fill="none" vector-effect="none" points="96.1,34 104,34 " />
</g>

<g fill="#212121" fill-opacity="1" stroke="none" transform="matrix(0.75,0,0,0.75,44.925,269.25)"
font-family=".AppleSystemUIFont" font-size="13" font-weight="400" font-style="normal" 
>
<path vector-effect="none" fill-rule="evenodd" d="M12.914,-0.99 L12.782,-2.508 C12.144,-2.068 11.506,-1.65 10.758,-1.43 C10.054,-1.188 9.284,-1.166 8.536,-1.166 C7.106,-1.166 5.808,-1.936 4.906,-3.058 C3.894,-4.356 3.41,-5.984 3.41,-7.634 C3.41,-9.284 3.894,-10.934 4.906,-12.232 C5.808,-13.354 7.106,-14.124 8.536,-14.124 C9.196,-14.124 9.878,-14.058 10.516,-13.86 C11.176,-13.662 11.792,-13.332 12.364,-12.936 L12.672,-14.74 C12.012,-15.004 11.33,-15.224 10.626,-15.356 C9.944,-15.488 9.24,-15.532 8.536,-15.532 C6.6,-15.532 4.818,-14.652 3.52,-13.222 C2.156,-11.682 1.452,-9.68 1.452,-7.634 C1.452,-5.588 2.156,-3.586 3.52,-2.068 C4.818,-0.638 6.6,0.242 8.536,0.242 C9.306,0.242 10.076,0.22 10.824,0 C11.572,-0.198 12.254,-0.594 12.914,-0.99 M28.3909,-15.268 L26.6749,-15.268 L23.7489,-7.744 C23.3969,-6.842 21.7469,-2.596 21.5489,-1.584 L21.5269,-1.584 C21.3509,-2.464 20.4049,-4.884 20.2069,-5.412 L16.4009,-15.268 L14.3549,-15.268 L20.3609,0 L22.3849,0 L28.3909,-15.268"/>
</g>

<g fill="#212121" fill-opacity="1" stroke="none" transform="matrix(0.75,0,0,0.75,58.5,222)"
font-family=".AppleSystemUIFont" font-size="13" font-weight="400" font-style="normal" 
>
<path vector-effect="none" fill-rule="evenodd" d="M2.35254,0.24707 C2.1735,0.24707 2.01953,0.189779 1.89063,0.0751953 C1.76172,-0.039388 1.69727,-0.189779 1.69727,-0.375977 C1.69727,-0.461914 1.70443,-0.526367 1.71875,-0.569336 L3.3623,-7.13281 C3.46973,-7.54102 3.52344,-7.89909 3.52344,-8.20703 C3.52344,-8.83724 3.30859,-9.15234 2.87891,-9.15234 C2.42057,-9.15234 2.0804,-8.87842 1.8584,-8.33057 C1.63639,-7.78271 1.42155,-7.08984 1.21387,-6.25195 C1.21387,-6.20898 1.19238,-6.17497 1.14941,-6.1499 C1.10645,-6.12484 1.06706,-6.1123 1.03125,-6.1123 L0.773438,-6.1123 C0.723307,-6.1123 0.680339,-6.13916 0.644531,-6.19287 C0.608724,-6.24658 0.59082,-6.29492 0.59082,-6.33789 C0.748372,-6.97526 0.900553,-7.51595 1.04736,-7.95996 C1.19417,-8.40397 1.42334,-8.80859 1.73486,-9.17383 C2.04639,-9.53906 2.4349,-9.72168 2.90039,-9.72168 C3.44466,-9.72168 3.92985,-9.5498 4.35596,-9.20605 C4.78206,-8.8623 4.99512,-8.41829 4.99512,-7.87402 C5.4248,-8.44694 5.92969,-8.89811 6.50977,-9.22754 C7.08984,-9.55697 7.72005,-9.72168 8.40039,-9.72168 C9.16667,-9.72168 9.78076,-9.51579 10.2427,-9.104 C10.7046,-8.69222 10.9355,-8.10677 10.9355,-7.34766 C10.9355,-6.91081 10.8854,-6.50618 10.7852,-6.13379 L8.22852,4.0498 C8.18555,4.25749 8.07813,4.42578 7.90625,4.55469 C7.73438,4.68359 7.54102,4.74805 7.32617,4.74805 C7.14714,4.74805 6.99316,4.69255 6.86426,4.58154 C6.73535,4.47054 6.6709,4.32194 6.6709,4.13574 C6.6709,4.0498 6.67806,3.99251 6.69238,3.96387 L9.2168,-6.17676 C9.36719,-6.77832 9.44238,-7.27962 9.44238,-7.68066 C9.44238,-8.08887 9.35645,-8.4362 9.18457,-8.72266 C9.0127,-9.00911 8.73698,-9.15234 8.35742,-9.15234 C6.91797,-9.15234 5.72201,-8.26432 4.76953,-6.48828 L3.27637,-0.483398 C3.22624,-0.282878 3.11344,-0.111003 2.93799,0.0322266 C2.76253,0.175456 2.56738,0.24707 2.35254,0.24707 "/>
</g>

<g fill="#212121" fill-opacity="1" stroke="none" transform="matrix(0.75,0,0,0.75,57.75,174.75)"
font-family=".AppleSystemUIFont" font-size="13" font-weight="400" font-style="normal" 
>
<path vector-effect="none" fill-rule="evenodd" d="M0.59082,4.26465 C0.547852,4.26465 0.508464,4.23958 0.472656,4.18945 C0.436849,4.13932 0.418945,4.09277 0.418945,4.0498 L3.80273,-9.5498 C3.99609,-10.2803 4.27897,-10.9893 4.65137,-11.6768 C5.02376,-12.3643 5.49105,-13.0034 6.05322,-13.5942 C6.6154,-14.1851 7.23307,-14.6523 7.90625,-14.9961 C8.57943,-15.3398 9.29557,-15.5117 10.0547,-15.5117 C10.599,-15.5117 11.0913,-15.3918 11.5317,-15.1519 C11.9722,-14.9119 12.3195,-14.5754 12.5737,-14.1421 C12.828,-13.7088 12.9551,-13.2201 12.9551,-12.6758 C12.9551,-12.153 12.8548,-11.6535 12.6543,-11.1772 C12.4538,-10.701 12.1745,-10.257 11.8164,-9.84521 C11.4583,-9.43343 11.0752,-9.09863 10.667,-8.84082 C10.9033,-8.69043 11.1146,-8.49886 11.3008,-8.26611 C11.487,-8.03337 11.6374,-7.78988 11.752,-7.53564 C11.8665,-7.28141 11.9561,-6.99854 12.0205,-6.68701 C12.085,-6.37549 12.1172,-6.08366 12.1172,-5.81152 C12.1172,-5.05957 11.9561,-4.31836 11.6338,-3.58789 C11.3115,-2.85742 10.8729,-2.19499 10.3179,-1.60059 C9.76286,-1.00618 9.12728,-0.535319 8.41113,-0.187988 C7.69499,0.159342 6.96094,0.333008 6.20898,0.333008 C5.38542,0.333008 4.64421,0.107422 3.98535,-0.34375 C3.3265,-0.794922 2.87174,-1.40723 2.62109,-2.18066 L1.03125,4.13574 C1.03125,4.22168 0.973958,4.26465 0.859375,4.26465 L0.59082,4.26465 M6.25195,-0.268555 C6.91081,-0.268555 7.507,-0.485189 8.04053,-0.918457 C8.57406,-1.35173 9.01449,-1.896 9.36182,-2.55127 C9.70915,-3.20654 9.97412,-3.9012 10.1567,-4.63525 C10.3394,-5.3693 10.4307,-6.03711 10.4307,-6.63867 C10.4307,-7.38346 10.2158,-7.9707 9.78613,-8.40039 C9.28483,-8.21419 8.79427,-8.12109 8.31445,-8.12109 C7.1543,-8.12109 6.57422,-8.31803 6.57422,-8.71191 C6.57422,-9.22754 7.23665,-9.48535 8.56152,-9.48535 C9.03418,-9.48535 9.46745,-9.41016 9.86133,-9.25977 C10.1764,-9.50326 10.4629,-9.86133 10.7207,-10.334 C10.9785,-10.8066 11.1737,-11.3008 11.3062,-11.8164 C11.4386,-12.332 11.5049,-12.8154 11.5049,-13.2666 C11.5049,-13.7464 11.3778,-14.1457 11.1235,-14.4644 C10.8693,-14.783 10.4987,-14.9424 10.0117,-14.9424 C9.11654,-14.9424 8.28402,-14.6667 7.51416,-14.1152 C6.7443,-13.5638 6.0944,-12.8674 5.56445,-12.0259 C5.03451,-11.1844 4.65495,-10.3161 4.42578,-9.4209 L3.21191,-4.55469 C3.13314,-4.2181 3.08301,-3.84212 3.06152,-3.42676 C3.06152,-2.51009 3.3623,-1.75456 3.96387,-1.16016 C4.56543,-0.565755 5.32813,-0.268555 6.25195,-0.268555 M7.24023,-8.77637 C7.46224,-8.71908 7.82747,-8.69043 8.33594,-8.69043 C8.58659,-8.69043 8.83724,-8.7334 9.08789,-8.81934 C9.07357,-8.83366 9.04492,-8.84082 9.00195,-8.84082 C8.8444,-8.88379 8.67611,-8.90527 8.49707,-8.90527 C7.83105,-8.90527 7.41211,-8.8623 7.24023,-8.77637 "/>
</g>

<g fill="#212121" fill-opacity="1" stroke="none" transform="matrix(0.75,0,0,0.75,57,126.75)"
font-family=".AppleSystemUIFont" font-size="13" font-weight="400" font-style="normal" 
>
<path vector-effect="none" fill-rule="evenodd" d="M4.26465,4.28613 L5.25293,0.311523 C4.50814,0.311523 3.81348,0.137858 3.16895,-0.209473 C2.52441,-0.556803 2.007,-1.04199 1.6167,-1.66504 C1.2264,-2.28809 1.03125,-2.96484 1.03125,-3.69531 C1.03125,-4.49023 1.22819,-5.24935 1.62207,-5.97266 C2.01595,-6.69596 2.55485,-7.35303 3.23877,-7.94385 C3.92269,-8.53467 4.65853,-8.98942 5.44629,-9.30811 C6.23405,-9.62679 7.01465,-9.78613 7.78809,-9.78613 L9.10938,-15.1357 C9.13802,-15.2217 9.19531,-15.2646 9.28125,-15.2646 L9.5498,-15.2646 C9.6071,-15.2646 9.65365,-15.2396 9.68945,-15.1895 C9.72526,-15.1393 9.74316,-15.0928 9.74316,-15.0498 L8.42188,-9.78613 C8.97331,-9.78613 9.50684,-9.68587 10.0225,-9.48535 C10.5381,-9.28483 10.9946,-9.00374 11.3921,-8.64209 C11.7896,-8.28044 12.0993,-7.85433 12.3213,-7.36377 C12.5433,-6.87321 12.6543,-6.34863 12.6543,-5.79004 C12.6543,-4.99512 12.4574,-4.236 12.0635,-3.5127 C11.6696,-2.78939 11.1396,-2.1377 10.4736,-1.55762 C9.80762,-0.977539 9.06462,-0.520996 8.24463,-0.187988 C7.42464,0.14502 6.64225,0.311523 5.89746,0.311523 L4.8877,4.38281 C4.85905,4.46875 4.79818,4.51172 4.70508,4.51172 L4.44727,4.51172 C4.38997,4.51172 4.34521,4.48486 4.31299,4.43115 C4.28076,4.37744 4.26465,4.3291 4.26465,4.28613 M5.39258,-0.268555 L7.6377,-9.2168 C7.2653,-9.2168 6.875,-9.1416 6.4668,-8.99121 C6.05859,-8.84082 5.67367,-8.65104 5.31201,-8.42188 C4.95036,-8.19271 4.62272,-7.93132 4.3291,-7.6377 C3.97103,-7.27962 3.65592,-6.8571 3.38379,-6.37012 C3.11165,-5.88314 2.90576,-5.3693 2.76611,-4.82861 C2.62646,-4.28792 2.55664,-3.75618 2.55664,-3.2334 C2.55664,-2.68197 2.6748,-2.18066 2.91113,-1.72949 C3.14746,-1.27832 3.48047,-0.922038 3.91016,-0.660645 C4.33984,-0.399251 4.83398,-0.268555 5.39258,-0.268555 M6.04785,-0.268555 C6.59928,-0.268555 7.18652,-0.426107 7.80957,-0.741211 C8.43262,-1.05632 8.94466,-1.42513 9.3457,-1.84766 C9.89714,-2.39193 10.3322,-3.05973 10.6509,-3.85107 C10.9696,-4.64242 11.1289,-5.44271 11.1289,-6.25195 C11.1289,-6.79622 11.0107,-7.29574 10.7744,-7.75049 C10.5381,-8.20524 10.2051,-8.56331 9.77539,-8.82471 C9.3457,-9.0861 8.85156,-9.2168 8.29297,-9.2168 L6.04785,-0.268555"/>
</g>

<g fill="#212121" fill-opacity="1" stroke="none" transform="matrix(0.75,0,0,0.75,48.75,75.75)"
font-family=".AppleSystemUIFont" font-size="13" font-weight="400" font-style="normal" 
>
<path vector-effect="none" fill-rule="evenodd" d="M14.344,-15.268 L12.628,-15.268 L9.702,-7.744 C9.35,-6.842 7.7,-2.596 7.502,-1.584 L7.48,-1.584 C7.304,-2.464 6.358,-4.884 6.16,-5.412 L2.354,-15.268 L0.308,-15.268 L6.314,0 L8.338,0 L14.344,-15.268"/>
</g>

<g fill="#212121" fill-opacity="1" stroke="none" transform="matrix(0.75,0,0,0.75,60,84)"
font-family=".AppleSystemUIFont" font-size="13" font-weight="400" font-style="normal" 
>
<path vector-effect="none" fill-rule="evenodd" d="M8.226,-5.868 C8.226,-7.29 8.154,-8.964 7.398,-10.422 C6.66,-11.772 5.418,-12.204 4.5,-12.204 C3.438,-12.204 2.178,-11.718 1.44,-10.116 C0.846,-8.802 0.756,-7.308 0.756,-5.868 C0.756,-4.446 0.828,-3.132 1.368,-1.818 C2.088,-0.09 3.456,0.396 4.482,0.396 C5.796,0.396 6.93,-0.342 7.506,-1.584 C8.046,-2.754 8.226,-3.942 8.226,-5.868 M6.822,-6.084 C6.822,-4.896 6.822,-3.762 6.498,-2.628 C6.03,-0.99 5.076,-0.702 4.5,-0.702 C3.564,-0.702 2.826,-1.386 2.466,-2.682 C2.178,-3.708 2.16,-4.68 2.16,-6.084 C2.16,-7.218 2.16,-8.298 2.466,-9.288 C2.574,-9.63 3.024,-11.106 4.482,-11.106 C5.886,-11.106 6.354,-9.738 6.48,-9.414 C6.822,-8.406 6.822,-7.2 6.822,-6.084 "/>
</g>

<g fill="#212121" fill-opacity="1" stroke="none" transform="matrix(0.75,0,0,0.75,51,28.5)"
font-family=".AppleSystemUIFont" font-size="13" font-weight="400" font-style="normal" 
>
<path vector-effect="none" fill-rule="evenodd" d="M10.978,-4.158 C10.978,-5.588 10.296,-6.644 9.812,-7.172 C8.778,-8.272 8.052,-8.47 6.028,-8.976 C4.752,-9.284 4.4,-9.372 3.74,-9.944 C3.586,-10.076 2.97,-10.714 2.97,-11.682 C2.97,-12.98 4.158,-14.3 6.182,-14.3 C8.03,-14.3 9.086,-13.574 9.9,-12.892 L10.23,-14.652 C9.02,-15.378 7.81,-15.752 6.204,-15.752 C3.146,-15.752 1.232,-13.596 1.232,-11.418 C1.232,-10.472 1.54,-9.548 2.42,-8.624 C3.344,-7.634 4.312,-7.37 5.61,-7.062 C7.48,-6.6 7.7,-6.534 8.316,-5.984 C8.756,-5.61 9.24,-4.884 9.24,-3.938 C9.24,-2.486 8.03,-1.034 6.028,-1.034 C5.126,-1.034 3.146,-1.254 1.298,-2.816 L0.968,-1.034 C2.904,0.176 4.664,0.484 6.05,0.484 C8.954,0.484 10.978,-1.738 10.978,-4.158 "/>
</g>

<g fill="#212121" fill-opacity="1" stroke="none" transform="matrix(0.75,0,0,0.75,60,36.75)"
font-family=".AppleSystemUIFont" font-size="13" font-weight="400" font-style="normal" 
>
<path vector-effect="none" fill-rule="evenodd" d="M8.226,-5.868 C8.226,-7.29 8.154,-8.964 7.398,-10.422 C6.66,-11.772 5.418,-12.204 4.5,-12.204 C3.438,-12.204 2.178,-11.718 1.44,-10.116 C0.846,-8.802 0.756,-7.308 0.756,-5.868 C0.756,-4.446 0.828,-3.132 1.368,-1.818 C2.088,-0.09 3.456,0.396 4.482,0.396 C5.796,0.396 6.93,-0.342 7.506,-1.584 C8.046,-2.754 8.226,-3.942 8.226,-5.868 M6.822,-6.084 C6.822,-4.896 6.822,-3.762 6.498,-2.628 C6.03,-0.99 5.076,-0.702 4.5,-0.702 C3.564,-0.702 2.826,-1.386 2.466,-2.682 C2.178,-3.708 2.16,-4.68 2.16,-6.084 C2.16,-7.218 2.16,-8.298 2.466,-9.288 C2.574,-9.63 3.024,-11.106 4.482,-11.106 C5.886,-11.106 6.354,-9.738 6.48,-9.414 C6.822,-8.406 6.822,-7.2 6.822,-6.084 "/>
</g>

<g fill="#000000" fill-opacity="1" stroke="none" transform="matrix(0.75,0,0,0.75,0,0)"
font-family=".AppleSystemUIFont" font-size="13" font-weight="400" font-style="normal" 
>
<circle cx="236.455" cy="34" r="4"/>
<circle cx="229.338" cy="97.2" r="4"/>
<circle cx="235.66" cy="160.4" r="4"/>
<circle cx="257.62" cy="223.6" r="4"/>
<circle cx="241.718" cy="286.8" r="4"/>
<circle cx="236.578" cy="350" r="4"/>
</g>

<g fill="#212121" fill-opacity="0.701961" stroke="#212121" stroke-opacity="0.701961" stroke-dasharray="8,8" stroke-dashoffset="0" stroke-width="2" stroke-linecap="butt" stroke-linejoin="round" transform="matrix(0.75,0,0,0.75,0,0)"
font-family=".AppleSystemUIFont" font-size="13" font-weight="400" font-style="normal" 
>
<polyline fill="none" vector-effect="none" points="229,350 229,34 " />
</g>

<g fill="#ffffff" fill-opacity="1" stroke="none" transform="matrix(7.5e-05,0,0,7.5e-05,0,0)"
font-family=".AppleSystemUIFont" font-size="13" font-weight="400" font-style="normal" 
>
<path vector-effect="none" fill-rule="evenodd" d="M4.74e+06,340000 L4.74e+06,3.5e+06 L7.24e+06,3.5e+06 L7.24e+06,340000 L4.74e+06,340000"/>
</g>

<g fill="#212121" fill-opacity="1" stroke="none" transform="matrix(0.75,0,0,0.75,433.875,320.575)"
font-family=".AppleSystemUIFont" font-size="13" font-weight="400" font-style="normal" 
>
<path vector-effect="none" fill-rule="evenodd" d="M13.296,0 L13.296,-1.704 L10.272,-1.704 C9.984,-1.704 9.696,-1.68 9.408,-1.68 L4.392,-1.68 L4.392,-7.896 L12.312,-7.896 L12.312,-9.36 L4.392,-9.36 L4.392,-15.048 L7.704,-15.048 C7.992,-15.048 8.28,-15.024 8.568,-15.024 L12.96,-15.024 L12.96,-16.584 L2.256,-16.584 L2.256,0 L13.296,0 M26.2885,-4.536 C26.2885,-6.096 25.5445,-7.248 25.0165,-7.824 C23.8885,-9.024 23.0965,-9.24 20.8885,-9.792 C19.4965,-10.128 19.1125,-10.224 18.3925,-10.848 C18.2245,-10.992 17.5525,-11.688 17.5525,-12.744 C17.5525,-14.16 18.8485,-15.6 21.0565,-15.6 C23.0725,-15.6 24.2245,-14.808 25.1125,-14.064 L25.4725,-15.984 C24.1525,-16.776 22.8325,-17.184 21.0805,-17.184 C17.7445,-17.184 15.6565,-14.832 15.6565,-12.456 C15.6565,-11.424 15.9925,-10.416 16.9525,-9.408 C17.9605,-8.328 19.0165,-8.04 20.4325,-7.704 C22.4725,-7.2 22.7125,-7.128 23.3845,-6.528 C23.8645,-6.12 24.3925,-5.328 24.3925,-4.296 C24.3925,-2.712 23.0725,-1.128 20.8885,-1.128 C19.9045,-1.128 17.7445,-1.368 15.7285,-3.072 L15.3685,-1.128 C17.4805,0.192 19.4005,0.528 20.9125,0.528 C24.0805,0.528 26.2885,-1.896 26.2885,-4.536 M39.6322,-4.536 C39.6322,-6.096 38.8882,-7.248 38.3603,-7.824 C37.2323,-9.024 36.4402,-9.24 34.2323,-9.792 C32.8402,-10.128 32.4562,-10.224 31.7362,-10.848 C31.5682,-10.992 30.8963,-11.688 30.8963,-12.744 C30.8963,-14.16 32.1923,-15.6 34.4002,-15.6 C36.4162,-15.6 37.5682,-14.808 38.4562,-14.064 L38.8162,-15.984 C37.4963,-16.776 36.1762,-17.184 34.4243,-17.184 C31.0882,-17.184 29.0003,-14.832 29.0003,-12.456 C29.0003,-11.424 29.3362,-10.416 30.2963,-9.408 C31.3042,-8.328 32.3603,-8.04 33.7762,-7.704 C35.8162,-7.2 36.0562,-7.128 36.7283,-6.528 C37.2082,-6.12 37.7362,-5.328 37.7362,-4.296 C37.7362,-2.712 36.4162,-1.128 34.2323,-1.128 C33.2482,-1.128 31.0882,-1.368 29.0723,-3.072 L28.7123,-1.128 C30.8242,0.192 32.7443,0.528 34.2563,0.528 C37.4243,0.528 39.6322,-1.896 39.6322,-4.536 "/>
</g>

<g fill="#212121" fill-opacity="1" stroke="#212121" stroke-opacity="1" stroke-width="0.8" stroke-linecap="square" stroke-linejoin="round" transform="matrix(0.75,0,0,0.75,0,0)"
font-family=".AppleSystemUIFont" font-size="13" font-weight="400" font-style="normal" 
>
<polyline fill="none" vector-effect="none" points="474,350 724,350 " />
<polyline fill="none" vector-effect="none" points="474,357.9 474,350 " />
<polyline fill="none" vector-effect="none" points="599,357.9 599,350 " />
<polyline fill="none" vector-effect="none" points="724,357.9 724,350 " />
</g>

<g fill="#212121" fill-opacity="1" stroke="none" transform="matrix(0.75,0,0,0.75,351.375,292.575)"
font-family=".AppleSystemUIFont" font-size="13" font-weight="400" font-style="normal" 
>
<path vector-effect="none" fill-rule="evenodd" d="M10.054,-7.172 C10.054,-8.91 9.966,-10.956 9.042,-12.738 C8.14,-14.388 6.622,-14.916 5.5,-14.916 C4.202,-14.916 2.662,-14.322 1.76,-12.364 C1.034,-10.758 0.924,-8.932 0.924,-7.172 C0.924,-5.434 1.012,-3.828 1.672,-2.222 C2.552,-0.11 4.224,0.484 5.478,0.484 C7.084,0.484 8.47,-0.418 9.174,-1.936 C9.834,-3.366 10.054,-4.818 10.054,-7.172 M8.338,-7.436 C8.338,-5.984 8.338,-4.598 7.942,-3.212 C7.37,-1.21 6.204,-0.858 5.5,-0.858 C4.356,-0.858 3.454,-1.694 3.014,-3.278 C2.662,-4.532 2.64,-5.72 2.64,-7.436 C2.64,-8.822 2.64,-10.142 3.014,-11.352 C3.146,-11.77 3.696,-13.574 5.478,-13.574 C7.194,-13.574 7.766,-11.902 7.92,-11.506 C8.338,-10.274 8.338,-8.8 8.338,-7.436 "/>
</g>

<g fill="#212121" fill-opacity="1" stroke="none" transform="matrix(0.75,0,0,0.75,438.75,292.575)"
font-family=".AppleSystemUIFont" font-size="13" font-weight="400" font-style="normal" 
>
<path vector-effect="none" fill-rule="evenodd" d="M10.054,-7.172 C10.054,-8.91 9.966,-10.956 9.042,-12.738 C8.14,-14.388 6.622,-14.916 5.5,-14.916 C4.202,-14.916 2.662,-14.322 1.76,-12.364 C1.034,-10.758 0.924,-8.932 0.924,-7.172 C0.924,-5.434 1.012,-3.828 1.672,-2.222 C2.552,-0.11 4.224,0.484 5.478,0.484 C7.084,0.484 8.47,-0.418 9.174,-1.936 C9.834,-3.366 10.054,-4.818 10.054,-7.172 M8.338,-7.436 C8.338,-5.984 8.338,-4.598 7.942,-3.212 C7.37,-1.21 6.204,-0.858 5.5,-0.858 C4.356,-0.858 3.454,-1.694 3.014,-3.278 C2.662,-4.532 2.64,-5.72 2.64,-7.436 C2.64,-8.822 2.64,-10.142 3.014,-11.352 C3.146,-11.77 3.696,-13.574 5.478,-13.574 C7.194,-13.574 7.766,-11.902 7.92,-11.506 C8.338,-10.274 8.338,-8.8 8.338,-7.436 M14.96,0 L14.96,-1.826 L13.134,-1.826 L13.134,0 L14.96,0 M26.4374,0 L26.4374,-1.276 L23.6874,-1.276 L23.6874,-14.916 L23.2474,-14.916 C21.9494,-13.574 20.1234,-13.508 19.0674,-13.464 L19.0674,-12.188 C19.7934,-12.21 20.8494,-12.254 21.9494,-12.716 L21.9494,-1.276 L19.1994,-1.276 L19.1994,0 L26.4374,0"/>
</g>

<g fill="#212121" fill-opacity="1" stroke="none" transform="matrix(0.75,0,0,0.75,532.5,292.575)"
font-family=".AppleSystemUIFont" font-size="13" font-weight="400" font-style="normal" 
>
<path vector-effect="none" fill-rule="evenodd" d="M10.054,-7.172 C10.054,-8.91 9.966,-10.956 9.042,-12.738 C8.14,-14.388 6.622,-14.916 5.5,-14.916 C4.202,-14.916 2.662,-14.322 1.76,-12.364 C1.034,-10.758 0.924,-8.932 0.924,-7.172 C0.924,-5.434 1.012,-3.828 1.672,-2.222 C2.552,-0.11 4.224,0.484 5.478,0.484 C7.084,0.484 8.47,-0.418 9.174,-1.936 C9.834,-3.366 10.054,-4.818 10.054,-7.172 M8.338,-7.436 C8.338,-5.984 8.338,-4.598 7.942,-3.212 C7.37,-1.21 6.204,-0.858 5.5,-0.858 C4.356,-0.858 3.454,-1.694 3.014,-3.278 C2.662,-4.532 2.64,-5.72 2.64,-7.436 C2.64,-8.822 2.64,-10.142 3.014,-11.352 C3.146,-11.77 3.696,-13.574 5.478,-13.574 C7.194,-13.574 7.766,-11.902 7.92,-11.506 C8.338,-10.274 8.338,-8.8 8.338,-7.436 M14.96,0 L14.96,-1.826 L13.134,-1.826 L13.134,0 L14.96,0 M26.9874,0 L26.9874,-1.562 L22.9834,-1.562 C22.7194,-1.562 22.4554,-1.54 22.1914,-1.54 L19.7934,-1.54 C20.4974,-2.156 22.1694,-3.806 22.8514,-4.444 C23.2694,-4.84 24.3914,-5.764 24.8094,-6.16 C25.7994,-7.15 26.9874,-8.316 26.9874,-10.186 C26.9874,-12.716 25.2054,-14.916 22.3014,-14.916 C19.7934,-14.916 18.5614,-13.2 18.0334,-11.308 C18.2974,-10.934 18.4074,-10.802 18.4514,-10.736 C18.4954,-10.692 18.7154,-10.406 18.9354,-10.098 C19.3754,-11.792 19.9914,-13.508 21.9934,-13.508 C24.0614,-13.508 25.1834,-11.858 25.1834,-10.142 C25.1834,-8.272 23.9294,-7.018 22.6314,-5.698 L20.9374,-4.136 L18.2094,-1.408 L18.2094,0 L26.9874,0"/>
</g>

<g fill="#212121" fill-opacity="1" stroke="none" transform="matrix(0,-0.75,0.75,0,313.425,182.25)"
font-family=".AppleSystemUIFont" font-size="13" font-weight="400" font-style="normal" 
>
<path vector-effect="none" fill-rule="evenodd" d="M13.968,-11.808 C13.968,-14.376 11.592,-16.656 8.28,-16.656 L2.304,-16.656 L2.304,0 L4.44,0 L4.44,-6.936 L8.448,-6.936 C11.424,-6.936 13.968,-9.12 13.968,-11.808 M12.024,-11.808 C12.024,-9.912 10.512,-8.328 7.752,-8.328 L4.368,-8.328 L4.368,-15.312 L7.752,-15.312 C10.392,-15.312 12.024,-13.848 12.024,-11.808 M24.4723,0 L24.4723,-6.936 C24.4723,-9.384 22.7203,-11.064 20.5123,-11.064 C18.9522,-11.064 17.8723,-10.68 16.7443,-10.032 L16.8882,-8.448 C18.1363,-9.336 19.3362,-9.648 20.5123,-9.648 C21.6403,-9.648 22.6002,-8.688 22.6002,-6.912 L22.6002,-5.88 C19.0003,-5.832 15.9522,-4.824 15.9522,-2.712 C15.9522,-1.68 16.6002,0.264 18.6883,0.264 C19.0243,0.264 21.2803,0.216 22.6722,-0.864 L22.6722,0 L24.4723,0 M22.6002,-3.168 C22.6002,-2.712 22.6002,-2.112 21.7843,-1.656 C21.0883,-1.224 20.1762,-1.2 19.9123,-1.2 C18.7602,-1.2 17.6803,-1.752 17.6803,-2.76 C17.6803,-4.44 21.5682,-4.608 22.6002,-4.656 L22.6002,-3.168 M33.3636,-9.312 L33.3636,-10.92 C31.2276,-10.896 29.9076,-9.72 29.1636,-8.616 L29.1636,-10.8 L27.4836,-10.8 L27.4836,0 L29.2836,0 L29.2836,-5.136 C29.2836,-7.536 31.0116,-9.264 33.3636,-9.312 M43.5348,0 L43.5348,-6.936 C43.5348,-9.384 41.7828,-11.064 39.5748,-11.064 C38.0147,-11.064 36.9348,-10.68 35.8068,-10.032 L35.9507,-8.448 C37.1987,-9.336 38.3987,-9.648 39.5748,-9.648 C40.7028,-9.648 41.6628,-8.688 41.6628,-6.912 L41.6628,-5.88 C38.0628,-5.832 35.0147,-4.824 35.0147,-2.712 C35.0147,-1.68 35.6628,0.264 37.7507,0.264 C38.0868,0.264 40.3428,0.216 41.7347,-0.864 L41.7347,0 L43.5348,0 M41.6628,-3.168 C41.6628,-2.712 41.6628,-2.112 40.8468,-1.656 C40.1508,-1.224 39.2388,-1.2 38.9748,-1.2 C37.8227,-1.2 36.7428,-1.752 36.7428,-2.76 C36.7428,-4.44 40.6307,-4.608 41.6628,-4.656 L41.6628,-3.168 M62.362,0 L62.362,-7.152 C62.362,-8.76 61.978,-10.92 59.074,-10.92 C57.634,-10.92 56.386,-10.248 55.498,-8.952 C54.874,-10.776 53.194,-10.92 52.426,-10.92 C50.698,-10.92 49.57,-9.936 48.922,-9.072 L48.922,-10.8 L47.194,-10.8 L47.194,0 L49.066,0 L49.066,-5.88 C49.066,-7.512 49.714,-9.456 51.49,-9.456 C53.722,-9.456 53.842,-7.896 53.842,-6.984 L53.842,0 L55.714,0 L55.714,-5.88 C55.714,-7.512 56.362,-9.456 58.138,-9.456 C60.37,-9.456 60.49,-7.896 60.49,-6.984 L60.49,0 L62.362,0 M74.2329,-5.256 C74.2329,-6.072 74.2089,-7.872 73.2729,-9.312 C72.2889,-10.8 70.8249,-11.064 69.9609,-11.064 C67.2969,-11.064 65.1369,-8.52 65.1369,-5.424 C65.1369,-2.256 67.4409,0.264 70.3209,0.264 C71.8329,0.264 73.2009,-0.312 74.1369,-0.984 L73.9929,-2.544 C72.4809,-1.296 70.8969,-1.2 70.3449,-1.2 C68.4249,-1.2 66.8889,-2.904 66.8169,-5.256 L74.2329,-5.256 M72.8649,-6.576 L66.9369,-6.576 C67.3209,-8.4 68.5929,-9.6 69.9609,-9.6 C71.2089,-9.6 72.5529,-8.784 72.8649,-6.576 M82.9055,-0.648 L82.5215,-2.064 C81.8975,-1.56 81.1295,-1.272 80.3615,-1.272 C79.4735,-1.272 79.1375,-1.992 79.1375,-3.264 L79.1375,-9.264 L82.5215,-9.264 L82.5215,-10.656 L79.1375,-10.656 L79.1375,-13.704 L77.4815,-13.704 L77.4815,-10.656 L75.3935,-10.656 L75.3935,-9.264 L77.4095,-9.264 L77.4095,-2.856 C77.4095,-1.416 77.7455,0.264 79.4015,0.264 C81.0815,0.264 82.3055,-0.336 82.9055,-0.648 M93.5298,-5.256 C93.5298,-6.072 93.5058,-7.872 92.5697,-9.312 C91.5858,-10.8 90.1218,-11.064 89.2578,-11.064 C86.5938,-11.064 84.4338,-8.52 84.4338,-5.424 C84.4338,-2.256 86.7378,0.264 89.6178,0.264 C91.1298,0.264 92.4977,-0.312 93.4338,-0.984 L93.2897,-2.544 C91.7777,-1.296 90.1937,-1.2 89.6418,-1.2 C87.7218,-1.2 86.1857,-2.904 86.1137,-5.256 L93.5298,-5.256 M92.1617,-6.576 L86.2338,-6.576 C86.6178,-8.4 87.8898,-9.6 89.2578,-9.6 C90.5058,-9.6 91.8498,-8.784 92.1617,-6.576 M102.082,-9.312 L102.082,-10.92 C99.9464,-10.896 98.6264,-9.72 97.8824,-8.616 L97.8824,-10.8 L96.2024,-10.8 L96.2024,0 L98.0024,0 L98.0024,-5.136 C98.0024,-7.536 99.7304,-9.264 102.082,-9.312 "/>
</g>

<g fill="#212121" fill-opacity="1" stroke="#212121" stroke-opacity="1" stroke-width="0.8" stroke-linecap="square" stroke-linejoin="round" transform="matrix(0.75,0,0,0.75,0,0)"
font-family=".AppleSystemUIFont" font-size="13" font-weight="400" font-style="normal" 
>
<polyline fill="none" vector-effect="none" points="474,350 474,34 " />
<polyline fill="none" vector-effect="none" points="466.1,350 474,350 " />
<polyline fill="none" vector-effect="none" points="466.1,286.8 474,286.8 " />
<polyline fill="none" vector-effect="none" points="466.1,223.6 474,223.6 " />
<polyline fill="none" vector-effect="none" points="466.1,160.4 474,160.4 " />
<polyline fill="none" vector-effect="none" points="466.1,97.2 474,97.2 " />
<polyline fill="none" vector-effect="none" points="466.1,34 474,34 " />
</g>

<g fill="#212121" fill-opacity="1" stroke="none" transform="matrix(0.75,0,0,0.75,322.425,269.25)"
font-family=".AppleSystemUIFont" font-size="13" font-weight="400" font-style="normal" 
>
<path vector-effect="none" fill-rule="evenodd" d="M12.914,-0.99 L12.782,-2.508 C12.144,-2.068 11.506,-1.65 10.758,-1.43 C10.054,-1.188 9.284,-1.166 8.536,-1.166 C7.106,-1.166 5.808,-1.936 4.906,-3.058 C3.894,-4.356 3.41,-5.984 3.41,-7.634 C3.41,-9.284 3.894,-10.934 4.906,-12.232 C5.808,-13.354 7.106,-14.124 8.536,-14.124 C9.196,-14.124 9.878,-14.058 10.516,-13.86 C11.176,-13.662 11.792,-13.332 12.364,-12.936 L12.672,-14.74 C12.012,-15.004 11.33,-15.224 10.626,-15.356 C9.944,-15.488 9.24,-15.532 8.536,-15.532 C6.6,-15.532 4.818,-14.652 3.52,-13.222 C2.156,-11.682 1.452,-9.68 1.452,-7.634 C1.452,-5.588 2.156,-3.586 3.52,-2.068 C4.818,-0.638 6.6,0.242 8.536,0.242 C9.306,0.242 10.076,0.22 10.824,0 C11.572,-0.198 12.254,-0.594 12.914,-0.99 M28.3909,-15.268 L26.6749,-15.268 L23.7489,-7.744 C23.3969,-6.842 21.7469,-2.596 21.5489,-1.584 L21.5269,-1.584 C21.3509,-2.464 20.4049,-4.884 20.2069,-5.412 L16.4009,-15.268 L14.3549,-15.268 L20.3609,0 L22.3849,0 L28.3909,-15.268"/>
</g>

<g fill="#212121" fill-opacity="1" stroke="none" transform="matrix(0.75,0,0,0.75,336,222)"
font-family=".AppleSystemUIFont" font-size="13" font-weight="400" font-style="normal" 
>
<path vector-effect="none" fill-rule="evenodd" d="M2.35254,0.24707 C2.1735,0.24707 2.01953,0.189779 1.89063,0.0751953 C1.76172,-0.039388 1.69727,-0.189779 1.69727,-0.375977 C1.69727,-0.461914 1.70443,-0.526367 1.71875,-0.569336 L3.3623,-7.13281 C3.46973,-7.54102 3.52344,-7.89909 3.52344,-8.20703 C3.52344,-8.83724 3.30859,-9.15234 2.87891,-9.15234 C2.42057,-9.15234 2.0804,-8.87842 1.8584,-8.33057 C1.63639,-7.78271 1.42155,-7.08984 1.21387,-6.25195 C1.21387,-6.20898 1.19238,-6.17497 1.14941,-6.1499 C1.10645,-6.12484 1.06706,-6.1123 1.03125,-6.1123 L0.773438,-6.1123 C0.723307,-6.1123 0.680339,-6.13916 0.644531,-6.19287 C0.608724,-6.24658 0.59082,-6.29492 0.59082,-6.33789 C0.748372,-6.97526 0.900553,-7.51595 1.04736,-7.95996 C1.19417,-8.40397 1.42334,-8.80859 1.73486,-9.17383 C2.04639,-9.53906 2.4349,-9.72168 2.90039,-9.72168 C3.44466,-9.72168 3.92985,-9.5498 4.35596,-9.20605 C4.78206,-8.8623 4.99512,-8.41829 4.99512,-7.87402 C5.4248,-8.44694 5.92969,-8.89811 6.50977,-9.22754 C7.08984,-9.55697 7.72005,-9.72168 8.40039,-9.72168 C9.16667,-9.72168 9.78076,-9.51579 10.2427,-9.104 C10.7046,-8.69222 10.9355,-8.10677 10.9355,-7.34766 C10.9355,-6.91081 10.8854,-6.50618 10.7852,-6.13379 L8.22852,4.0498 C8.18555,4.25749 8.07813,4.42578 7.90625,4.55469 C7.73438,4.68359 7.54102,4.74805 7.32617,4.74805 C7.14714,4.74805 6.99316,4.69255 6.86426,4.58154 C6.73535,4.47054 6.6709,4.32194 6.6709,4.13574 C6.6709,4.0498 6.67806,3.99251 6.69238,3.96387 L9.2168,-6.17676 C9.36719,-6.77832 9.44238,-7.27962 9.44238,-7.68066 C9.44238,-8.08887 9.35645,-8.4362 9.18457,-8.72266 C9.0127,-9.00911 8.73698,-9.15234 8.35742,-9.15234 C6.91797,-9.15234 5.72201,-8.26432 4.76953,-6.48828 L3.27637,-0.483398 C3.22624,-0.282878 3.11344,-0.111003 2.93799,0.0322266 C2.76253,0.175456 2.56738,0.24707 2.35254,0.24707 "/>
</g>

<g fill="#212121" fill-opacity="1" stroke="none" transform="matrix(0.75,0,0,0.75,335.25,174.75)"
font-family=".AppleSystemUIFont" font-size="13" font-weight="400" font-style="normal" 
>
<path vector-effect="none" fill-rule="evenodd" d="M0.59082,4.26465 C0.547852,4.26465 0.508464,4.23958 0.472656,4.18945 C0.436849,4.13932 0.418945,4.09277 0.418945,4.0498 L3.80273,-9.5498 C3.99609,-10.2803 4.27897,-10.9893 4.65137,-11.6768 C5.02376,-12.3643 5.49105,-13.0034 6.05322,-13.5942 C6.6154,-14.1851 7.23307,-14.6523 7.90625,-14.9961 C8.57943,-15.3398 9.29557,-15.5117 10.0547,-15.5117 C10.599,-15.5117 11.0913,-15.3918 11.5317,-15.1519 C11.9722,-14.9119 12.3195,-14.5754 12.5737,-14.1421 C12.828,-13.7088 12.9551,-13.2201 12.9551,-12.6758 C12.9551,-12.153 12.8548,-11.6535 12.6543,-11.1772 C12.4538,-10.701 12.1745,-10.257 11.8164,-9.84521 C11.4583,-9.43343 11.0752,-9.09863 10.667,-8.84082 C10.9033,-8.69043 11.1146,-8.49886 11.3008,-8.26611 C11.487,-8.03337 11.6374,-7.78988 11.752,-7.53564 C11.8665,-7.28141 11.9561,-6.99854 12.0205,-6.68701 C12.085,-6.37549 12.1172,-6.08366 12.1172,-5.81152 C12.1172,-5.05957 11.9561,-4.31836 11.6338,-3.58789 C11.3115,-2.85742 10.8729,-2.19499 10.3179,-1.60059 C9.76286,-1.00618 9.12728,-0.535319 8.41113,-0.187988 C7.69499,0.159342 6.96094,0.333008 6.20898,0.333008 C5.38542,0.333008 4.64421,0.107422 3.98535,-0.34375 C3.3265,-0.794922 2.87174,-1.40723 2.62109,-2.18066 L1.03125,4.13574 C1.03125,4.22168 0.973958,4.26465 0.859375,4.26465 L0.59082,4.26465 M6.25195,-0.268555 C6.91081,-0.268555 7.507,-0.485189 8.04053,-0.918457 C8.57406,-1.35173 9.01449,-1.896 9.36182,-2.55127 C9.70915,-3.20654 9.97412,-3.9012 10.1567,-4.63525 C10.3394,-5.3693 10.4307,-6.03711 10.4307,-6.63867 C10.4307,-7.38346 10.2158,-7.9707 9.78613,-8.40039 C9.28483,-8.21419 8.79427,-8.12109 8.31445,-8.12109 C7.1543,-8.12109 6.57422,-8.31803 6.57422,-8.71191 C6.57422,-9.22754 7.23665,-9.48535 8.56152,-9.48535 C9.03418,-9.48535 9.46745,-9.41016 9.86133,-9.25977 C10.1764,-9.50326 10.4629,-9.86133 10.7207,-10.334 C10.9785,-10.8066 11.1737,-11.3008 11.3062,-11.8164 C11.4386,-12.332 11.5049,-12.8154 11.5049,-13.2666 C11.5049,-13.7464 11.3778,-14.1457 11.1235,-14.4644 C10.8693,-14.783 10.4987,-14.9424 10.0117,-14.9424 C9.11654,-14.9424 8.28402,-14.6667 7.51416,-14.1152 C6.7443,-13.5638 6.0944,-12.8674 5.56445,-12.0259 C5.03451,-11.1844 4.65495,-10.3161 4.42578,-9.4209 L3.21191,-4.55469 C3.13314,-4.2181 3.08301,-3.84212 3.06152,-3.42676 C3.06152,-2.51009 3.3623,-1.75456 3.96387,-1.16016 C4.56543,-0.565755 5.32813,-0.268555 6.25195,-0.268555 M7.24023,-8.77637 C7.46224,-8.71908 7.82747,-8.69043 8.33594,-8.69043 C8.58659,-8.69043 8.83724,-8.7334 9.08789,-8.81934 C9.07357,-8.83366 9.04492,-8.84082 9.00195,-8.84082 C8.8444,-8.88379 8.67611,-8.90527 8.49707,-8.90527 C7.83105,-8.90527 7.41211,-8.8623 7.24023,-8.77637 "/>
</g>

<g fill="#212121" fill-opacity="1" stroke="none" transform="matrix(0.75,0,0,0.75,334.5,126.75)"
font-family=".AppleSystemUIFont" font-size="13" font-weight="400" font-style="normal" 
>
<path vector-effect="none" fill-rule="evenodd" d="M4.26465,4.28613 L5.25293,0.311523 C4.50814,0.311523 3.81348,0.137858 3.16895,-0.209473 C2.52441,-0.556803 2.007,-1.04199 1.6167,-1.66504 C1.2264,-2.28809 1.03125,-2.96484 1.03125,-3.69531 C1.03125,-4.49023 1.22819,-5.24935 1.62207,-5.97266 C2.01595,-6.69596 2.55485,-7.35303 3.23877,-7.94385 C3.92269,-8.53467 4.65853,-8.98942 5.44629,-9.30811 C6.23405,-9.62679 7.01465,-9.78613 7.78809,-9.78613 L9.10938,-15.1357 C9.13802,-15.2217 9.19531,-15.2646 9.28125,-15.2646 L9.5498,-15.2646 C9.6071,-15.2646 9.65365,-15.2396 9.68945,-15.1895 C9.72526,-15.1393 9.74316,-15.0928 9.74316,-15.0498 L8.42188,-9.78613 C8.97331,-9.78613 9.50684,-9.68587 10.0225,-9.48535 C10.5381,-9.28483 10.9946,-9.00374 11.3921,-8.64209 C11.7896,-8.28044 12.0993,-7.85433 12.3213,-7.36377 C12.5433,-6.87321 12.6543,-6.34863 12.6543,-5.79004 C12.6543,-4.99512 12.4574,-4.236 12.0635,-3.5127 C11.6696,-2.78939 11.1396,-2.1377 10.4736,-1.55762 C9.80762,-0.977539 9.06462,-0.520996 8.24463,-0.187988 C7.42464,0.14502 6.64225,0.311523 5.89746,0.311523 L4.8877,4.38281 C4.85905,4.46875 4.79818,4.51172 4.70508,4.51172 L4.44727,4.51172 C4.38997,4.51172 4.34521,4.48486 4.31299,4.43115 C4.28076,4.37744 4.26465,4.3291 4.26465,4.28613 M5.39258,-0.268555 L7.6377,-9.2168 C7.2653,-9.2168 6.875,-9.1416 6.4668,-8.99121 C6.05859,-8.84082 5.67367,-8.65104 5.31201,-8.42188 C4.95036,-8.19271 4.62272,-7.93132 4.3291,-7.6377 C3.97103,-7.27962 3.65592,-6.8571 3.38379,-6.37012 C3.11165,-5.88314 2.90576,-5.3693 2.76611,-4.82861 C2.62646,-4.28792 2.55664,-3.75618 2.55664,-3.2334 C2.55664,-2.68197 2.6748,-2.18066 2.91113,-1.72949 C3.14746,-1.27832 3.48047,-0.922038 3.91016,-0.660645 C4.33984,-0.399251 4.83398,-0.268555 5.39258,-0.268555 M6.04785,-0.268555 C6.59928,-0.268555 7.18652,-0.426107 7.80957,-0.741211 C8.43262,-1.05632 8.94466,-1.42513 9.3457,-1.84766 C9.89714,-2.39193 10.3322,-3.05973 10.6509,-3.85107 C10.9696,-4.64242 11.1289,-5.44271 11.1289,-6.25195 C11.1289,-6.79622 11.0107,-7.29574 10.7744,-7.75049 C10.5381,-8.20524 10.2051,-8.56331 9.77539,-8.82471 C9.3457,-9.0861 8.85156,-9.2168 8.29297,-9.2168 L6.04785,-0.268555"/>
</g>

<g fill="#212121" fill-opacity="1" stroke="none" transform="matrix(0.75,0,0,0.75,326.25,75.75)"
font-family=".AppleSystemUIFont" font-size="13" font-weight="400" font-style="normal" 
>
<path vector-effect="none" fill-rule="evenodd" d="M14.344,-15.268 L12.628,-15.268 L9.702,-7.744 C9.35,-6.842 7.7,-2.596 7.502,-1.584 L7.48,-1.584 C7.304,-2.464 6.358,-4.884 6.16,-5.412 L2.354,-15.268 L0.308,-15.268 L6.314,0 L8.338,0 L14.344,-15.268"/>
</g>

<g fill="#212121" fill-opacity="1" stroke="none" transform="matrix(0.75,0,0,0.75,337.5,84)"
font-family=".AppleSystemUIFont" font-size="13" font-weight="400" font-style="normal" 
>
<path vector-effect="none" fill-rule="evenodd" d="M8.226,-5.868 C8.226,-7.29 8.154,-8.964 7.398,-10.422 C6.66,-11.772 5.418,-12.204 4.5,-12.204 C3.438,-12.204 2.178,-11.718 1.44,-10.116 C0.846,-8.802 0.756,-7.308 0.756,-5.868 C0.756,-4.446 0.828,-3.132 1.368,-1.818 C2.088,-0.09 3.456,0.396 4.482,0.396 C5.796,0.396 6.93,-0.342 7.506,-1.584 C8.046,-2.754 8.226,-3.942 8.226,-5.868 M6.822,-6.084 C6.822,-4.896 6.822,-3.762 6.498,-2.628 C6.03,-0.99 5.076,-0.702 4.5,-0.702 C3.564,-0.702 2.826,-1.386 2.466,-2.682 C2.178,-3.708 2.16,-4.68 2.16,-6.084 C2.16,-7.218 2.16,-8.298 2.466,-9.288 C2.574,-9.63 3.024,-11.106 4.482,-11.106 C5.886,-11.106 6.354,-9.738 6.48,-9.414 C6.822,-8.406 6.822,-7.2 6.822,-6.084 "/>
</g>

<g fill="#212121" fill-opacity="1" stroke="none" transform="matrix(0.75,0,0,0.75,328.5,28.5)"
font-family=".AppleSystemUIFont" font-size="13" font-weight="400" font-style="normal" 
>
<path vector-effect="none" fill-rule="evenodd" d="M10.978,-4.158 C10.978,-5.588 10.296,-6.644 9.812,-7.172 C8.778,-8.272 8.052,-8.47 6.028,-8.976 C4.752,-9.284 4.4,-9.372 3.74,-9.944 C3.586,-10.076 2.97,-10.714 2.97,-11.682 C2.97,-12.98 4.158,-14.3 6.182,-14.3 C8.03,-14.3 9.086,-13.574 9.9,-12.892 L10.23,-14.652 C9.02,-15.378 7.81,-15.752 6.204,-15.752 C3.146,-15.752 1.232,-13.596 1.232,-11.418 C1.232,-10.472 1.54,-9.548 2.42,-8.624 C3.344,-7.634 4.312,-7.37 5.61,-7.062 C7.48,-6.6 7.7,-6.534 8.316,-5.984 C8.756,-5.61 9.24,-4.884 9.24,-3.938 C9.24,-2.486 8.03,-1.034 6.028,-1.034 C5.126,-1.034 3.146,-1.254 1.298,-2.816 L0.968,-1.034 C2.904,0.176 4.664,0.484 6.05,0.484 C8.954,0.484 10.978,-1.738 10.978,-4.158 "/>
</g>

<g fill="#212121" fill-opacity="1" stroke="none" transform="matrix(0.75,0,0,0.75,337.5,36.75)"
font-family=".AppleSystemUIFont" font-size="13" font-weight="400" font-style="normal" 
>
<path vector-effect="none" fill-rule="evenodd" d="M8.226,-5.868 C8.226,-7.29 8.154,-8.964 7.398,-10.422 C6.66,-11.772 5.418,-12.204 4.5,-12.204 C3.438,-12.204 2.178,-11.718 1.44,-10.116 C0.846,-8.802 0.756,-7.308 0.756,-5.868 C0.756,-4.446 0.828,-3.132 1.368,-1.818 C2.088,-0.09 3.456,0.396 4.482,0.396 C5.796,0.396 6.93,-0.342 7.506,-1.584 C8.046,-2.754 8.226,-3.942 8.226,-5.868 M6.822,-6.084 C6.822,-4.896 6.822,-3.762 6.498,-2.628 C6.03,-0.99 5.076,-0.702 4.5,-0.702 C3.564,-0.702 2.826,-1.386 2.466,-2.682 C2.178,-3.708 2.16,-4.68 2.16,-6.084 C2.16,-7.218 2.16,-8.298 2.466,-9.288 C2.574,-9.63 3.024,-11.106 4.482,-11.106 C5.886,-11.106 6.354,-9.738 6.48,-9.414 C6.822,-8.406 6.822,-7.2 6.822,-6.084 "/>
</g>

<g fill="#000000" fill-opacity="1" stroke="none" transform="matrix(0.75,0,0,0.75,0,0)"
font-family=".AppleSystemUIFont" font-size="13" font-weight="400" font-style="normal" 
>
<circle cx="646.737" cy="34" r="4"/>
<circle cx="598.898" cy="97.2" r="4"/>
<circle cx="601.578" cy="160.4" r="4"/>
<circle cx="607.188" cy="223.6" r="4"/>
<circle cx="553.334" cy="286.8" r="4"/>
<circle cx="553.673" cy="350" r="4"/>
</g>

<g fill="#212121" fill-opacity="0.701961" stroke="#212121" stroke-opacity="0.701961" stroke-dasharray="8,8" stroke-dashoffset="0" stroke-width="2" stroke-linecap="butt" stroke-linejoin="round" transform="matrix(0.75,0,0,0.75,0,0)"
font-family=".AppleSystemUIFont" font-size="13" font-weight="400" font-style="normal" 
>
<polyline fill="none" vector-effect="none" points="599,350 599,34 " />
</g>
</g>
</svg>
