<?xml version="1.0" encoding="UTF-8" standalone="no"?>
<svg width="105.833mm" height="105.833mm"
 viewBox="0 0 300 300"
 xmlns="http://www.w3.org/2000/svg" xmlns:xlink="http://www.w3.org/1999/xlink"  version="1.2" baseProfile="tiny">
<title>Qt SVG Document</title>
<desc>MATLAB, The MathWorks, Inc. Version 25.1.0.2973910 R2025a Update 1</desc>
<defs>
</defs>
<g fill="none" stroke="black" stroke-width="1" fill-rule="evenodd" stroke-linecap="square" stroke-linejoin="bevel" >

<g fill="#ffffff" fill-opacity="1" stroke="none" transform="matrix(0.75,0,0,0.75,0,0)"
font-family=".AppleSystemUIFont" font-size="13" font-weight="400" font-style="normal" 
>
<path vector-effect="none" fill-rule="evenodd" d="M0,0 L401,0 L401,401 L0,401 L0,0"/>
</g>

<g fill="#ffffff" fill-opacity="1" stroke="none" transform="matrix(7.5e-05,0,0,7.5e-05,0,0)"
font-family=".AppleSystemUIFont" font-size="13" font-weight="400" font-style="normal" 
>
<path vector-effect="none" fill-rule="evenodd" d="M770000,300000 L770000,3.26e+06 L3.62e+06,3.26e+06 L3.62e+06,300000 L770000,300000"/>
</g>

<g fill="#212121" fill-opacity="1" stroke="none" transform="matrix(0.75,0,0,0.75,115.125,294.188)"
font-family=".AppleSystemUIFont" font-size="13" font-weight="400" font-style="normal" 
>
<path vector-effect="none" fill-rule="evenodd" d="M12.88,-12.46 L12.88,-13.76 L0.72,-13.76 L0.72,-12.46 L3.4,-12.46 C3.64,-12.46 3.88,-12.48 4.12,-12.48 L5.92,-12.48 L5.92,0 L7.7,0 L7.7,-12.48 L9.48,-12.48 C9.72,-12.48 9.96,-12.46 10.2,-12.46 L12.88,-12.46 M16.7294,0 L16.7294,-8.88 L15.2294,-8.88 L15.2294,0 L16.7294,0 M16.8894,-11.32 L16.8894,-13.1 L15.1094,-13.1 L15.1094,-11.32 L16.8894,-11.32 M32.635,0 L32.635,-5.96 C32.635,-7.3 32.315,-9.1 29.895,-9.1 C28.695,-9.1 27.655,-8.54 26.915,-7.46 C26.395,-8.98 24.995,-9.1 24.355,-9.1 C22.915,-9.1 21.975,-8.28 21.435,-7.56 L21.435,-9 L19.995,-9 L19.995,0 L21.555,0 L21.555,-4.9 C21.555,-6.26 22.095,-7.88 23.575,-7.88 C25.435,-7.88 25.535,-6.58 25.535,-5.82 L25.535,0 L27.095,0 L27.095,-4.9 C27.095,-6.26 27.635,-7.88 29.115,-7.88 C30.975,-7.88 31.075,-6.58 31.075,-5.82 L31.075,0 L32.635,0 M42.53,-4.38 C42.53,-5.06 42.51,-6.56 41.73,-7.76 C40.91,-9 39.69,-9.22 38.97,-9.22 C36.75,-9.22 34.95,-7.1 34.95,-4.52 C34.95,-1.88 36.87,0.22 39.27,0.22 C40.53,0.22 41.67,-0.26 42.45,-0.82 L42.33,-2.12 C41.07,-1.08 39.75,-1 39.29,-1 C37.69,-1 36.41,-2.42 36.35,-4.38 L42.53,-4.38 M41.39,-5.48 L36.45,-5.48 C36.77,-7 37.83,-8 38.97,-8 C40.01,-8 41.13,-7.32 41.39,-5.48 M52.9012,0 L52.9012,-8.88 L51.4012,-8.88 L51.4012,0 L52.9012,0 M53.0613,-11.32 L53.0613,-13.1 L51.2813,-13.1 L51.2813,-11.32 L53.0613,-11.32 M63.2469,0 L63.2469,-5.96 C63.2469,-7.28 62.9469,-9.1 60.5069,-9.1 C58.7069,-9.1 57.7269,-7.74 57.6069,-7.58 L57.6069,-9 L56.1669,-9 L56.1669,0 L57.7269,0 L57.7269,-4.9 C57.7269,-6.22 58.2269,-7.88 59.7469,-7.88 C61.6669,-7.88 61.6869,-6.46 61.6869,-5.82 L61.6869,0 L63.2469,0 M84.8912,-8.88 L83.4313,-8.88 L82.1513,-4.64 C81.9313,-3.92 81.3312,-1.94 81.2313,-1.08 L81.2113,-1.08 C81.1312,-1.7 80.6312,-3.48 80.2913,-4.62 L78.9912,-8.88 L77.5913,-8.88 L76.4513,-5.12 C76.2313,-4.42 75.5512,-2.12 75.4712,-1.1 L75.4513,-1.1 C75.3512,-2.06 74.6912,-4.32 74.3713,-5.42 L73.3312,-8.88 L71.8113,-8.88 L74.5512,0 L76.1312,0 L77.3713,-4.12 C77.6513,-5.04 78.2113,-7.02 78.2712,-7.76 L78.2913,-7.76 C78.3312,-7.2 78.6713,-5.82 78.9313,-4.96 L80.3912,0 L82.1513,0 L84.8912,-8.88 M92.905,-4.38 C92.905,-5.06 92.885,-6.56 92.105,-7.76 C91.285,-9 90.065,-9.22 89.345,-9.22 C87.125,-9.22 85.325,-7.1 85.325,-4.52 C85.325,-1.88 87.245,0.22 89.645,0.22 C90.905,0.22 92.045,-0.26 92.825,-0.82 L92.705,-2.12 C91.445,-1.08 90.125,-1 89.665,-1 C88.065,-1 86.785,-2.42 86.725,-4.38 L92.905,-4.38 M91.765,-5.48 L86.825,-5.48 C87.145,-7 88.205,-8 89.345,-8 C90.385,-8 91.505,-7.32 91.765,-5.48 M96.62,0 L96.62,-13.88 L95.12,-13.88 L95.12,0 L96.62,0 M101.386,0 L101.386,-13.88 L99.8856,-13.88 L99.8856,0 L101.386,0 M106.631,-0.02 L106.631,-1.66 L104.971,-1.66 L104.971,0 L105.471,0 L104.971,2.5 L105.791,2.5 L106.631,-0.02 M123.934,0 L123.934,-5.96 C123.934,-7.28 123.634,-9.1 121.194,-9.1 C119.954,-9.1 118.994,-8.48 118.354,-7.66 L118.354,-13.88 L116.854,-13.88 L116.854,0 L118.414,0 L118.414,-4.9 C118.414,-6.22 118.914,-7.88 120.434,-7.88 C122.354,-7.88 122.374,-6.46 122.374,-5.82 L122.374,0 L123.934,0 M132.102,-7.76 L132.102,-9.1 C130.322,-9.08 129.222,-8.1 128.602,-7.18 L128.602,-9 L127.203,-9 L127.203,0 L128.702,0 L128.702,-4.28 C128.702,-6.28 130.143,-7.72 132.102,-7.76 "/>
</g>

<g fill="#212121" fill-opacity="1" stroke="#212121" stroke-opacity="1" stroke-width="0.8" stroke-linecap="square" stroke-linejoin="round" transform="matrix(0.75,0,0,0.75,0,0)"
font-family=".AppleSystemUIFont" font-size="13" font-weight="400" font-style="normal" 
>
<polyline fill="none" vector-effect="none" points="77,326 362,326 " />
<polyline fill="none" vector-effect="none" points="77,333.4 77,326 " />
<polyline fill="none" vector-effect="none" points="148.25,333.4 148.25,326 " />
<polyline fill="none" vector-effect="none" points="219.5,333.4 219.5,326 " />
<polyline fill="none" vector-effect="none" points="290.75,333.4 290.75,326 " />
<polyline fill="none" vector-effect="none" points="362,333.4 362,326 " />
</g>

<g fill="#212121" fill-opacity="1" stroke="none" transform="matrix(0.75,0,0,0.75,54.375,270.6)"
font-family=".AppleSystemUIFont" font-size="13" font-weight="400" font-style="normal" 
>
<path vector-effect="none" fill-rule="evenodd" d="M8.226,-5.868 C8.226,-7.29 8.154,-8.964 7.398,-10.422 C6.66,-11.772 5.418,-12.204 4.5,-12.204 C3.438,-12.204 2.178,-11.718 1.44,-10.116 C0.846,-8.802 0.756,-7.308 0.756,-5.868 C0.756,-4.446 0.828,-3.132 1.368,-1.818 C2.088,-0.09 3.456,0.396 4.482,0.396 C5.796,0.396 6.93,-0.342 7.506,-1.584 C8.046,-2.754 8.226,-3.942 8.226,-5.868 M6.822,-6.084 C6.822,-4.896 6.822,-3.762 6.498,-2.628 C6.03,-0.99 5.076,-0.702 4.5,-0.702 C3.564,-0.702 2.826,-1.386 2.466,-2.682 C2.178,-3.708 2.16,-4.68 2.16,-6.084 C2.16,-7.218 2.16,-8.298 2.466,-9.288 C2.574,-9.63 3.024,-11.106 4.482,-11.106 C5.886,-11.106 6.354,-9.738 6.48,-9.414 C6.822,-8.406 6.822,-7.2 6.822,-6.084 "/>
</g>

<g fill="#212121" fill-opacity="1" stroke="none" transform="matrix(0.75,0,0,0.75,107.813,270.6)"
font-family=".AppleSystemUIFont" font-size="13" font-weight="400" font-style="normal" 
>
<path vector-effect="none" fill-rule="evenodd" d="M8.082,0 L8.082,-1.278 L4.806,-1.278 C4.59,-1.278 4.374,-1.26 4.158,-1.26 L2.196,-1.26 C2.772,-1.764 4.14,-3.114 4.698,-3.636 C5.04,-3.96 5.958,-4.716 6.3,-5.04 C7.11,-5.85 8.082,-6.804 8.082,-8.334 C8.082,-10.404 6.624,-12.204 4.248,-12.204 C2.196,-12.204 1.188,-10.8 0.756,-9.252 C0.972,-8.946 1.062,-8.838 1.098,-8.784 C1.134,-8.748 1.314,-8.514 1.494,-8.262 C1.854,-9.648 2.358,-11.052 3.996,-11.052 C5.688,-11.052 6.606,-9.702 6.606,-8.298 C6.606,-6.768 5.58,-5.742 4.518,-4.662 L3.132,-3.384 L0.9,-1.152 L0.9,0 L8.082,0"/>
</g>

<g fill="#212121" fill-opacity="1" stroke="none" transform="matrix(0.75,0,0,0.75,161.25,270.6)"
font-family=".AppleSystemUIFont" font-size="13" font-weight="400" font-style="normal" 
>
<path vector-effect="none" fill-rule="evenodd" d="M8.478,-3.078 L8.478,-4.176 L6.696,-4.176 L6.696,-11.808 L5.058,-11.808 L0.504,-4.176 L0.504,-3.078 L5.274,-3.078 L5.274,0 L6.696,0 L6.696,-3.078 L8.478,-3.078 M5.382,-4.176 L1.908,-4.176 C2.844,-5.724 5.364,-9.99 5.382,-11.016 L5.382,-4.176"/>
</g>

<g fill="#212121" fill-opacity="1" stroke="none" transform="matrix(0.75,0,0,0.75,214.688,270.6)"
font-family=".AppleSystemUIFont" font-size="13" font-weight="400" font-style="normal" 
>
<path vector-effect="none" fill-rule="evenodd" d="M8.226,-3.996 C8.226,-6.3 7.038,-8.316 5.31,-8.316 C4.734,-8.316 3.366,-8.172 2.268,-6.822 C2.502,-9.72 3.924,-11.16 5.58,-11.16 C6.264,-11.16 6.84,-11.034 7.47,-10.782 L7.47,-11.844 C6.552,-12.204 5.814,-12.204 5.562,-12.204 C3.024,-12.204 0.756,-9.666 0.756,-5.796 C0.756,-0.702 2.988,0.396 4.518,0.396 C5.598,0.396 6.372,-0.018 7.074,-0.828 C7.884,-1.746 8.226,-2.574 8.226,-3.996 M6.75,-3.996 C6.75,-3.384 6.75,-2.556 6.318,-1.818 C6.012,-1.314 5.544,-0.702 4.518,-0.702 C2.61,-0.702 2.34,-3.348 2.286,-3.942 C2.286,-4.194 2.286,-4.23 2.304,-4.446 C2.304,-5.778 3.114,-7.218 4.608,-7.218 C5.472,-7.218 5.976,-6.768 6.336,-6.102 C6.714,-5.436 6.75,-4.806 6.75,-3.996 "/>
</g>

<g fill="#212121" fill-opacity="1" stroke="none" transform="matrix(0.75,0,0,0.75,268.125,270.6)"
font-family=".AppleSystemUIFont" font-size="13" font-weight="400" font-style="normal" 
>
<path vector-effect="none" fill-rule="evenodd" d="M8.226,-3.24 C8.226,-4.878 6.966,-5.976 5.76,-6.39 C7.362,-6.912 7.974,-8.1 7.974,-9.054 C7.974,-10.746 6.444,-12.204 4.5,-12.204 C2.484,-12.204 1.008,-10.71 1.008,-9.054 C1.008,-8.1 1.62,-6.912 3.222,-6.39 C1.926,-5.94 0.756,-4.806 0.756,-3.24 C0.756,-1.278 2.412,0.396 4.482,0.396 C6.624,0.396 8.226,-1.332 8.226,-3.24 M6.714,-9.054 C6.714,-7.758 5.796,-6.93 4.5,-6.93 C3.114,-6.93 2.268,-7.812 2.268,-9.054 C2.268,-10.296 3.15,-11.16 4.482,-11.16 C5.904,-11.16 6.714,-10.224 6.714,-9.054 M6.768,-3.258 C6.768,-1.512 5.652,-0.702 4.5,-0.702 C3.258,-0.702 2.214,-1.566 2.214,-3.258 C2.214,-5.148 3.51,-5.832 4.482,-5.832 C5.526,-5.832 6.768,-5.112 6.768,-3.258 "/>
</g>

<g fill="#212121" fill-opacity="1" stroke="none" transform="matrix(0,-0.75,0.75,0,18.5625,174.375)"
font-family=".AppleSystemUIFont" font-size="13" font-weight="400" font-style="normal" 
>
<path vector-effect="none" fill-rule="evenodd" d="M11.64,-9.84 C11.64,-11.98 9.66,-13.88 6.9,-13.88 L1.92,-13.88 L1.92,0 L3.7,0 L3.7,-5.78 L7.04,-5.78 C9.52,-5.78 11.64,-7.6 11.64,-9.84 M10.02,-9.84 C10.02,-8.26 8.76,-6.94 6.46,-6.94 L3.64,-6.94 L3.64,-12.76 L6.46,-12.76 C8.66,-12.76 10.02,-11.54 10.02,-9.84 M23.2856,-12.52 L23.2856,-13.82 L14.6456,-13.82 L14.6456,0 L16.4256,0 L16.4256,-6.3 L22.4656,-6.3 L22.4656,-7.52 L16.4256,-7.52 L16.4256,-12.54 L19.0456,-12.54 C19.2856,-12.54 19.5256,-12.52 19.7656,-12.52 L23.2856,-12.52 M36.0006,-4.66 L36.0006,-13.88 L34.4406,-13.88 L34.4406,-4.64 C34.4406,-2 32.7606,-0.68 31.0806,-0.68 C29.4406,-0.68 27.8006,-1.94 27.8006,-4.64 L27.8006,-13.88 L26.0206,-13.88 L26.0206,-4.66 C26.0206,-1.74 28.3606,0.44 31.0606,0.44 C33.7406,0.44 36.0006,-1.76 36.0006,-4.66 M54.1469,-4.46 C54.1469,-6.86 52.8869,-9.1 50.9669,-9.1 C49.7669,-9.1 48.6069,-8.68 47.6869,-7.9 L47.6869,-8.88 L46.1869,-8.88 L46.1869,3.88 L47.7469,3.88 L47.7469,-0.92 C48.3669,-0.34 49.2469,0.22 50.4469,0.22 C52.3869,0.22 54.1469,-1.74 54.1469,-4.46 M52.5869,-4.46 C52.5869,-2.4 51.1669,-1 49.6669,-1 C48.8869,-1 48.3469,-1.4 47.9469,-1.94 C47.7469,-2.24 47.7469,-2.28 47.7469,-2.64 L47.7469,-6.66 C48.2269,-7.36 49.0069,-7.82 49.8669,-7.82 C51.3869,-7.82 52.5869,-6.3 52.5869,-4.46 M63.7175,-4.38 C63.7175,-5.06 63.6975,-6.56 62.9175,-7.76 C62.0975,-9 60.8775,-9.22 60.1575,-9.22 C57.9375,-9.22 56.1375,-7.1 56.1375,-4.52 C56.1375,-1.88 58.0575,0.22 60.4575,0.22 C61.7175,0.22 62.8575,-0.26 63.6375,-0.82 L63.5175,-2.12 C62.2575,-1.08 60.9375,-1 60.4775,-1 C58.8775,-1 57.5975,-2.42 57.5375,-4.38 L63.7175,-4.38 M62.5775,-5.48 L57.6375,-5.48 C57.9575,-7 59.0175,-8 60.1575,-8 C61.1975,-8 62.3175,-7.32 62.5775,-5.48 M70.8525,-7.76 L70.8525,-9.1 C69.0725,-9.08 67.9725,-8.1 67.3525,-7.18 L67.3525,-9 L65.9525,-9 L65.9525,0 L67.4525,0 L67.4525,-4.28 C67.4525,-6.28 68.8925,-7.72 70.8525,-7.76 M91.1569,-8.88 L89.6969,-8.88 L88.4169,-4.64 C88.1969,-3.92 87.5969,-1.94 87.4969,-1.08 L87.4769,-1.08 C87.3969,-1.7 86.8969,-3.48 86.5569,-4.62 L85.2569,-8.88 L83.8569,-8.88 L82.7169,-5.12 C82.4969,-4.42 81.8169,-2.12 81.7369,-1.1 L81.7169,-1.1 C81.6169,-2.06 80.9569,-4.32 80.6369,-5.42 L79.5969,-8.88 L78.0769,-8.88 L80.8169,0 L82.3969,0 L83.6369,-4.12 C83.9169,-5.04 84.4769,-7.02 84.5369,-7.76 L84.5569,-7.76 C84.5969,-7.2 84.9369,-5.82 85.1969,-4.96 L86.6569,0 L88.4169,0 L91.1569,-8.88 M99.1706,-4.38 C99.1706,-5.06 99.1506,-6.56 98.3706,-7.76 C97.5506,-9 96.3306,-9.22 95.6106,-9.22 C93.3906,-9.22 91.5906,-7.1 91.5906,-4.52 C91.5906,-1.88 93.5106,0.22 95.9106,0.22 C97.1706,0.22 98.3106,-0.26 99.0906,-0.82 L98.9706,-2.12 C97.7106,-1.08 96.3906,-1 95.9306,-1 C94.3306,-1 93.0506,-2.42 92.9906,-4.38 L99.1706,-4.38 M98.0306,-5.48 L93.0906,-5.48 C93.4106,-7 94.4706,-8 95.6106,-8 C96.6506,-8 97.7706,-7.32 98.0306,-5.48 M102.886,0 L102.886,-13.88 L101.386,-13.88 L101.386,0 L102.886,0 M107.651,0 L107.651,-13.88 L106.151,-13.88 L106.151,0 L107.651,0"/>
</g>

<g fill="#212121" fill-opacity="1" stroke="#212121" stroke-opacity="1" stroke-width="0.8" stroke-linecap="square" stroke-linejoin="round" transform="matrix(0.75,0,0,0.75,0,0)"
font-family=".AppleSystemUIFont" font-size="13" font-weight="400" font-style="normal" 
>
<polyline fill="none" vector-effect="none" points="77,326 77,30 " />
<polyline fill="none" vector-effect="none" points="69.6,326 77,326 " />
<polyline fill="none" vector-effect="none" points="69.6,227.333 77,227.333 " />
<polyline fill="none" vector-effect="none" points="69.6,128.667 77,128.667 " />
<polyline fill="none" vector-effect="none" points="69.6,30 77,30 " />
</g>

<g fill="#212121" fill-opacity="1" stroke="none" transform="matrix(0.75,0,0,0.75,33.9,250.125)"
font-family=".AppleSystemUIFont" font-size="13" font-weight="400" font-style="normal" 
>
<path vector-effect="none" fill-rule="evenodd" d="M8.478,-3.078 L8.478,-4.176 L6.696,-4.176 L6.696,-11.808 L5.058,-11.808 L0.504,-4.176 L0.504,-3.078 L5.274,-3.078 L5.274,0 L6.696,0 L6.696,-3.078 L8.478,-3.078 M5.382,-4.176 L1.908,-4.176 C2.844,-5.724 5.364,-9.99 5.382,-11.016 L5.382,-4.176 M17.226,-5.868 C17.226,-7.29 17.154,-8.964 16.398,-10.422 C15.66,-11.772 14.418,-12.204 13.5,-12.204 C12.438,-12.204 11.178,-11.718 10.44,-10.116 C9.846,-8.802 9.756,-7.308 9.756,-5.868 C9.756,-4.446 9.828,-3.132 10.368,-1.818 C11.088,-0.09 12.456,0.396 13.482,0.396 C14.796,0.396 15.93,-0.342 16.506,-1.584 C17.046,-2.754 17.226,-3.942 17.226,-5.868 M15.822,-6.084 C15.822,-4.896 15.822,-3.762 15.498,-2.628 C15.03,-0.99 14.076,-0.702 13.5,-0.702 C12.564,-0.702 11.826,-1.386 11.466,-2.682 C11.178,-3.708 11.16,-4.68 11.16,-6.084 C11.16,-7.218 11.16,-8.298 11.466,-9.288 C11.574,-9.63 12.024,-11.106 13.482,-11.106 C14.886,-11.106 15.354,-9.738 15.48,-9.414 C15.822,-8.406 15.822,-7.2 15.822,-6.084 "/>
</g>

<g fill="#212121" fill-opacity="1" stroke="none" transform="matrix(0.75,0,0,0.75,33.9,176.125)"
font-family=".AppleSystemUIFont" font-size="13" font-weight="400" font-style="normal" 
>
<path vector-effect="none" fill-rule="evenodd" d="M8.226,-3.996 C8.226,-6.3 7.038,-8.316 5.31,-8.316 C4.734,-8.316 3.366,-8.172 2.268,-6.822 C2.502,-9.72 3.924,-11.16 5.58,-11.16 C6.264,-11.16 6.84,-11.034 7.47,-10.782 L7.47,-11.844 C6.552,-12.204 5.814,-12.204 5.562,-12.204 C3.024,-12.204 0.756,-9.666 0.756,-5.796 C0.756,-0.702 2.988,0.396 4.518,0.396 C5.598,0.396 6.372,-0.018 7.074,-0.828 C7.884,-1.746 8.226,-2.574 8.226,-3.996 M6.75,-3.996 C6.75,-3.384 6.75,-2.556 6.318,-1.818 C6.012,-1.314 5.544,-0.702 4.518,-0.702 C2.61,-0.702 2.34,-3.348 2.286,-3.942 C2.286,-4.194 2.286,-4.23 2.304,-4.446 C2.304,-5.778 3.114,-7.218 4.608,-7.218 C5.472,-7.218 5.976,-6.768 6.336,-6.102 C6.714,-5.436 6.75,-4.806 6.75,-3.996 M17.226,-5.868 C17.226,-7.29 17.154,-8.964 16.398,-10.422 C15.66,-11.772 14.418,-12.204 13.5,-12.204 C12.438,-12.204 11.178,-11.718 10.44,-10.116 C9.846,-8.802 9.756,-7.308 9.756,-5.868 C9.756,-4.446 9.828,-3.132 10.368,-1.818 C11.088,-0.09 12.456,0.396 13.482,0.396 C14.796,0.396 15.93,-0.342 16.506,-1.584 C17.046,-2.754 17.226,-3.942 17.226,-5.868 M15.822,-6.084 C15.822,-4.896 15.822,-3.762 15.498,-2.628 C15.03,-0.99 14.076,-0.702 13.5,-0.702 C12.564,-0.702 11.826,-1.386 11.466,-2.682 C11.178,-3.708 11.16,-4.68 11.16,-6.084 C11.16,-7.218 11.16,-8.298 11.466,-9.288 C11.574,-9.63 12.024,-11.106 13.482,-11.106 C14.886,-11.106 15.354,-9.738 15.48,-9.414 C15.822,-8.406 15.822,-7.2 15.822,-6.084 "/>
</g>

<g fill="#212121" fill-opacity="1" stroke="none" transform="matrix(0.75,0,0,0.75,33.9,102.125)"
font-family=".AppleSystemUIFont" font-size="13" font-weight="400" font-style="normal" 
>
<path vector-effect="none" fill-rule="evenodd" d="M8.226,-3.24 C8.226,-4.878 6.966,-5.976 5.76,-6.39 C7.362,-6.912 7.974,-8.1 7.974,-9.054 C7.974,-10.746 6.444,-12.204 4.5,-12.204 C2.484,-12.204 1.008,-10.71 1.008,-9.054 C1.008,-8.1 1.62,-6.912 3.222,-6.39 C1.926,-5.94 0.756,-4.806 0.756,-3.24 C0.756,-1.278 2.412,0.396 4.482,0.396 C6.624,0.396 8.226,-1.332 8.226,-3.24 M6.714,-9.054 C6.714,-7.758 5.796,-6.93 4.5,-6.93 C3.114,-6.93 2.268,-7.812 2.268,-9.054 C2.268,-10.296 3.15,-11.16 4.482,-11.16 C5.904,-11.16 6.714,-10.224 6.714,-9.054 M6.768,-3.258 C6.768,-1.512 5.652,-0.702 4.5,-0.702 C3.258,-0.702 2.214,-1.566 2.214,-3.258 C2.214,-5.148 3.51,-5.832 4.482,-5.832 C5.526,-5.832 6.768,-5.112 6.768,-3.258 M17.226,-5.868 C17.226,-7.29 17.154,-8.964 16.398,-10.422 C15.66,-11.772 14.418,-12.204 13.5,-12.204 C12.438,-12.204 11.178,-11.718 10.44,-10.116 C9.846,-8.802 9.756,-7.308 9.756,-5.868 C9.756,-4.446 9.828,-3.132 10.368,-1.818 C11.088,-0.09 12.456,0.396 13.482,0.396 C14.796,0.396 15.93,-0.342 16.506,-1.584 C17.046,-2.754 17.226,-3.942 17.226,-5.868 M15.822,-6.084 C15.822,-4.896 15.822,-3.762 15.498,-2.628 C15.03,-0.99 14.076,-0.702 13.5,-0.702 C12.564,-0.702 11.826,-1.386 11.466,-2.682 C11.178,-3.708 11.16,-4.68 11.16,-6.084 C11.16,-7.218 11.16,-8.298 11.466,-9.288 C11.574,-9.63 12.024,-11.106 13.482,-11.106 C14.886,-11.106 15.354,-9.738 15.48,-9.414 C15.822,-8.406 15.822,-7.2 15.822,-6.084 "/>
</g>

<g fill="#212121" fill-opacity="1" stroke="none" transform="matrix(0.75,0,0,0.75,27.15,28.125)"
font-family=".AppleSystemUIFont" font-size="13" font-weight="400" font-style="normal" 
>
<path vector-effect="none" fill-rule="evenodd" d="M7.632,0 L7.632,-1.044 L5.382,-1.044 L5.382,-12.204 L5.022,-12.204 C3.96,-11.106 2.466,-11.052 1.602,-11.016 L1.602,-9.972 C2.196,-9.99 3.06,-10.026 3.96,-10.404 L3.96,-1.044 L1.71,-1.044 L1.71,0 L7.632,0 M17.226,-5.868 C17.226,-7.29 17.154,-8.964 16.398,-10.422 C15.66,-11.772 14.418,-12.204 13.5,-12.204 C12.438,-12.204 11.178,-11.718 10.44,-10.116 C9.846,-8.802 9.756,-7.308 9.756,-5.868 C9.756,-4.446 9.828,-3.132 10.368,-1.818 C11.088,-0.09 12.456,0.396 13.482,0.396 C14.796,0.396 15.93,-0.342 16.506,-1.584 C17.046,-2.754 17.226,-3.942 17.226,-5.868 M15.822,-6.084 C15.822,-4.896 15.822,-3.762 15.498,-2.628 C15.03,-0.99 14.076,-0.702 13.5,-0.702 C12.564,-0.702 11.826,-1.386 11.466,-2.682 C11.178,-3.708 11.16,-4.68 11.16,-6.084 C11.16,-7.218 11.16,-8.298 11.466,-9.288 C11.574,-9.63 12.024,-11.106 13.482,-11.106 C14.886,-11.106 15.354,-9.738 15.48,-9.414 C15.822,-8.406 15.822,-7.2 15.822,-6.084 M26.226,-5.868 C26.226,-7.29 26.154,-8.964 25.398,-10.422 C24.66,-11.772 23.418,-12.204 22.5,-12.204 C21.438,-12.204 20.178,-11.718 19.44,-10.116 C18.846,-8.802 18.756,-7.308 18.756,-5.868 C18.756,-4.446 18.828,-3.132 19.368,-1.818 C20.088,-0.09 21.456,0.396 22.482,0.396 C23.796,0.396 24.93,-0.342 25.506,-1.584 C26.046,-2.754 26.226,-3.942 26.226,-5.868 M24.822,-6.084 C24.822,-4.896 24.822,-3.762 24.498,-2.628 C24.03,-0.99 23.076,-0.702 22.5,-0.702 C21.564,-0.702 20.826,-1.386 20.466,-2.682 C20.178,-3.708 20.16,-4.68 20.16,-6.084 C20.16,-7.218 20.16,-8.298 20.466,-9.288 C20.574,-9.63 21.024,-11.106 22.482,-11.106 C23.886,-11.106 24.354,-9.738 24.48,-9.414 C24.822,-8.406 24.822,-7.2 24.822,-6.084 "/>
</g>

<g fill="none" stroke="#1171be" stroke-opacity="1" stroke-width="2" stroke-linecap="butt" stroke-linejoin="round" transform="matrix(0.75,0,0,0.75,0,0)"
font-family=".AppleSystemUIFont" font-size="13" font-weight="400" font-style="normal" 
>
<polyline fill="none" vector-effect="none" points="77,126.63 80.5625,128.33 84.125,130.023 87.6875,131.709 91.25,133.387 94.8125,135.058 98.375,136.722 101.938,138.379 105.5,140.029 109.063,141.672 112.625,143.308 116.188,144.937 119.75,146.559 123.313,148.173 126.875,149.781 130.438,151.382 134,152.977 137.563,154.564 141.125,156.144 144.688,157.718 148.25,159.285 151.813,160.845 155.375,162.399 158.938,163.946 162.5,165.486 166.063,167.02 169.625,168.547 173.188,170.068 176.75,171.582 180.313,173.09 183.875,174.591 187.438,176.085 191,177.574 194.563,179.056 198.125,180.531 201.688,182 205.25,183.463 208.813,184.92 212.375,186.37 215.938,187.815 219.5,189.253 223.063,190.684 226.625,192.11 230.188,193.53 233.75,194.943 237.313,196.351 240.875,197.752 244.438,199.148 248,200.537 251.563,201.921 255.125,203.298 258.688,204.67 262.25,206.036 265.813,207.396 269.375,208.75 272.938,210.098 276.5,211.44 280.063,212.777 283.625,214.108 287.188,215.434 290.75,216.753 294.313,218.067 297.875,219.376 301.438,220.678 305,221.976 308.563,223.267 312.125,224.553 315.688,225.834 319.25,227.109 322.813,228.378 326.375,229.643 329.938,230.901 333.5,232.155 337.063,233.403 340.625,234.645 344.188,235.883 347.75,237.115 351.313,238.341 354.875,239.563 358.438,240.779 362,241.99 " />
</g>

<g fill="#000000" fill-opacity="1" stroke="none" transform="matrix(0.75,0,0,0.75,0,0)"
font-family=".AppleSystemUIFont" font-size="13" font-weight="400" font-style="normal" 
>
<circle cx="77" cy="105.644" r="4"/>
<circle cx="112.625" cy="137.711" r="4"/>
<circle cx="148.25" cy="182.111" r="4"/>
<circle cx="219.5" cy="189.511" r="4"/>
<circle cx="290.75" cy="222.4" r="4"/>
<circle cx="362" cy="230.622" r="4"/>
</g>

<g fill="#999999" fill-opacity="1" stroke="none" transform="matrix(0.75,0,0,0.75,0,0)"
font-family=".AppleSystemUIFont" font-size="13" font-weight="400" font-style="normal" 
>
<circle cx="77" cy="113.867" r="4"/>
<circle cx="112.625" cy="173.067" r="4"/>
<circle cx="148.25" cy="148.4" r="4"/>
<circle cx="219.5" cy="158.267" r="4"/>
<circle cx="290.75" cy="281.6" r="4"/>
<circle cx="362" cy="207.6" r="4"/>
<circle cx="77" cy="108.933" r="4"/>
<circle cx="112.625" cy="163.2" r="4"/>
<circle cx="148.25" cy="178" r="4"/>
<circle cx="219.5" cy="212.533" r="4"/>
<circle cx="290.75" cy="158.267" r="4"/>
<circle cx="362" cy="252" r="4"/>
<circle cx="77" cy="118.8" r="4"/>
<circle cx="112.625" cy="84.2667" r="4"/>
<circle cx="148.25" cy="163.2" r="4"/>
<circle cx="219.5" cy="173.067" r="4"/>
<circle cx="290.75" cy="227.333" r="4"/>
<circle cx="362" cy="217.467" r="4"/>
<circle cx="77" cy="34.9333" r="4"/>
<circle cx="112.625" cy="118.8" r="4"/>
<circle cx="148.25" cy="217.467" r="4"/>
<circle cx="219.5" cy="173.067" r="4"/>
<circle cx="290.75" cy="232.267" r="4"/>
<circle cx="362" cy="222.4" r="4"/>
<circle cx="77" cy="113.867" r="4"/>
<circle cx="112.625" cy="153.333" r="4"/>
<circle cx="148.25" cy="178" r="4"/>
<circle cx="219.5" cy="212.533" r="4"/>
<circle cx="290.75" cy="187.867" r="4"/>
<circle cx="362" cy="222.4" r="4"/>
<circle cx="77" cy="143.467" r="4"/>
<circle cx="112.625" cy="133.6" r="4"/>
<circle cx="148.25" cy="207.6" r="4"/>
<circle cx="219.5" cy="207.6" r="4"/>
<circle cx="290.75" cy="247.067" r="4"/>
<circle cx="362" cy="261.867" r="4"/>
</g>

<g fill="#000000" fill-opacity="1" stroke="none" transform="matrix(0.75,0,0,0.75,0,0)"
font-family=".AppleSystemUIFont" font-size="13" font-weight="400" font-style="normal" 
>
<circle cx="77" cy="105.644" r="4"/>
<circle cx="112.625" cy="137.711" r="4"/>
<circle cx="148.25" cy="182.111" r="4"/>
<circle cx="219.5" cy="189.511" r="4"/>
<circle cx="290.75" cy="222.4" r="4"/>
<circle cx="362" cy="230.622" r="4"/>
</g>

<g fill="#ffffff" fill-opacity="1" stroke="none" transform="matrix(7.5e-05,0,0,7.5e-05,0,0)"
font-family=".AppleSystemUIFont" font-size="13" font-weight="400" font-style="normal" 
>
<path vector-effect="none" fill-rule="evenodd" d="M1.53e+06,410000 L1.53e+06,1.1e+06 L3.89e+06,1.1e+06 L3.89e+06,410000 L1.53e+06,410000"/>
</g>

<g fill="#1171be" fill-opacity="1" stroke="#1171be" stroke-opacity="1" stroke-width="2" stroke-linecap="butt" stroke-linejoin="round" transform="matrix(0.75,0,0,0.75,0,0)"
font-family=".AppleSystemUIFont" font-size="13" font-weight="400" font-style="normal" 
>
<polyline fill="none" vector-effect="none" points="157,54.6628 197,54.6628 " />
</g>

<g fill="#000000" fill-opacity="1" stroke="none" transform="matrix(0.75,0,0,0.75,0,0)"
font-family=".AppleSystemUIFont" font-size="13" font-weight="400" font-style="normal" 
>
<circle cx="177" cy="76.9973" r="4"/>
</g>

<g fill="#999999" fill-opacity="1" stroke="none" transform="matrix(0.75,0,0,0.75,0,0)"
font-family=".AppleSystemUIFont" font-size="13" font-weight="400" font-style="normal" 
>
<circle cx="177" cy="97.8345" r="4"/>
</g>

<g fill="#212121" fill-opacity="1" stroke="none" transform="matrix(0.75,0,0,0.75,150,44.021)"
font-family=".AppleSystemUIFont" font-size="13" font-weight="400" font-style="normal" 
>
<path vector-effect="none" fill-rule="evenodd" d="M0.492188,0 L0.492188,-0.5625 C1.59115,-0.5625 2.14063,-0.731771 2.14063,-1.07031 L2.14063,-9.85938 C2.14063,-10.1979 1.59115,-10.3672 0.492188,-10.3672 L0.492188,-10.9297 L9.53906,-10.9297 L9.98438,-7.26563 L9.52344,-7.26563 C9.40885,-8.1875 9.2487,-8.85677 9.04297,-9.27344 C8.83724,-9.6901 8.50781,-9.97656 8.05469,-10.1328 C7.60156,-10.2891 6.92188,-10.3672 6.01563,-10.3672 L4.44531,-10.3672 C4.2526,-10.3672 4.10286,-10.3594 3.99609,-10.3438 C3.88932,-10.3281 3.80208,-10.2826 3.73438,-10.207 C3.66667,-10.1315 3.63281,-10.0156 3.63281,-9.85938 L3.63281,-5.95313 L4.8125,-5.95313 C5.35417,-5.95313 5.75911,-5.9987 6.02734,-6.08984 C6.29557,-6.18099 6.48047,-6.35547 6.58203,-6.61328 C6.68359,-6.87109 6.73438,-7.27344 6.73438,-7.82031 L7.20313,-7.82031 L7.20313,-3.52344 L6.73438,-3.52344 C6.73438,-4.0651 6.68359,-4.46615 6.58203,-4.72656 C6.48047,-4.98698 6.29557,-5.16276 6.02734,-5.25391 C5.75911,-5.34505 5.35417,-5.39063 4.8125,-5.39063 L3.63281,-5.39063 L3.63281,-1.07031 C3.63281,-0.841146 3.69792,-0.699219 3.82813,-0.644531 C3.95833,-0.589844 4.16406,-0.5625 4.44531,-0.5625 L6.14063,-0.5625 C6.88021,-0.5625 7.47786,-0.621094 7.93359,-0.738281 C8.38932,-0.855469 8.74349,-1.05078 8.99609,-1.32422 C9.2487,-1.59766 9.44401,-1.95182 9.58203,-2.38672 C9.72005,-2.82161 9.84896,-3.42448 9.96875,-4.19531 L10.4297,-4.19531 L9.75781,0 L0.492188,0"/>
</g>

<g fill="#212121" fill-opacity="1" stroke="none" transform="matrix(0.75,0,0,0.75,158.575,44.021)"
font-family=".AppleSystemUIFont" font-size="13" font-weight="400" font-style="normal" 
>
<path vector-effect="none" fill-rule="evenodd" d="M0.195313,0 L0.195313,-0.5625 C0.601563,-0.5625 0.984375,-0.641927 1.34375,-0.800781 C1.70313,-0.959635 2.00781,-1.19531 2.25781,-1.50781 L3.71094,-3.35938 L1.82031,-5.82031 C1.63281,-6.05469 1.42839,-6.19922 1.20703,-6.25391 C0.985677,-6.30859 0.674479,-6.33594 0.273438,-6.33594 L0.273438,-6.89844 L3.60156,-6.89844 L3.60156,-6.33594 C3.46094,-6.33594 3.32943,-6.30469 3.20703,-6.24219 C3.08464,-6.17969 3.02344,-6.08854 3.02344,-5.96875 C3.02344,-5.92708 3.03906,-5.8776 3.07031,-5.82031 L4.35156,-4.15625 L5.3125,-5.39063 C5.44271,-5.54688 5.50781,-5.70313 5.50781,-5.85938 C5.50781,-5.98958 5.46484,-6.10156 5.37891,-6.19531 C5.29297,-6.28906 5.17969,-6.33594 5.03906,-6.33594 L5.03906,-6.89844 L7.98438,-6.89844 L7.98438,-6.33594 C7.57292,-6.33594 7.1862,-6.25651 6.82422,-6.09766 C6.46224,-5.9388 6.15625,-5.70313 5.90625,-5.39063 L4.64063,-3.77344 L6.6875,-1.07031 C6.89063,-0.835938 7.10156,-0.692708 7.32031,-0.640625 C7.53906,-0.588542 7.85156,-0.5625 8.25781,-0.5625 L8.25781,0 L4.92969,0 L4.92969,-0.5625 C5.0599,-0.5625 5.1849,-0.59375 5.30469,-0.65625 C5.42448,-0.71875 5.48438,-0.809896 5.48438,-0.929688 C5.48438,-0.976563 5.46875,-1.02344 5.4375,-1.07031 L4,-2.97656 L2.85156,-1.50781 C2.73177,-1.3724 2.67188,-1.21615 2.67188,-1.03906 C2.67188,-0.908854 2.71615,-0.796875 2.80469,-0.703125 C2.89323,-0.609375 2.9974,-0.5625 3.11719,-0.5625 L3.11719,0 L0.195313,0"/>
</g>

<g fill="#212121" fill-opacity="1" stroke="none" transform="matrix(0.75,0,0,0.75,165.225,44.021)"
font-family=".AppleSystemUIFont" font-size="13" font-weight="400" font-style="normal" 
>
<path vector-effect="none" fill-rule="evenodd" d="M0.414063,3.10156 L0.414063,2.54688 C0.778646,2.54688 1.07813,2.51563 1.3125,2.45313 C1.54688,2.39063 1.66406,2.25 1.66406,2.03125 L1.66406,-5.67969 C1.66406,-5.97135 1.5599,-6.15365 1.35156,-6.22656 C1.14323,-6.29948 0.830729,-6.33594 0.414063,-6.33594 L0.414063,-6.89844 L2.78125,-7.07031 L2.78125,-6.07813 C3.07292,-6.40104 3.41276,-6.64714 3.80078,-6.81641 C4.1888,-6.98568 4.60156,-7.07031 5.03906,-7.07031 C5.66927,-7.07031 6.23698,-6.89974 6.74219,-6.55859 C7.2474,-6.21745 7.64193,-5.76953 7.92578,-5.21484 C8.20964,-4.66016 8.35156,-4.07292 8.35156,-3.45313 C8.35156,-2.80729 8.19401,-2.20573 7.87891,-1.64844 C7.5638,-1.09115 7.13411,-0.647135 6.58984,-0.316406 C6.04557,0.0143229 5.44792,0.179688 4.79688,0.179688 C4.02083,0.179688 3.36458,-0.135417 2.82813,-0.765625 L2.82813,2.03125 C2.82813,2.25 2.94661,2.39063 3.18359,2.45313 C3.42057,2.51563 3.71875,2.54688 4.07813,2.54688 L4.07813,3.10156 L0.414063,3.10156 M2.82813,-1.55469 C3.01563,-1.17448 3.27604,-0.860677 3.60938,-0.613281 C3.94271,-0.365885 4.30729,-0.242188 4.70313,-0.242188 C5.07292,-0.242188 5.39974,-0.341146 5.68359,-0.539063 C5.96745,-0.736979 6.20573,-1.0026 6.39844,-1.33594 C6.59115,-1.66927 6.73307,-2.01953 6.82422,-2.38672 C6.91536,-2.75391 6.96094,-3.10938 6.96094,-3.45313 C6.96094,-3.88021 6.88411,-4.34245 6.73047,-4.83984 C6.57682,-5.33724 6.34245,-5.75651 6.02734,-6.09766 C5.71224,-6.4388 5.33073,-6.60938 4.88281,-6.60938 C4.45052,-6.60938 4.05339,-6.4987 3.69141,-6.27734 C3.32943,-6.05599 3.04167,-5.75521 2.82813,-5.375 L2.82813,-1.55469"/>
</g>

<g fill="#212121" fill-opacity="1" stroke="none" transform="matrix(0.75,0,0,0.75,172.575,44.021)"
font-family=".AppleSystemUIFont" font-size="13" font-weight="400" font-style="normal" 
>
<path vector-effect="none" fill-rule="evenodd" d="M4,0.179688 C3.35938,0.179688 2.76563,0.0169271 2.21875,-0.308594 C1.67188,-0.634115 1.23958,-1.07031 0.921875,-1.61719 C0.604167,-2.16406 0.445313,-2.76042 0.445313,-3.40625 C0.445313,-3.89583 0.532552,-4.36719 0.707031,-4.82031 C0.88151,-5.27344 1.13151,-5.67839 1.45703,-6.03516 C1.78255,-6.39193 2.16146,-6.67057 2.59375,-6.87109 C3.02604,-7.07161 3.49479,-7.17188 4,-7.17188 C4.65625,-7.17188 5.25391,-6.9987 5.79297,-6.65234 C6.33203,-6.30599 6.75781,-5.84245 7.07031,-5.26172 C7.38281,-4.68099 7.53906,-4.0625 7.53906,-3.40625 C7.53906,-2.76563 7.38021,-2.17057 7.0625,-1.62109 C6.74479,-1.07161 6.3138,-0.634115 5.76953,-0.308594 C5.22526,0.0169271 4.63542,0.179688 4,0.179688 M4,-0.289063 C4.85417,-0.289063 5.42448,-0.598958 5.71094,-1.21875 C5.9974,-1.83854 6.14063,-2.6276 6.14063,-3.58594 C6.14063,-4.1224 6.11198,-4.56641 6.05469,-4.91797 C5.9974,-5.26953 5.8724,-5.58854 5.67969,-5.875 C5.5599,-6.05208 5.40755,-6.20703 5.22266,-6.33984 C5.03776,-6.47266 4.84245,-6.57422 4.63672,-6.64453 C4.43099,-6.71484 4.21875,-6.75 4,-6.75 C3.66667,-6.75 3.35026,-6.67448 3.05078,-6.52344 C2.7513,-6.3724 2.5026,-6.15625 2.30469,-5.875 C2.10677,-5.57292 1.98047,-5.24089 1.92578,-4.87891 C1.87109,-4.51693 1.84375,-4.08594 1.84375,-3.58594 C1.84375,-2.98698 1.89583,-2.44922 2,-1.97266 C2.10417,-1.49609 2.3138,-1.09635 2.62891,-0.773438 C2.94401,-0.450521 3.40104,-0.289063 4,-0.289063 "/>
</g>

<g fill="#212121" fill-opacity="1" stroke="none" transform="matrix(0.75,0,0,0.75,178.875,44.021)"
font-family=".AppleSystemUIFont" font-size="13" font-weight="400" font-style="normal" 
>
<path vector-effect="none" fill-rule="evenodd" d="M0.476563,0 L0.476563,-0.5625 C0.841146,-0.5625 1.14063,-0.591146 1.375,-0.648438 C1.60938,-0.705729 1.72656,-0.846354 1.72656,-1.07031 L1.72656,-5.4375 C1.72656,-5.72396 1.68359,-5.93099 1.59766,-6.05859 C1.51172,-6.1862 1.38802,-6.26432 1.22656,-6.29297 C1.0651,-6.32161 0.815104,-6.33594 0.476563,-6.33594 L0.476563,-6.89844 L2.79688,-7.07031 L2.79688,-5.50781 C3.01042,-5.96615 3.32682,-6.34115 3.74609,-6.63281 C4.16536,-6.92448 4.6224,-7.07031 5.11719,-7.07031 C5.85677,-7.07031 6.41276,-6.89323 6.78516,-6.53906 C7.15755,-6.1849 7.34375,-5.64323 7.34375,-4.91406 L7.34375,-1.07031 C7.34375,-0.846354 7.46094,-0.705729 7.69531,-0.648438 C7.92969,-0.591146 8.22917,-0.5625 8.59375,-0.5625 L8.59375,0 L4.92969,0 L4.92969,-0.5625 C5.29427,-0.5625 5.59375,-0.591146 5.82813,-0.648438 C6.0625,-0.705729 6.17969,-0.846354 6.17969,-1.07031 L6.17969,-4.86719 C6.17969,-5.38802 6.10417,-5.81641 5.95313,-6.15234 C5.80208,-6.48828 5.49219,-6.65625 5.02344,-6.65625 C4.40365,-6.65625 3.89453,-6.40885 3.49609,-5.91406 C3.09766,-5.41927 2.89844,-4.85677 2.89844,-4.22656 L2.89844,-1.07031 C2.89844,-0.846354 3.01563,-0.705729 3.25,-0.648438 C3.48438,-0.591146 3.78125,-0.5625 4.14063,-0.5625 L4.14063,0 L0.476563,0"/>
</g>

<g fill="#212121" fill-opacity="1" stroke="none" transform="matrix(0.75,0,0,0.75,185.875,44.021)"
font-family=".AppleSystemUIFont" font-size="13" font-weight="400" font-style="normal" 
>
<path vector-effect="none" fill-rule="evenodd" d="M3.98438,0.179688 C3.33333,0.179688 2.73568,0.00911458 2.19141,-0.332031 C1.64714,-0.673177 1.22005,-1.12891 0.910156,-1.69922 C0.60026,-2.26953 0.445313,-2.8724 0.445313,-3.50781 C0.445313,-4.13281 0.58724,-4.72656 0.871094,-5.28906 C1.15495,-5.85156 1.55078,-6.30599 2.05859,-6.65234 C2.56641,-6.9987 3.13281,-7.17188 3.75781,-7.17188 C4.2474,-7.17188 4.67318,-7.08984 5.03516,-6.92578 C5.39714,-6.76172 5.69531,-6.53385 5.92969,-6.24219 C6.16406,-5.95052 6.34115,-5.60677 6.46094,-5.21094 C6.58073,-4.8151 6.64063,-4.38021 6.64063,-3.90625 C6.64063,-3.76563 6.58594,-3.69531 6.47656,-3.69531 L1.84375,-3.69531 L1.84375,-3.52344 C1.84375,-2.63802 2.02214,-1.8776 2.37891,-1.24219 C2.73568,-0.606771 3.31771,-0.289063 4.125,-0.289063 C4.45313,-0.289063 4.75651,-0.361979 5.03516,-0.507813 C5.3138,-0.653646 5.55599,-0.856771 5.76172,-1.11719 C5.96745,-1.3776 6.10677,-1.65625 6.17969,-1.95313 C6.1901,-1.98958 6.20964,-2.02214 6.23828,-2.05078 C6.26693,-2.07943 6.29948,-2.09375 6.33594,-2.09375 L6.47656,-2.09375 C6.58594,-2.09375 6.64063,-2.02604 6.64063,-1.89063 C6.48958,-1.28646 6.16406,-0.790365 5.66406,-0.402344 C5.16406,-0.0143229 4.60417,0.179688 3.98438,0.179688 M1.85938,-4.09375 L5.50781,-4.09375 C5.50781,-4.49479 5.45182,-4.90104 5.33984,-5.3125 C5.22786,-5.72396 5.04167,-6.06641 4.78125,-6.33984 C4.52083,-6.61328 4.17969,-6.75 3.75781,-6.75 C3.15365,-6.75 2.6862,-6.46745 2.35547,-5.90234 C2.02474,-5.33724 1.85938,-4.73438 1.85938,-4.09375 "/>
</g>

<g fill="#212121" fill-opacity="1" stroke="none" transform="matrix(0.75,0,0,0.75,191.475,44.021)"
font-family=".AppleSystemUIFont" font-size="13" font-weight="400" font-style="normal" 
>
<path vector-effect="none" fill-rule="evenodd" d="M0.476563,0 L0.476563,-0.5625 C0.841146,-0.5625 1.14063,-0.591146 1.375,-0.648438 C1.60938,-0.705729 1.72656,-0.846354 1.72656,-1.07031 L1.72656,-5.4375 C1.72656,-5.72396 1.68359,-5.93099 1.59766,-6.05859 C1.51172,-6.1862 1.38802,-6.26432 1.22656,-6.29297 C1.0651,-6.32161 0.815104,-6.33594 0.476563,-6.33594 L0.476563,-6.89844 L2.79688,-7.07031 L2.79688,-5.50781 C3.01042,-5.96615 3.32682,-6.34115 3.74609,-6.63281 C4.16536,-6.92448 4.6224,-7.07031 5.11719,-7.07031 C5.85677,-7.07031 6.41276,-6.89323 6.78516,-6.53906 C7.15755,-6.1849 7.34375,-5.64323 7.34375,-4.91406 L7.34375,-1.07031 C7.34375,-0.846354 7.46094,-0.705729 7.69531,-0.648438 C7.92969,-0.591146 8.22917,-0.5625 8.59375,-0.5625 L8.59375,0 L4.92969,0 L4.92969,-0.5625 C5.29427,-0.5625 5.59375,-0.591146 5.82813,-0.648438 C6.0625,-0.705729 6.17969,-0.846354 6.17969,-1.07031 L6.17969,-4.86719 C6.17969,-5.38802 6.10417,-5.81641 5.95313,-6.15234 C5.80208,-6.48828 5.49219,-6.65625 5.02344,-6.65625 C4.40365,-6.65625 3.89453,-6.40885 3.49609,-5.91406 C3.09766,-5.41927 2.89844,-4.85677 2.89844,-4.22656 L2.89844,-1.07031 C2.89844,-0.846354 3.01563,-0.705729 3.25,-0.648438 C3.48438,-0.591146 3.78125,-0.5625 4.14063,-0.5625 L4.14063,0 L0.476563,0"/>
</g>

<g fill="#212121" fill-opacity="1" stroke="none" transform="matrix(0.75,0,0,0.75,198.125,44.021)"
font-family=".AppleSystemUIFont" font-size="13" font-weight="400" font-style="normal" 
>
<path vector-effect="none" fill-rule="evenodd" d="M1.63281,-1.92188 L1.63281,-6.33594 L0.304688,-6.33594 L0.304688,-6.75 C1.0026,-6.75 1.51563,-7.07552 1.84375,-7.72656 C2.17188,-8.3776 2.33594,-9.08333 2.33594,-9.84375 L2.79688,-9.84375 L2.79688,-6.89844 L5.05469,-6.89844 L5.05469,-6.33594 L2.79688,-6.33594 L2.79688,-1.95313 C2.79688,-1.51042 2.87109,-1.1224 3.01953,-0.789063 C3.16797,-0.455729 3.4349,-0.289063 3.82031,-0.289063 C4.1849,-0.289063 4.44792,-0.464844 4.60938,-0.816406 C4.77083,-1.16797 4.85156,-1.54688 4.85156,-1.95313 L4.85156,-2.89844 L5.3125,-2.89844 L5.3125,-1.92188 C5.3125,-1.58854 5.2513,-1.25911 5.12891,-0.933594 C5.00651,-0.608073 4.82552,-0.341146 4.58594,-0.132813 C4.34635,0.0755208 4.05469,0.179688 3.71094,0.179688 C3.07031,0.179688 2.5638,-0.0117188 2.19141,-0.394531 C1.81901,-0.777344 1.63281,-1.28646 1.63281,-1.92188 "/>
</g>

<g fill="#212121" fill-opacity="1" stroke="none" transform="matrix(0.75,0,0,0.75,203.025,44.021)"
font-family=".AppleSystemUIFont" font-size="13" font-weight="400" font-style="normal" 
>
<path vector-effect="none" fill-rule="evenodd" d="M0.492188,0 L0.492188,-0.5625 C0.856771,-0.5625 1.15625,-0.591146 1.39063,-0.648438 C1.625,-0.705729 1.74219,-0.846354 1.74219,-1.07031 L1.74219,-5.4375 C1.74219,-5.84896 1.66276,-6.10156 1.50391,-6.19531 C1.34505,-6.28906 1.03125,-6.33594 0.5625,-6.33594 L0.5625,-6.89844 L2.86719,-7.07031 L2.86719,-1.07031 C2.86719,-0.846354 2.96875,-0.705729 3.17188,-0.648438 C3.375,-0.591146 3.64583,-0.5625 3.98438,-0.5625 L3.98438,0 L0.492188,0 M1.17188,-9.82031 C1.17188,-10.0547 1.26042,-10.2604 1.4375,-10.4375 C1.61458,-10.6146 1.81771,-10.7031 2.04688,-10.7031 C2.19792,-10.7031 2.34375,-10.6641 2.48438,-10.5859 C2.625,-10.5078 2.73438,-10.3984 2.8125,-10.2578 C2.89063,-10.1172 2.92969,-9.97135 2.92969,-9.82031 C2.92969,-9.59115 2.84115,-9.38802 2.66406,-9.21094 C2.48698,-9.03385 2.28125,-8.94531 2.04688,-8.94531 C1.81771,-8.94531 1.61458,-9.03385 1.4375,-9.21094 C1.26042,-9.38802 1.17188,-9.59115 1.17188,-9.82031 "/>
</g>

<g fill="#212121" fill-opacity="1" stroke="none" transform="matrix(0.75,0,0,0.75,206.525,44.021)"
font-family=".AppleSystemUIFont" font-size="13" font-weight="400" font-style="normal" 
>
<path vector-effect="none" fill-rule="evenodd" d="M0.640625,-1.57031 C0.640625,-2.20573 0.890625,-2.72266 1.39063,-3.12109 C1.89063,-3.51953 2.49089,-3.80078 3.19141,-3.96484 C3.89193,-4.12891 4.55729,-4.21094 5.1875,-4.21094 L5.1875,-4.86719 C5.1875,-5.17448 5.11979,-5.47266 4.98438,-5.76172 C4.84896,-6.05078 4.65365,-6.28776 4.39844,-6.47266 C4.14323,-6.65755 3.86198,-6.75 3.55469,-6.75 C2.84635,-6.75 2.30729,-6.59115 1.9375,-6.27344 C2.14063,-6.27344 2.30859,-6.19661 2.44141,-6.04297 C2.57422,-5.88932 2.64063,-5.71094 2.64063,-5.50781 C2.64063,-5.29427 2.5651,-5.11198 2.41406,-4.96094 C2.26302,-4.8099 2.08333,-4.73438 1.875,-4.73438 C1.66146,-4.73438 1.47917,-4.8099 1.32813,-4.96094 C1.17708,-5.11198 1.10156,-5.29427 1.10156,-5.50781 C1.10156,-6.07031 1.35677,-6.48828 1.86719,-6.76172 C2.3776,-7.03516 2.9401,-7.17188 3.55469,-7.17188 C3.98698,-7.17188 4.42188,-7.07943 4.85938,-6.89453 C5.29688,-6.70964 5.65495,-6.44531 5.93359,-6.10156 C6.21224,-5.75781 6.35156,-5.35677 6.35156,-4.89844 L6.35156,-1.29688 C6.35156,-1.08854 6.39583,-0.897135 6.48438,-0.722656 C6.57292,-0.548177 6.71094,-0.460938 6.89844,-0.460938 C7.07552,-0.460938 7.20703,-0.549479 7.29297,-0.726563 C7.37891,-0.903646 7.42188,-1.09375 7.42188,-1.29688 L7.42188,-2.32031 L7.89063,-2.32031 L7.89063,-1.29688 C7.89063,-1.05729 7.82813,-0.829427 7.70313,-0.613281 C7.57813,-0.397135 7.41016,-0.22526 7.19922,-0.0976563 C6.98828,0.0299479 6.76042,0.09375 6.51563,0.09375 C6.20313,0.09375 5.93359,-0.0273438 5.70703,-0.269531 C5.48047,-0.511719 5.35417,-0.799479 5.32813,-1.13281 C5.13021,-0.731771 4.83854,-0.41276 4.45313,-0.175781 C4.06771,0.0611979 3.65625,0.179688 3.21875,0.179688 C2.8125,0.179688 2.41276,0.119792 2.01953,0 C1.6263,-0.119792 1.29818,-0.308594 1.03516,-0.566406 C0.772135,-0.824219 0.640625,-1.15885 0.640625,-1.57031 M1.9375,-1.57031 C1.9375,-1.19531 2.07552,-0.880208 2.35156,-0.625 C2.6276,-0.369792 2.95313,-0.242188 3.32813,-0.242188 C3.67188,-0.242188 3.98438,-0.328125 4.26563,-0.5 C4.54688,-0.671875 4.77083,-0.90625 4.9375,-1.20313 C5.10417,-1.5 5.1875,-1.8125 5.1875,-2.14063 L5.1875,-3.80469 C4.70313,-3.80469 4.20703,-3.72526 3.69922,-3.56641 C3.19141,-3.40755 2.77083,-3.15885 2.4375,-2.82031 C2.10417,-2.48177 1.9375,-2.0651 1.9375,-1.57031 "/>
</g>

<g fill="#212121" fill-opacity="1" stroke="none" transform="matrix(0.75,0,0,0.75,212.825,44.021)"
font-family=".AppleSystemUIFont" font-size="13" font-weight="400" font-style="normal" 
>
<path vector-effect="none" fill-rule="evenodd" d="M0.492188,0 L0.492188,-0.5625 C0.856771,-0.5625 1.15625,-0.591146 1.39063,-0.648438 C1.625,-0.705729 1.74219,-0.846354 1.74219,-1.07031 L1.74219,-9.46875 C1.74219,-9.75521 1.69922,-9.96224 1.61328,-10.0898 C1.52734,-10.2174 1.40365,-10.2956 1.24219,-10.3242 C1.08073,-10.3529 0.830729,-10.3672 0.492188,-10.3672 L0.492188,-10.9297 L2.86719,-11.1016 L2.86719,-1.07031 C2.86719,-0.846354 2.98438,-0.705729 3.21875,-0.648438 C3.45313,-0.591146 3.75,-0.5625 4.10938,-0.5625 L4.10938,0 L0.492188,0"/>
</g>

<g fill="#212121" fill-opacity="1" stroke="none" transform="matrix(0.75,0,0,0.75,220.525,44.021)"
font-family=".AppleSystemUIFont" font-size="13" font-weight="400" font-style="normal" 
>
<path vector-effect="none" fill-rule="evenodd" d="M0.414063,0 L0.414063,-0.5625 C0.778646,-0.5625 1.07813,-0.591146 1.3125,-0.648438 C1.54688,-0.705729 1.66406,-0.846354 1.66406,-1.07031 L1.66406,-6.33594 L0.429688,-6.33594 L0.429688,-6.89844 L1.66406,-6.89844 L1.66406,-8.8125 C1.66406,-9.22396 1.77734,-9.58464 2.00391,-9.89453 C2.23047,-10.2044 2.52474,-10.4622 2.88672,-10.668 C3.2487,-10.8737 3.63672,-11.0273 4.05078,-11.1289 C4.46484,-11.2305 4.85938,-11.2813 5.23438,-11.2813 C5.54167,-11.2813 5.85026,-11.2135 6.16016,-11.0781 C6.47005,-10.9427 6.72135,-10.75 6.91406,-10.5 C7.10677,-10.25 7.20313,-9.96094 7.20313,-9.63281 C7.20313,-9.41927 7.12891,-9.23828 6.98047,-9.08984 C6.83203,-8.94141 6.64844,-8.86719 6.42969,-8.86719 C6.21094,-8.86719 6.02865,-8.9401 5.88281,-9.08594 C5.73698,-9.23177 5.66406,-9.41406 5.66406,-9.63281 C5.66406,-9.83594 5.73438,-10.0143 5.875,-10.168 C6.01563,-10.3216 6.1849,-10.3984 6.38281,-10.3984 C6.05469,-10.7109 5.6276,-10.8672 5.10156,-10.8672 C4.72135,-10.8672 4.34635,-10.7786 3.97656,-10.6016 C3.60677,-10.4245 3.30729,-10.1758 3.07813,-9.85547 C2.84896,-9.53516 2.73438,-9.17708 2.73438,-8.78125 L2.73438,-6.89844 L4.85156,-6.89844 L7.21875,-7.10156 L7.21875,-1.07031 C7.21875,-0.846354 7.33594,-0.705729 7.57031,-0.648438 C7.80469,-0.591146 8.10156,-0.5625 8.46094,-0.5625 L8.46094,0 L4.85156,0 L4.85156,-0.5625 C5.21094,-0.5625 5.50781,-0.591146 5.74219,-0.648438 C5.97656,-0.705729 6.09375,-0.846354 6.09375,-1.07031 L6.09375,-5.46875 C6.09375,-5.6875 6.08073,-5.84896 6.05469,-5.95313 C6.02865,-6.05729 5.97526,-6.14063 5.89453,-6.20313 C5.8138,-6.26563 5.67188,-6.3099 5.46875,-6.33594 L2.78125,-6.33594 L2.78125,-1.07031 C2.78125,-0.846354 2.89974,-0.705729 3.13672,-0.648438 C3.3737,-0.591146 3.67188,-0.5625 4.03125,-0.5625 L4.03125,0 L0.414063,0"/>
</g>

<g fill="#212121" fill-opacity="1" stroke="none" transform="matrix(0.75,0,0,0.75,227.525,44.021)"
font-family=".AppleSystemUIFont" font-size="13" font-weight="400" font-style="normal" 
>
<path vector-effect="none" fill-rule="evenodd" d="M1.63281,-1.92188 L1.63281,-6.33594 L0.304688,-6.33594 L0.304688,-6.75 C1.0026,-6.75 1.51563,-7.07552 1.84375,-7.72656 C2.17188,-8.3776 2.33594,-9.08333 2.33594,-9.84375 L2.79688,-9.84375 L2.79688,-6.89844 L5.05469,-6.89844 L5.05469,-6.33594 L2.79688,-6.33594 L2.79688,-1.95313 C2.79688,-1.51042 2.87109,-1.1224 3.01953,-0.789063 C3.16797,-0.455729 3.4349,-0.289063 3.82031,-0.289063 C4.1849,-0.289063 4.44792,-0.464844 4.60938,-0.816406 C4.77083,-1.16797 4.85156,-1.54688 4.85156,-1.95313 L4.85156,-2.89844 L5.3125,-2.89844 L5.3125,-1.92188 C5.3125,-1.58854 5.2513,-1.25911 5.12891,-0.933594 C5.00651,-0.608073 4.82552,-0.341146 4.58594,-0.132813 C4.34635,0.0755208 4.05469,0.179688 3.71094,0.179688 C3.07031,0.179688 2.5638,-0.0117188 2.19141,-0.394531 C1.81901,-0.777344 1.63281,-1.28646 1.63281,-1.92188 "/>
</g>

<g fill="#212121" fill-opacity="1" stroke="none" transform="matrix(0.75,0,0,0.75,232.425,44.021)"
font-family=".AppleSystemUIFont" font-size="13" font-weight="400" font-style="normal" 
>
<path vector-effect="none" fill-rule="evenodd" d="M1.34375,-0.882813 C1.34375,-1.1224 1.43229,-1.32813 1.60938,-1.5 C1.78646,-1.67188 1.99219,-1.75781 2.22656,-1.75781 C2.3724,-1.75781 2.51563,-1.71875 2.65625,-1.64063 C2.79688,-1.5625 2.90625,-1.45313 2.98438,-1.3125 C3.0625,-1.17188 3.10156,-1.02865 3.10156,-0.882813 C3.10156,-0.648438 3.01563,-0.442708 2.84375,-0.265625 C2.67188,-0.0885417 2.46615,0 2.22656,0 C1.99219,0 1.78646,-0.0885417 1.60938,-0.265625 C1.43229,-0.442708 1.34375,-0.648438 1.34375,-0.882813 M1.34375,-6.01563 C1.34375,-6.16667 1.38281,-6.3099 1.46094,-6.44531 C1.53906,-6.58073 1.64714,-6.6901 1.78516,-6.77344 C1.92318,-6.85677 2.07031,-6.89844 2.22656,-6.89844 C2.3776,-6.89844 2.52214,-6.85677 2.66016,-6.77344 C2.79818,-6.6901 2.90625,-6.58073 2.98438,-6.44531 C3.0625,-6.3099 3.10156,-6.16667 3.10156,-6.01563 C3.10156,-5.77604 3.01693,-5.56901 2.84766,-5.39453 C2.67839,-5.22005 2.47135,-5.13281 2.22656,-5.13281 C1.98698,-5.13281 1.77995,-5.22005 1.60547,-5.39453 C1.43099,-5.56901 1.34375,-5.77604 1.34375,-6.01563 "/>
</g>

<g fill="#212121" fill-opacity="1" stroke="none" transform="matrix(0.75,0,0,0.75,241.525,44.021)"
font-family=".AppleSystemUIFont" font-size="13" font-weight="400" font-style="normal" 
>
<path vector-effect="none" fill-rule="evenodd" d="M0.671875,-2.42969 C0.671875,-3.07031 0.882813,-3.63672 1.30469,-4.12891 C1.72656,-4.62109 2.26823,-5.03125 2.92969,-5.35938 L2.33594,-5.74219 C1.97135,-5.98177 1.67448,-6.30078 1.44531,-6.69922 C1.21615,-7.09766 1.10156,-7.51563 1.10156,-7.95313 C1.10156,-8.46354 1.23568,-8.92448 1.50391,-9.33594 C1.77214,-9.7474 2.12891,-10.0703 2.57422,-10.3047 C3.01953,-10.5391 3.49479,-10.6563 4,-10.6563 C4.47396,-10.6563 4.93099,-10.5599 5.37109,-10.3672 C5.8112,-10.1745 6.17318,-9.89844 6.45703,-9.53906 C6.74089,-9.17969 6.88281,-8.7526 6.88281,-8.25781 C6.88281,-7.89844 6.79818,-7.5651 6.62891,-7.25781 C6.45964,-6.95052 6.22786,-6.67448 5.93359,-6.42969 C5.63932,-6.1849 5.32552,-5.97656 4.99219,-5.80469 L5.90625,-5.21875 C6.32813,-4.94271 6.66797,-4.58073 6.92578,-4.13281 C7.18359,-3.6849 7.3125,-3.21354 7.3125,-2.71875 C7.3125,-2.14063 7.15755,-1.61458 6.84766,-1.14063 C6.53776,-0.666667 6.1276,-0.299479 5.61719,-0.0390625 C5.10677,0.221354 4.56771,0.351563 4,0.351563 C3.44792,0.351563 2.91536,0.239583 2.40234,0.015625 C1.88932,-0.208333 1.47266,-0.532552 1.15234,-0.957031 C0.832031,-1.38151 0.671875,-1.8724 0.671875,-2.42969 M1.53906,-2.42969 C1.53906,-2.00781 1.65495,-1.6224 1.88672,-1.27344 C2.11849,-0.924479 2.42448,-0.651042 2.80469,-0.453125 C3.1849,-0.255208 3.58333,-0.15625 4,-0.15625 C4.61979,-0.15625 5.18229,-0.33724 5.6875,-0.699219 C6.19271,-1.0612 6.44531,-1.54167 6.44531,-2.14063 C6.44531,-2.34375 6.40495,-2.54557 6.32422,-2.74609 C6.24349,-2.94661 6.13151,-3.12891 5.98828,-3.29297 C5.84505,-3.45703 5.6849,-3.59115 5.50781,-3.69531 L3.35938,-5.08594 C3.02604,-4.90885 2.72005,-4.6849 2.44141,-4.41406 C2.16276,-4.14323 1.94271,-3.83854 1.78125,-3.5 C1.61979,-3.16146 1.53906,-2.80469 1.53906,-2.42969 M2.64063,-7.3125 L4.57813,-6.0625 C5.02604,-6.32292 5.39323,-6.63802 5.67969,-7.00781 C5.96615,-7.3776 6.10938,-7.79427 6.10938,-8.25781 C6.10938,-8.61719 6.00911,-8.94661 5.80859,-9.24609 C5.60807,-9.54557 5.34635,-9.77865 5.02344,-9.94531 C4.70052,-10.112 4.35417,-10.1953 3.98438,-10.1953 C3.66146,-10.1953 3.33594,-10.1328 3.00781,-10.0078 C2.67969,-9.88281 2.40885,-9.69661 2.19531,-9.44922 C1.98177,-9.20182 1.875,-8.91146 1.875,-8.57813 C1.875,-8.07813 2.13021,-7.65625 2.64063,-7.3125 "/>
</g>

<g fill="#212121" fill-opacity="1" stroke="none" transform="matrix(0.75,0,0,0.75,247.825,44.021)"
font-family=".AppleSystemUIFont" font-size="13" font-weight="400" font-style="normal" 
>
<path vector-effect="none" fill-rule="evenodd" d="M4,0.351563 C2.69271,0.351563 1.80339,-0.186198 1.33203,-1.26172 C0.860677,-2.33724 0.625,-3.61719 0.625,-5.10156 C0.625,-6.02865 0.709635,-6.90104 0.878906,-7.71875 C1.04818,-8.53646 1.38411,-9.23047 1.88672,-9.80078 C2.38932,-10.3711 3.09375,-10.6563 4,-10.6563 C4.70313,-10.6563 5.27865,-10.4844 5.72656,-10.1406 C6.17448,-9.79688 6.51563,-9.35286 6.75,-8.80859 C6.98438,-8.26432 7.14453,-7.68099 7.23047,-7.05859 C7.31641,-6.4362 7.35938,-5.78385 7.35938,-5.10156 C7.35938,-4.1849 7.27474,-3.32682 7.10547,-2.52734 C6.9362,-1.72786 6.60417,-1.04818 6.10938,-0.488281 C5.61458,0.0716146 4.91146,0.351563 4,0.351563 M4,-0.0625 C4.59375,-0.0625 5.03646,-0.367188 5.32813,-0.976563 C5.61979,-1.58594 5.79948,-2.26042 5.86719,-3 C5.9349,-3.73958 5.96875,-4.52604 5.96875,-5.35938 C5.96875,-6.16146 5.9349,-6.90104 5.86719,-7.57813 C5.79948,-8.25521 5.62109,-8.86849 5.33203,-9.41797 C5.04297,-9.96745 4.59896,-10.2422 4,-10.2422 C3.39583,-10.2422 2.94792,-9.96615 2.65625,-9.41406 C2.36458,-8.86198 2.1849,-8.2487 2.11719,-7.57422 C2.04948,-6.89974 2.01563,-6.16146 2.01563,-5.35938 C2.01563,-4.76563 2.02995,-4.20573 2.05859,-3.67969 C2.08724,-3.15365 2.16406,-2.61068 2.28906,-2.05078 C2.41406,-1.49089 2.61589,-1.01953 2.89453,-0.636719 C3.17318,-0.253906 3.54167,-0.0625 4,-0.0625 "/>
</g>

<g fill="#212121" fill-opacity="1" stroke="none" transform="matrix(0.75,0,0,0.75,254.125,44.021)"
font-family=".AppleSystemUIFont" font-size="13" font-weight="400" font-style="normal" 
>
<path vector-effect="none" fill-rule="evenodd" d="M1.34375,-0.882813 C1.34375,-1.1224 1.43229,-1.32813 1.60938,-1.5 C1.78646,-1.67188 1.99219,-1.75781 2.22656,-1.75781 C2.3724,-1.75781 2.51563,-1.71875 2.65625,-1.64063 C2.79688,-1.5625 2.90625,-1.45313 2.98438,-1.3125 C3.0625,-1.17188 3.10156,-1.02865 3.10156,-0.882813 C3.10156,-0.648438 3.01563,-0.442708 2.84375,-0.265625 C2.67188,-0.0885417 2.46615,0 2.22656,0 C1.99219,0 1.78646,-0.0885417 1.60938,-0.265625 C1.43229,-0.442708 1.34375,-0.648438 1.34375,-0.882813 "/>
</g>

<g fill="#212121" fill-opacity="1" stroke="none" transform="matrix(0.75,0,0,0.75,257.625,44.021)"
font-family=".AppleSystemUIFont" font-size="13" font-weight="400" font-style="normal" 
>
<path vector-effect="none" fill-rule="evenodd" d="M0.445313,-2.64063 L0.445313,-3.20313 L5.39063,-10.5781 C5.42708,-10.6302 5.48177,-10.6563 5.55469,-10.6563 L5.78906,-10.6563 C5.90885,-10.6563 5.96875,-10.5964 5.96875,-10.4766 L5.96875,-3.20313 L7.53906,-3.20313 L7.53906,-2.64063 L5.96875,-2.64063 L5.96875,-1.07031 C5.96875,-0.851563 6.125,-0.71224 6.4375,-0.652344 C6.75,-0.592448 7.11198,-0.5625 7.52344,-0.5625 L7.52344,0 L3.11719,0 L3.11719,-0.5625 C3.52865,-0.5625 3.89063,-0.592448 4.20313,-0.652344 C4.51563,-0.71224 4.67188,-0.851563 4.67188,-1.07031 L4.67188,-2.64063 L0.445313,-2.64063 M0.976563,-3.20313 L4.76563,-3.20313 L4.76563,-8.86719 L0.976563,-3.20313"/>
</g>

<g fill="#212121" fill-opacity="1" stroke="none" transform="matrix(0.75,0,0,0.75,263.925,44.021)"
font-family=".AppleSystemUIFont" font-size="13" font-weight="400" font-style="normal" 
>
<path vector-effect="none" fill-rule="evenodd" d="M3.21875,0.179688 C2.70833,0.179688 2.26172,0.046875 1.87891,-0.21875 C1.49609,-0.484375 1.20443,-0.842448 1.00391,-1.29297 C0.803385,-1.74349 0.703125,-2.21875 0.703125,-2.71875 C0.703125,-3.47917 0.894531,-4.19401 1.27734,-4.86328 C1.66016,-5.53255 2.17969,-6.06771 2.83594,-6.46875 C3.49219,-6.86979 4.19531,-7.07031 4.94531,-7.07031 C5.40365,-7.07031 5.80339,-6.95182 6.14453,-6.71484 C6.48568,-6.47786 6.65625,-6.13802 6.65625,-5.69531 C6.65625,-5.08073 6.41146,-4.6237 5.92188,-4.32422 C5.43229,-4.02474 4.88021,-3.83984 4.26563,-3.76953 C3.65104,-3.69922 2.97135,-3.66406 2.22656,-3.66406 L2.17969,-3.66406 C2.00781,-3.02865 1.92188,-2.48438 1.92188,-2.03125 C1.92188,-1.55729 2.03125,-1.14063 2.25,-0.78125 C2.46875,-0.421875 2.80208,-0.242188 3.25,-0.242188 C3.88542,-0.242188 4.49609,-0.388021 5.08203,-0.679688 C5.66797,-0.971354 6.14583,-1.375 6.51563,-1.89063 C6.54688,-1.92188 6.58854,-1.9375 6.64063,-1.9375 C6.69271,-1.9375 6.74609,-1.90755 6.80078,-1.84766 C6.85547,-1.78776 6.88281,-1.73177 6.88281,-1.67969 C6.88281,-1.63802 6.8724,-1.60677 6.85156,-1.58594 C6.46094,-1.03906 5.9349,-0.608073 5.27344,-0.292969 C4.61198,0.0221354 3.92708,0.179688 3.21875,0.179688 M2.27344,-4.07813 C2.89323,-4.07813 3.46615,-4.10677 3.99219,-4.16406 C4.51823,-4.22135 4.99479,-4.36589 5.42188,-4.59766 C5.84896,-4.82943 6.0625,-5.1901 6.0625,-5.67969 C6.0625,-5.8776 6.00781,-6.05078 5.89844,-6.19922 C5.78906,-6.34766 5.64714,-6.46094 5.47266,-6.53906 C5.29818,-6.61719 5.11719,-6.65625 4.92969,-6.65625 C4.47656,-6.65625 4.06901,-6.53385 3.70703,-6.28906 C3.34505,-6.04427 3.04688,-5.72526 2.8125,-5.33203 C2.57813,-4.9388 2.39844,-4.52083 2.27344,-4.07813 "/>
</g>

<g fill="#212121" fill-opacity="1" stroke="none" transform="matrix(0.75,0,0,0.75,269.792,39.4486)"
font-family=".AppleSystemUIFont" font-size="13" font-weight="400" font-style="normal" 
>
<path vector-effect="none" fill-rule="evenodd" d="M1.12256,-2.52979 C1.06169,-2.52979 1.01156,-2.55306 0.972168,-2.59961 C0.93278,-2.64616 0.913086,-2.69629 0.913086,-2.75 C0.913086,-2.80371 0.93278,-2.85384 0.972168,-2.90039 C1.01156,-2.94694 1.06169,-2.97021 1.12256,-2.97021 L7.43359,-2.97021 C7.49089,-2.97021 7.53833,-2.94694 7.57593,-2.90039 C7.61353,-2.85384 7.63232,-2.80371 7.63232,-2.75 C7.63232,-2.69629 7.61353,-2.64616 7.57593,-2.59961 C7.53833,-2.55306 7.49089,-2.52979 7.43359,-2.52979 L1.12256,-2.52979"/>
</g>

<g fill="#212121" fill-opacity="1" stroke="none" transform="matrix(0.75,0,0,0.75,276.652,39.4486)"
font-family=".AppleSystemUIFont" font-size="13" font-weight="400" font-style="normal" 
>
<path vector-effect="none" fill-rule="evenodd" d="M2.75,0.241699 C1.85124,0.241699 1.23983,-0.128011 0.915771,-0.867432 C0.591715,-1.60685 0.429688,-2.48682 0.429688,-3.50732 C0.429688,-4.14469 0.487874,-4.74447 0.604248,-5.30664 C0.720622,-5.86882 0.951579,-6.34595 1.29712,-6.73804 C1.64266,-7.13013 2.12695,-7.32617 2.75,-7.32617 C3.2334,-7.32617 3.62907,-7.20801 3.93701,-6.97168 C4.24495,-6.73535 4.47949,-6.43009 4.64063,-6.05591 C4.80176,-5.68172 4.91187,-5.28068 4.97095,-4.85278 C5.03003,-4.42489 5.05957,-3.9764 5.05957,-3.50732 C5.05957,-2.87712 5.00138,-2.28719 4.88501,-1.73755 C4.76864,-1.18791 4.54036,-0.720622 4.2002,-0.335693 C3.86003,0.049235 3.37663,0.241699 2.75,0.241699 M2.75,-0.0429688 C3.1582,-0.0429688 3.46257,-0.252441 3.66309,-0.671387 C3.86361,-1.09033 3.98714,-1.55404 4.03369,-2.0625 C4.08024,-2.57096 4.10352,-3.11165 4.10352,-3.68457 C4.10352,-4.236 4.08024,-4.74447 4.03369,-5.20996 C3.98714,-5.67546 3.8645,-6.09709 3.66577,-6.47485 C3.46704,-6.85262 3.16178,-7.0415 2.75,-7.0415 C2.33464,-7.0415 2.02669,-6.85173 1.82617,-6.47217 C1.62565,-6.09261 1.50212,-5.67098 1.45557,-5.20728 C1.40902,-4.74357 1.38574,-4.236 1.38574,-3.68457 C1.38574,-3.27637 1.39559,-2.89144 1.41528,-2.52979 C1.43498,-2.16813 1.48779,-1.79484 1.57373,-1.40991 C1.65967,-1.02498 1.79842,-0.700928 1.98999,-0.437744 C2.18156,-0.174561 2.4349,-0.0429688 2.75,-0.0429688 "/>
</g>

<g fill="#212121" fill-opacity="1" stroke="none" transform="matrix(0.75,0,0,0.75,281.062,39.4486)"
font-family=".AppleSystemUIFont" font-size="13" font-weight="400" font-style="normal" 
>
<path vector-effect="none" fill-rule="evenodd" d="M0.923828,-0.606934 C0.923828,-0.771647 0.984701,-0.913086 1.10645,-1.03125 C1.22819,-1.14941 1.36963,-1.2085 1.53076,-1.2085 C1.63102,-1.2085 1.72949,-1.18164 1.82617,-1.12793 C1.92285,-1.07422 1.99805,-0.999023 2.05176,-0.902344 C2.10547,-0.805664 2.13232,-0.707194 2.13232,-0.606934 C2.13232,-0.445801 2.07324,-0.304362 1.95508,-0.182617 C1.83691,-0.0608724 1.69548,0 1.53076,0 C1.36963,0 1.22819,-0.0608724 1.10645,-0.182617 C0.984701,-0.304362 0.923828,-0.445801 0.923828,-0.606934 "/>
</g>

<g fill="#212121" fill-opacity="1" stroke="none" transform="matrix(0.75,0,0,0.75,283.512,39.4486)"
font-family=".AppleSystemUIFont" font-size="13" font-weight="400" font-style="normal" 
>
<path vector-effect="none" fill-rule="evenodd" d="M2.75,0.241699 C1.85124,0.241699 1.23983,-0.128011 0.915771,-0.867432 C0.591715,-1.60685 0.429688,-2.48682 0.429688,-3.50732 C0.429688,-4.14469 0.487874,-4.74447 0.604248,-5.30664 C0.720622,-5.86882 0.951579,-6.34595 1.29712,-6.73804 C1.64266,-7.13013 2.12695,-7.32617 2.75,-7.32617 C3.2334,-7.32617 3.62907,-7.20801 3.93701,-6.97168 C4.24495,-6.73535 4.47949,-6.43009 4.64063,-6.05591 C4.80176,-5.68172 4.91187,-5.28068 4.97095,-4.85278 C5.03003,-4.42489 5.05957,-3.9764 5.05957,-3.50732 C5.05957,-2.87712 5.00138,-2.28719 4.88501,-1.73755 C4.76864,-1.18791 4.54036,-0.720622 4.2002,-0.335693 C3.86003,0.049235 3.37663,0.241699 2.75,0.241699 M2.75,-0.0429688 C3.1582,-0.0429688 3.46257,-0.252441 3.66309,-0.671387 C3.86361,-1.09033 3.98714,-1.55404 4.03369,-2.0625 C4.08024,-2.57096 4.10352,-3.11165 4.10352,-3.68457 C4.10352,-4.236 4.08024,-4.74447 4.03369,-5.20996 C3.98714,-5.67546 3.8645,-6.09709 3.66577,-6.47485 C3.46704,-6.85262 3.16178,-7.0415 2.75,-7.0415 C2.33464,-7.0415 2.02669,-6.85173 1.82617,-6.47217 C1.62565,-6.09261 1.50212,-5.67098 1.45557,-5.20728 C1.40902,-4.74357 1.38574,-4.236 1.38574,-3.68457 C1.38574,-3.27637 1.39559,-2.89144 1.41528,-2.52979 C1.43498,-2.16813 1.48779,-1.79484 1.57373,-1.40991 C1.65967,-1.02498 1.79842,-0.700928 1.98999,-0.437744 C2.18156,-0.174561 2.4349,-0.0429688 2.75,-0.0429688 "/>
</g>

<g fill="#212121" fill-opacity="1" stroke="none" transform="matrix(0.75,0,0,0.75,287.922,39.4486)"
font-family=".AppleSystemUIFont" font-size="13" font-weight="400" font-style="normal" 
>
<path vector-effect="none" fill-rule="evenodd" d="M0.306152,-1.81543 L0.306152,-2.20215 L3.70605,-7.27246 C3.73112,-7.30827 3.76872,-7.32617 3.81885,-7.32617 L3.97998,-7.32617 C4.06234,-7.32617 4.10352,-7.28499 4.10352,-7.20264 L4.10352,-2.20215 L5.18311,-2.20215 L5.18311,-1.81543 L4.10352,-1.81543 L4.10352,-0.73584 C4.10352,-0.585449 4.21094,-0.489665 4.42578,-0.448486 C4.64063,-0.407308 4.88949,-0.386719 5.17236,-0.386719 L5.17236,0 L2.14307,0 L2.14307,-0.386719 C2.42594,-0.386719 2.6748,-0.407308 2.88965,-0.448486 C3.10449,-0.489665 3.21191,-0.585449 3.21191,-0.73584 L3.21191,-1.81543 L0.306152,-1.81543 M0.671387,-2.20215 L3.27637,-2.20215 L3.27637,-6.09619 L0.671387,-2.20215"/>
</g>

<g fill="#212121" fill-opacity="1" stroke="none" transform="matrix(0.75,0,0,0.75,293.802,39.4486)"
font-family=".AppleSystemUIFont" font-size="13" font-weight="400" font-style="normal" 
>
<path vector-effect="none" fill-rule="evenodd" d="M0.682129,-0.891602 C0.682129,-0.999023 0.692871,-1.10107 0.714355,-1.19775 L1.50928,-4.35596 L0.354492,-4.35596 C0.279297,-4.35596 0.241699,-4.4043 0.241699,-4.50098 C0.270345,-4.66211 0.318685,-4.74268 0.386719,-4.74268 L1.60596,-4.74268 L2.04639,-6.53662 C2.07503,-6.6333 2.13232,-6.71566 2.21826,-6.78369 C2.3042,-6.85173 2.40088,-6.88574 2.5083,-6.88574 C2.6014,-6.88574 2.67928,-6.85799 2.74194,-6.80249 C2.80461,-6.74699 2.83594,-6.67269 2.83594,-6.57959 C2.83594,-6.55811 2.83504,-6.5411 2.83325,-6.52856 C2.83146,-6.51603 2.82878,-6.5026 2.8252,-6.48828 L2.38477,-4.74268 L3.51807,-4.74268 C3.59326,-4.74268 3.63086,-4.69434 3.63086,-4.59766 C3.62728,-4.57975 3.62012,-4.54932 3.60938,-4.50635 C3.59863,-4.46338 3.58431,-4.42757 3.56641,-4.39893 C3.5485,-4.37028 3.52165,-4.35596 3.48584,-4.35596 L2.28809,-4.35596 L1.49854,-1.17627 C1.44482,-0.968587 1.41797,-0.789551 1.41797,-0.63916 C1.41797,-0.324056 1.52539,-0.166504 1.74023,-0.166504 C2.0625,-0.166504 2.34806,-0.31779 2.59692,-0.620361 C2.84578,-0.922933 3.03646,-1.25505 3.16895,-1.6167 C3.19759,-1.65967 3.22624,-1.68115 3.25488,-1.68115 L3.38916,-1.68115 C3.41781,-1.68115 3.44108,-1.67131 3.45898,-1.65161 C3.47689,-1.63192 3.48584,-1.60954 3.48584,-1.58447 C3.48584,-1.57015 3.48226,-1.55941 3.4751,-1.55225 C3.31396,-1.10824 3.07943,-0.717936 2.77148,-0.381348 C2.46354,-0.0447591 2.11084,0.123535 1.71338,0.123535 C1.42334,0.123535 1.17896,0.0286458 0.980225,-0.161133 C0.781494,-0.350911 0.682129,-0.594401 0.682129,-0.891602 "/>
</g>

<g fill="#212121" fill-opacity="1" stroke="none" transform="matrix(0.75,0,0,0.75,150,60.7719)"
font-family=".AppleSystemUIFont" font-size="13" font-weight="400" font-style="normal" 
>
<path vector-effect="none" fill-rule="evenodd" d="M0.53125,0 L0.53125,-0.5625 C1.63021,-0.5625 2.17969,-0.731771 2.17969,-1.07031 L2.17969,-9.85938 C2.17969,-10.1979 1.63021,-10.3672 0.53125,-10.3672 L0.53125,-10.9297 L5.55469,-10.9297 C6.15365,-10.9297 6.78255,-10.8216 7.44141,-10.6055 C8.10026,-10.3893 8.65104,-10.0599 9.09375,-9.61719 C9.53646,-9.17448 9.75781,-8.64583 9.75781,-8.03125 C9.75781,-7.58333 9.6237,-7.18359 9.35547,-6.83203 C9.08724,-6.48047 8.74349,-6.1862 8.32422,-5.94922 C7.90495,-5.71224 7.47656,-5.54167 7.03906,-5.4375 C7.51823,-5.27083 7.9375,-5.00521 8.29688,-4.64063 C8.65625,-4.27604 8.8724,-3.85938 8.94531,-3.39063 L9.17188,-1.96875 C9.27604,-1.32813 9.38542,-0.85026 9.5,-0.535156 C9.61458,-0.220052 9.86719,-0.0625 10.2578,-0.0625 C10.5911,-0.0625 10.8398,-0.217448 11.0039,-0.527344 C11.168,-0.83724 11.25,-1.17448 11.25,-1.53906 C11.25,-1.57552 11.2669,-1.60807 11.3008,-1.63672 C11.3346,-1.66536 11.3698,-1.67969 11.4063,-1.67969 L11.5547,-1.67969 C11.6589,-1.67969 11.7109,-1.60938 11.7109,-1.46875 C11.7109,-1.17708 11.6536,-0.891927 11.5391,-0.613281 C11.4245,-0.334635 11.2591,-0.104167 11.043,0.078125 C10.8268,0.260417 10.5703,0.351563 10.2734,0.351563 C9.5026,0.351563 8.83984,0.160156 8.28516,-0.222656 C7.73047,-0.605469 7.45313,-1.16667 7.45313,-1.90625 L7.45313,-3.32813 C7.45313,-3.85938 7.26823,-4.3151 6.89844,-4.69531 C6.52865,-5.07552 6.07552,-5.26563 5.53906,-5.26563 L3.61719,-5.26563 L3.61719,-1.07031 C3.61719,-0.731771 4.16667,-0.5625 5.26563,-0.5625 L5.26563,0 L0.53125,0 M3.61719,-5.67969 L5.32813,-5.67969 C6.21354,-5.67969 6.88802,-5.85807 7.35156,-6.21484 C7.8151,-6.57161 8.04688,-7.17708 8.04688,-8.03125 C8.04688,-8.88021 7.81771,-9.48177 7.35938,-9.83594 C6.90104,-10.1901 6.22396,-10.3672 5.32813,-10.3672 L4.42969,-10.3672 C4.23698,-10.3672 4.08724,-10.3594 3.98047,-10.3438 C3.8737,-10.3281 3.78646,-10.2826 3.71875,-10.207 C3.65104,-10.1315 3.61719,-10.0156 3.61719,-9.85938 L3.61719,-5.67969"/>
</g>

<g fill="#212121" fill-opacity="1" stroke="none" transform="matrix(0.75,0,0,0.75,159.275,60.7719)"
font-family=".AppleSystemUIFont" font-size="13" font-weight="400" font-style="normal" 
>
<path vector-effect="none" fill-rule="evenodd" d="M3.98438,0.179688 C3.33333,0.179688 2.73568,0.00911458 2.19141,-0.332031 C1.64714,-0.673177 1.22005,-1.12891 0.910156,-1.69922 C0.60026,-2.26953 0.445313,-2.8724 0.445313,-3.50781 C0.445313,-4.13281 0.58724,-4.72656 0.871094,-5.28906 C1.15495,-5.85156 1.55078,-6.30599 2.05859,-6.65234 C2.56641,-6.9987 3.13281,-7.17188 3.75781,-7.17188 C4.2474,-7.17188 4.67318,-7.08984 5.03516,-6.92578 C5.39714,-6.76172 5.69531,-6.53385 5.92969,-6.24219 C6.16406,-5.95052 6.34115,-5.60677 6.46094,-5.21094 C6.58073,-4.8151 6.64063,-4.38021 6.64063,-3.90625 C6.64063,-3.76563 6.58594,-3.69531 6.47656,-3.69531 L1.84375,-3.69531 L1.84375,-3.52344 C1.84375,-2.63802 2.02214,-1.8776 2.37891,-1.24219 C2.73568,-0.606771 3.31771,-0.289063 4.125,-0.289063 C4.45313,-0.289063 4.75651,-0.361979 5.03516,-0.507813 C5.3138,-0.653646 5.55599,-0.856771 5.76172,-1.11719 C5.96745,-1.3776 6.10677,-1.65625 6.17969,-1.95313 C6.1901,-1.98958 6.20964,-2.02214 6.23828,-2.05078 C6.26693,-2.07943 6.29948,-2.09375 6.33594,-2.09375 L6.47656,-2.09375 C6.58594,-2.09375 6.64063,-2.02604 6.64063,-1.89063 C6.48958,-1.28646 6.16406,-0.790365 5.66406,-0.402344 C5.16406,-0.0143229 4.60417,0.179688 3.98438,0.179688 M1.85938,-4.09375 L5.50781,-4.09375 C5.50781,-4.49479 5.45182,-4.90104 5.33984,-5.3125 C5.22786,-5.72396 5.04167,-6.06641 4.78125,-6.33984 C4.52083,-6.61328 4.17969,-6.75 3.75781,-6.75 C3.15365,-6.75 2.6862,-6.46745 2.35547,-5.90234 C2.02474,-5.33724 1.85938,-4.73438 1.85938,-4.09375 "/>
</g>

<g fill="#212121" fill-opacity="1" stroke="none" transform="matrix(0.75,0,0,0.75,164.875,60.7719)"
font-family=".AppleSystemUIFont" font-size="13" font-weight="400" font-style="normal" 
>
<path vector-effect="none" fill-rule="evenodd" d="M0.414063,3.10156 L0.414063,2.54688 C0.778646,2.54688 1.07813,2.51563 1.3125,2.45313 C1.54688,2.39063 1.66406,2.25 1.66406,2.03125 L1.66406,-5.67969 C1.66406,-5.97135 1.5599,-6.15365 1.35156,-6.22656 C1.14323,-6.29948 0.830729,-6.33594 0.414063,-6.33594 L0.414063,-6.89844 L2.78125,-7.07031 L2.78125,-6.07813 C3.07292,-6.40104 3.41276,-6.64714 3.80078,-6.81641 C4.1888,-6.98568 4.60156,-7.07031 5.03906,-7.07031 C5.66927,-7.07031 6.23698,-6.89974 6.74219,-6.55859 C7.2474,-6.21745 7.64193,-5.76953 7.92578,-5.21484 C8.20964,-4.66016 8.35156,-4.07292 8.35156,-3.45313 C8.35156,-2.80729 8.19401,-2.20573 7.87891,-1.64844 C7.5638,-1.09115 7.13411,-0.647135 6.58984,-0.316406 C6.04557,0.0143229 5.44792,0.179688 4.79688,0.179688 C4.02083,0.179688 3.36458,-0.135417 2.82813,-0.765625 L2.82813,2.03125 C2.82813,2.25 2.94661,2.39063 3.18359,2.45313 C3.42057,2.51563 3.71875,2.54688 4.07813,2.54688 L4.07813,3.10156 L0.414063,3.10156 M2.82813,-1.55469 C3.01563,-1.17448 3.27604,-0.860677 3.60938,-0.613281 C3.94271,-0.365885 4.30729,-0.242188 4.70313,-0.242188 C5.07292,-0.242188 5.39974,-0.341146 5.68359,-0.539063 C5.96745,-0.736979 6.20573,-1.0026 6.39844,-1.33594 C6.59115,-1.66927 6.73307,-2.01953 6.82422,-2.38672 C6.91536,-2.75391 6.96094,-3.10938 6.96094,-3.45313 C6.96094,-3.88021 6.88411,-4.34245 6.73047,-4.83984 C6.57682,-5.33724 6.34245,-5.75651 6.02734,-6.09766 C5.71224,-6.4388 5.33073,-6.60938 4.88281,-6.60938 C4.45052,-6.60938 4.05339,-6.4987 3.69141,-6.27734 C3.32943,-6.05599 3.04167,-5.75521 2.82813,-5.375 L2.82813,-1.55469"/>
</g>

<g fill="#212121" fill-opacity="1" stroke="none" transform="matrix(0.75,0,0,0.75,171.875,60.7719)"
font-family=".AppleSystemUIFont" font-size="13" font-weight="400" font-style="normal" 
>
<path vector-effect="none" fill-rule="evenodd" d="M0.492188,0 L0.492188,-0.5625 C0.856771,-0.5625 1.15625,-0.591146 1.39063,-0.648438 C1.625,-0.705729 1.74219,-0.846354 1.74219,-1.07031 L1.74219,-9.46875 C1.74219,-9.75521 1.69922,-9.96224 1.61328,-10.0898 C1.52734,-10.2174 1.40365,-10.2956 1.24219,-10.3242 C1.08073,-10.3529 0.830729,-10.3672 0.492188,-10.3672 L0.492188,-10.9297 L2.86719,-11.1016 L2.86719,-1.07031 C2.86719,-0.846354 2.98438,-0.705729 3.21875,-0.648438 C3.45313,-0.591146 3.75,-0.5625 4.10938,-0.5625 L4.10938,0 L0.492188,0"/>
</g>

<g fill="#212121" fill-opacity="1" stroke="none" transform="matrix(0.75,0,0,0.75,175.375,60.7719)"
font-family=".AppleSystemUIFont" font-size="13" font-weight="400" font-style="normal" 
>
<path vector-effect="none" fill-rule="evenodd" d="M0.492188,0 L0.492188,-0.5625 C0.856771,-0.5625 1.15625,-0.591146 1.39063,-0.648438 C1.625,-0.705729 1.74219,-0.846354 1.74219,-1.07031 L1.74219,-5.4375 C1.74219,-5.84896 1.66276,-6.10156 1.50391,-6.19531 C1.34505,-6.28906 1.03125,-6.33594 0.5625,-6.33594 L0.5625,-6.89844 L2.86719,-7.07031 L2.86719,-1.07031 C2.86719,-0.846354 2.96875,-0.705729 3.17188,-0.648438 C3.375,-0.591146 3.64583,-0.5625 3.98438,-0.5625 L3.98438,0 L0.492188,0 M1.17188,-9.82031 C1.17188,-10.0547 1.26042,-10.2604 1.4375,-10.4375 C1.61458,-10.6146 1.81771,-10.7031 2.04688,-10.7031 C2.19792,-10.7031 2.34375,-10.6641 2.48438,-10.5859 C2.625,-10.5078 2.73438,-10.3984 2.8125,-10.2578 C2.89063,-10.1172 2.92969,-9.97135 2.92969,-9.82031 C2.92969,-9.59115 2.84115,-9.38802 2.66406,-9.21094 C2.48698,-9.03385 2.28125,-8.94531 2.04688,-8.94531 C1.81771,-8.94531 1.61458,-9.03385 1.4375,-9.21094 C1.26042,-9.38802 1.17188,-9.59115 1.17188,-9.82031 "/>
</g>

<g fill="#212121" fill-opacity="1" stroke="none" transform="matrix(0.75,0,0,0.75,178.875,60.7719)"
font-family=".AppleSystemUIFont" font-size="13" font-weight="400" font-style="normal" 
>
<path vector-effect="none" fill-rule="evenodd" d="M3.98438,0.179688 C3.33854,0.179688 2.7526,0.0117188 2.22656,-0.324219 C1.70052,-0.660156 1.28646,-1.10807 0.984375,-1.66797 C0.682292,-2.22786 0.53125,-2.82292 0.53125,-3.45313 C0.53125,-4.08333 0.68099,-4.6875 0.980469,-5.26563 C1.27995,-5.84375 1.69401,-6.30599 2.22266,-6.65234 C2.7513,-6.9987 3.33854,-7.17188 3.98438,-7.17188 C4.60938,-7.17188 5.17839,-7.04948 5.69141,-6.80469 C6.20443,-6.5599 6.46094,-6.15885 6.46094,-5.60156 C6.46094,-5.39323 6.38672,-5.21224 6.23828,-5.05859 C6.08984,-4.90495 5.90885,-4.82813 5.69531,-4.82813 C5.48177,-4.82813 5.30078,-4.90495 5.15234,-5.05859 C5.00391,-5.21224 4.92969,-5.39323 4.92969,-5.60156 C4.92969,-5.78906 4.98958,-5.95182 5.10938,-6.08984 C5.22917,-6.22786 5.3776,-6.3151 5.55469,-6.35156 C5.1849,-6.58594 4.66667,-6.70313 4,-6.70313 C3.48958,-6.70313 3.07813,-6.53385 2.76563,-6.19531 C2.45313,-5.85677 2.23438,-5.4375 2.10938,-4.9375 C1.98438,-4.4375 1.92188,-3.94271 1.92188,-3.45313 C1.92188,-2.9375 1.9987,-2.4388 2.15234,-1.95703 C2.30599,-1.47526 2.55339,-1.07682 2.89453,-0.761719 C3.23568,-0.446615 3.66406,-0.289063 4.17969,-0.289063 C4.6849,-0.289063 5.11458,-0.44401 5.46875,-0.753906 C5.82292,-1.0638 6.0651,-1.46875 6.19531,-1.96875 C6.19531,-2.03125 6.23698,-2.0625 6.32031,-2.0625 L6.51563,-2.0625 C6.54688,-2.0625 6.57552,-2.04818 6.60156,-2.01953 C6.6276,-1.99089 6.64063,-1.95833 6.64063,-1.92188 L6.64063,-1.875 C6.47917,-1.24479 6.15885,-0.744792 5.67969,-0.375 C5.20052,-0.00520833 4.63542,0.179688 3.98438,0.179688 "/>
</g>

<g fill="#212121" fill-opacity="1" stroke="none" transform="matrix(0.75,0,0,0.75,184.475,60.7719)"
font-family=".AppleSystemUIFont" font-size="13" font-weight="400" font-style="normal" 
>
<path vector-effect="none" fill-rule="evenodd" d="M0.640625,-1.57031 C0.640625,-2.20573 0.890625,-2.72266 1.39063,-3.12109 C1.89063,-3.51953 2.49089,-3.80078 3.19141,-3.96484 C3.89193,-4.12891 4.55729,-4.21094 5.1875,-4.21094 L5.1875,-4.86719 C5.1875,-5.17448 5.11979,-5.47266 4.98438,-5.76172 C4.84896,-6.05078 4.65365,-6.28776 4.39844,-6.47266 C4.14323,-6.65755 3.86198,-6.75 3.55469,-6.75 C2.84635,-6.75 2.30729,-6.59115 1.9375,-6.27344 C2.14063,-6.27344 2.30859,-6.19661 2.44141,-6.04297 C2.57422,-5.88932 2.64063,-5.71094 2.64063,-5.50781 C2.64063,-5.29427 2.5651,-5.11198 2.41406,-4.96094 C2.26302,-4.8099 2.08333,-4.73438 1.875,-4.73438 C1.66146,-4.73438 1.47917,-4.8099 1.32813,-4.96094 C1.17708,-5.11198 1.10156,-5.29427 1.10156,-5.50781 C1.10156,-6.07031 1.35677,-6.48828 1.86719,-6.76172 C2.3776,-7.03516 2.9401,-7.17188 3.55469,-7.17188 C3.98698,-7.17188 4.42188,-7.07943 4.85938,-6.89453 C5.29688,-6.70964 5.65495,-6.44531 5.93359,-6.10156 C6.21224,-5.75781 6.35156,-5.35677 6.35156,-4.89844 L6.35156,-1.29688 C6.35156,-1.08854 6.39583,-0.897135 6.48438,-0.722656 C6.57292,-0.548177 6.71094,-0.460938 6.89844,-0.460938 C7.07552,-0.460938 7.20703,-0.549479 7.29297,-0.726563 C7.37891,-0.903646 7.42188,-1.09375 7.42188,-1.29688 L7.42188,-2.32031 L7.89063,-2.32031 L7.89063,-1.29688 C7.89063,-1.05729 7.82813,-0.829427 7.70313,-0.613281 C7.57813,-0.397135 7.41016,-0.22526 7.19922,-0.0976563 C6.98828,0.0299479 6.76042,0.09375 6.51563,0.09375 C6.20313,0.09375 5.93359,-0.0273438 5.70703,-0.269531 C5.48047,-0.511719 5.35417,-0.799479 5.32813,-1.13281 C5.13021,-0.731771 4.83854,-0.41276 4.45313,-0.175781 C4.06771,0.0611979 3.65625,0.179688 3.21875,0.179688 C2.8125,0.179688 2.41276,0.119792 2.01953,0 C1.6263,-0.119792 1.29818,-0.308594 1.03516,-0.566406 C0.772135,-0.824219 0.640625,-1.15885 0.640625,-1.57031 M1.9375,-1.57031 C1.9375,-1.19531 2.07552,-0.880208 2.35156,-0.625 C2.6276,-0.369792 2.95313,-0.242188 3.32813,-0.242188 C3.67188,-0.242188 3.98438,-0.328125 4.26563,-0.5 C4.54688,-0.671875 4.77083,-0.90625 4.9375,-1.20313 C5.10417,-1.5 5.1875,-1.8125 5.1875,-2.14063 L5.1875,-3.80469 C4.70313,-3.80469 4.20703,-3.72526 3.69922,-3.56641 C3.19141,-3.40755 2.77083,-3.15885 2.4375,-2.82031 C2.10417,-2.48177 1.9375,-2.0651 1.9375,-1.57031 "/>
</g>

<g fill="#212121" fill-opacity="1" stroke="none" transform="matrix(0.75,0,0,0.75,190.775,60.7719)"
font-family=".AppleSystemUIFont" font-size="13" font-weight="400" font-style="normal" 
>
<path vector-effect="none" fill-rule="evenodd" d="M1.63281,-1.92188 L1.63281,-6.33594 L0.304688,-6.33594 L0.304688,-6.75 C1.0026,-6.75 1.51563,-7.07552 1.84375,-7.72656 C2.17188,-8.3776 2.33594,-9.08333 2.33594,-9.84375 L2.79688,-9.84375 L2.79688,-6.89844 L5.05469,-6.89844 L5.05469,-6.33594 L2.79688,-6.33594 L2.79688,-1.95313 C2.79688,-1.51042 2.87109,-1.1224 3.01953,-0.789063 C3.16797,-0.455729 3.4349,-0.289063 3.82031,-0.289063 C4.1849,-0.289063 4.44792,-0.464844 4.60938,-0.816406 C4.77083,-1.16797 4.85156,-1.54688 4.85156,-1.95313 L4.85156,-2.89844 L5.3125,-2.89844 L5.3125,-1.92188 C5.3125,-1.58854 5.2513,-1.25911 5.12891,-0.933594 C5.00651,-0.608073 4.82552,-0.341146 4.58594,-0.132813 C4.34635,0.0755208 4.05469,0.179688 3.71094,0.179688 C3.07031,0.179688 2.5638,-0.0117188 2.19141,-0.394531 C1.81901,-0.777344 1.63281,-1.28646 1.63281,-1.92188 "/>
</g>

<g fill="#212121" fill-opacity="1" stroke="none" transform="matrix(0.75,0,0,0.75,195.675,60.7719)"
font-family=".AppleSystemUIFont" font-size="13" font-weight="400" font-style="normal" 
>
<path vector-effect="none" fill-rule="evenodd" d="M3.98438,0.179688 C3.33333,0.179688 2.73568,0.00911458 2.19141,-0.332031 C1.64714,-0.673177 1.22005,-1.12891 0.910156,-1.69922 C0.60026,-2.26953 0.445313,-2.8724 0.445313,-3.50781 C0.445313,-4.13281 0.58724,-4.72656 0.871094,-5.28906 C1.15495,-5.85156 1.55078,-6.30599 2.05859,-6.65234 C2.56641,-6.9987 3.13281,-7.17188 3.75781,-7.17188 C4.2474,-7.17188 4.67318,-7.08984 5.03516,-6.92578 C5.39714,-6.76172 5.69531,-6.53385 5.92969,-6.24219 C6.16406,-5.95052 6.34115,-5.60677 6.46094,-5.21094 C6.58073,-4.8151 6.64063,-4.38021 6.64063,-3.90625 C6.64063,-3.76563 6.58594,-3.69531 6.47656,-3.69531 L1.84375,-3.69531 L1.84375,-3.52344 C1.84375,-2.63802 2.02214,-1.8776 2.37891,-1.24219 C2.73568,-0.606771 3.31771,-0.289063 4.125,-0.289063 C4.45313,-0.289063 4.75651,-0.361979 5.03516,-0.507813 C5.3138,-0.653646 5.55599,-0.856771 5.76172,-1.11719 C5.96745,-1.3776 6.10677,-1.65625 6.17969,-1.95313 C6.1901,-1.98958 6.20964,-2.02214 6.23828,-2.05078 C6.26693,-2.07943 6.29948,-2.09375 6.33594,-2.09375 L6.47656,-2.09375 C6.58594,-2.09375 6.64063,-2.02604 6.64063,-1.89063 C6.48958,-1.28646 6.16406,-0.790365 5.66406,-0.402344 C5.16406,-0.0143229 4.60417,0.179688 3.98438,0.179688 M1.85938,-4.09375 L5.50781,-4.09375 C5.50781,-4.49479 5.45182,-4.90104 5.33984,-5.3125 C5.22786,-5.72396 5.04167,-6.06641 4.78125,-6.33984 C4.52083,-6.61328 4.17969,-6.75 3.75781,-6.75 C3.15365,-6.75 2.6862,-6.46745 2.35547,-5.90234 C2.02474,-5.33724 1.85938,-4.73438 1.85938,-4.09375 "/>
</g>

<g fill="#212121" fill-opacity="1" stroke="none" transform="matrix(0.75,0,0,0.75,205.475,60.7719)"
font-family=".AppleSystemUIFont" font-size="13" font-weight="400" font-style="normal" 
>
<path vector-effect="none" fill-rule="evenodd" d="M0.476563,0 L0.476563,-0.5625 C0.841146,-0.5625 1.14063,-0.591146 1.375,-0.648438 C1.60938,-0.705729 1.72656,-0.846354 1.72656,-1.07031 L1.72656,-5.4375 C1.72656,-5.72396 1.68359,-5.93099 1.59766,-6.05859 C1.51172,-6.1862 1.38802,-6.26432 1.22656,-6.29297 C1.0651,-6.32161 0.815104,-6.33594 0.476563,-6.33594 L0.476563,-6.89844 L2.79688,-7.07031 L2.79688,-5.50781 C3.01042,-5.96615 3.32682,-6.34115 3.74609,-6.63281 C4.16536,-6.92448 4.6224,-7.07031 5.11719,-7.07031 C6.34635,-7.07031 7.06771,-6.57031 7.28125,-5.57031 C7.49479,-6.01823 7.80729,-6.38021 8.21875,-6.65625 C8.63021,-6.93229 9.08073,-7.07031 9.57031,-7.07031 C10.0547,-7.07031 10.4622,-6.99219 10.793,-6.83594 C11.1237,-6.67969 11.3724,-6.44141 11.5391,-6.12109 C11.7057,-5.80078 11.7891,-5.39844 11.7891,-4.91406 L11.7891,-1.07031 C11.7891,-0.846354 11.9076,-0.705729 12.1445,-0.648438 C12.3815,-0.591146 12.6797,-0.5625 13.0391,-0.5625 L13.0391,0 L9.375,0 L9.375,-0.5625 C9.73958,-0.5625 10.0391,-0.591146 10.2734,-0.648438 C10.5078,-0.705729 10.625,-0.846354 10.625,-1.07031 L10.625,-4.86719 C10.625,-5.40365 10.5495,-5.83594 10.3984,-6.16406 C10.2474,-6.49219 9.9375,-6.65625 9.46875,-6.65625 C8.85417,-6.65625 8.34635,-6.40885 7.94531,-5.91406 C7.54427,-5.41927 7.34375,-4.85677 7.34375,-4.22656 L7.34375,-1.07031 C7.34375,-0.846354 7.46094,-0.705729 7.69531,-0.648438 C7.92969,-0.591146 8.22917,-0.5625 8.59375,-0.5625 L8.59375,0 L4.92969,0 L4.92969,-0.5625 C5.29427,-0.5625 5.59375,-0.591146 5.82813,-0.648438 C6.0625,-0.705729 6.17969,-0.846354 6.17969,-1.07031 L6.17969,-4.86719 C6.17969,-5.38802 6.10417,-5.81641 5.95313,-6.15234 C5.80208,-6.48828 5.49219,-6.65625 5.02344,-6.65625 C4.40365,-6.65625 3.89453,-6.40885 3.49609,-5.91406 C3.09766,-5.41927 2.89844,-4.85677 2.89844,-4.22656 L2.89844,-1.07031 C2.89844,-0.846354 3.01563,-0.705729 3.25,-0.648438 C3.48438,-0.591146 3.78125,-0.5625 4.14063,-0.5625 L4.14063,0 L0.476563,0"/>
</g>

<g fill="#212121" fill-opacity="1" stroke="none" transform="matrix(0.75,0,0,0.75,215.975,60.7719)"
font-family=".AppleSystemUIFont" font-size="13" font-weight="400" font-style="normal" 
>
<path vector-effect="none" fill-rule="evenodd" d="M3.98438,0.179688 C3.33333,0.179688 2.73568,0.00911458 2.19141,-0.332031 C1.64714,-0.673177 1.22005,-1.12891 0.910156,-1.69922 C0.60026,-2.26953 0.445313,-2.8724 0.445313,-3.50781 C0.445313,-4.13281 0.58724,-4.72656 0.871094,-5.28906 C1.15495,-5.85156 1.55078,-6.30599 2.05859,-6.65234 C2.56641,-6.9987 3.13281,-7.17188 3.75781,-7.17188 C4.2474,-7.17188 4.67318,-7.08984 5.03516,-6.92578 C5.39714,-6.76172 5.69531,-6.53385 5.92969,-6.24219 C6.16406,-5.95052 6.34115,-5.60677 6.46094,-5.21094 C6.58073,-4.8151 6.64063,-4.38021 6.64063,-3.90625 C6.64063,-3.76563 6.58594,-3.69531 6.47656,-3.69531 L1.84375,-3.69531 L1.84375,-3.52344 C1.84375,-2.63802 2.02214,-1.8776 2.37891,-1.24219 C2.73568,-0.606771 3.31771,-0.289063 4.125,-0.289063 C4.45313,-0.289063 4.75651,-0.361979 5.03516,-0.507813 C5.3138,-0.653646 5.55599,-0.856771 5.76172,-1.11719 C5.96745,-1.3776 6.10677,-1.65625 6.17969,-1.95313 C6.1901,-1.98958 6.20964,-2.02214 6.23828,-2.05078 C6.26693,-2.07943 6.29948,-2.09375 6.33594,-2.09375 L6.47656,-2.09375 C6.58594,-2.09375 6.64063,-2.02604 6.64063,-1.89063 C6.48958,-1.28646 6.16406,-0.790365 5.66406,-0.402344 C5.16406,-0.0143229 4.60417,0.179688 3.98438,0.179688 M1.85938,-4.09375 L5.50781,-4.09375 C5.50781,-4.49479 5.45182,-4.90104 5.33984,-5.3125 C5.22786,-5.72396 5.04167,-6.06641 4.78125,-6.33984 C4.52083,-6.61328 4.17969,-6.75 3.75781,-6.75 C3.15365,-6.75 2.6862,-6.46745 2.35547,-5.90234 C2.02474,-5.33724 1.85938,-4.73438 1.85938,-4.09375 "/>
</g>

<g fill="#212121" fill-opacity="1" stroke="none" transform="matrix(0.75,0,0,0.75,221.575,60.7719)"
font-family=".AppleSystemUIFont" font-size="13" font-weight="400" font-style="normal" 
>
<path vector-effect="none" fill-rule="evenodd" d="M0.640625,-1.57031 C0.640625,-2.20573 0.890625,-2.72266 1.39063,-3.12109 C1.89063,-3.51953 2.49089,-3.80078 3.19141,-3.96484 C3.89193,-4.12891 4.55729,-4.21094 5.1875,-4.21094 L5.1875,-4.86719 C5.1875,-5.17448 5.11979,-5.47266 4.98438,-5.76172 C4.84896,-6.05078 4.65365,-6.28776 4.39844,-6.47266 C4.14323,-6.65755 3.86198,-6.75 3.55469,-6.75 C2.84635,-6.75 2.30729,-6.59115 1.9375,-6.27344 C2.14063,-6.27344 2.30859,-6.19661 2.44141,-6.04297 C2.57422,-5.88932 2.64063,-5.71094 2.64063,-5.50781 C2.64063,-5.29427 2.5651,-5.11198 2.41406,-4.96094 C2.26302,-4.8099 2.08333,-4.73438 1.875,-4.73438 C1.66146,-4.73438 1.47917,-4.8099 1.32813,-4.96094 C1.17708,-5.11198 1.10156,-5.29427 1.10156,-5.50781 C1.10156,-6.07031 1.35677,-6.48828 1.86719,-6.76172 C2.3776,-7.03516 2.9401,-7.17188 3.55469,-7.17188 C3.98698,-7.17188 4.42188,-7.07943 4.85938,-6.89453 C5.29688,-6.70964 5.65495,-6.44531 5.93359,-6.10156 C6.21224,-5.75781 6.35156,-5.35677 6.35156,-4.89844 L6.35156,-1.29688 C6.35156,-1.08854 6.39583,-0.897135 6.48438,-0.722656 C6.57292,-0.548177 6.71094,-0.460938 6.89844,-0.460938 C7.07552,-0.460938 7.20703,-0.549479 7.29297,-0.726563 C7.37891,-0.903646 7.42188,-1.09375 7.42188,-1.29688 L7.42188,-2.32031 L7.89063,-2.32031 L7.89063,-1.29688 C7.89063,-1.05729 7.82813,-0.829427 7.70313,-0.613281 C7.57813,-0.397135 7.41016,-0.22526 7.19922,-0.0976563 C6.98828,0.0299479 6.76042,0.09375 6.51563,0.09375 C6.20313,0.09375 5.93359,-0.0273438 5.70703,-0.269531 C5.48047,-0.511719 5.35417,-0.799479 5.32813,-1.13281 C5.13021,-0.731771 4.83854,-0.41276 4.45313,-0.175781 C4.06771,0.0611979 3.65625,0.179688 3.21875,0.179688 C2.8125,0.179688 2.41276,0.119792 2.01953,0 C1.6263,-0.119792 1.29818,-0.308594 1.03516,-0.566406 C0.772135,-0.824219 0.640625,-1.15885 0.640625,-1.57031 M1.9375,-1.57031 C1.9375,-1.19531 2.07552,-0.880208 2.35156,-0.625 C2.6276,-0.369792 2.95313,-0.242188 3.32813,-0.242188 C3.67188,-0.242188 3.98438,-0.328125 4.26563,-0.5 C4.54688,-0.671875 4.77083,-0.90625 4.9375,-1.20313 C5.10417,-1.5 5.1875,-1.8125 5.1875,-2.14063 L5.1875,-3.80469 C4.70313,-3.80469 4.20703,-3.72526 3.69922,-3.56641 C3.19141,-3.40755 2.77083,-3.15885 2.4375,-2.82031 C2.10417,-2.48177 1.9375,-2.0651 1.9375,-1.57031 "/>
</g>

<g fill="#212121" fill-opacity="1" stroke="none" transform="matrix(0.75,0,0,0.75,227.875,60.7719)"
font-family=".AppleSystemUIFont" font-size="13" font-weight="400" font-style="normal" 
>
<path vector-effect="none" fill-rule="evenodd" d="M0.476563,0 L0.476563,-0.5625 C0.841146,-0.5625 1.14063,-0.591146 1.375,-0.648438 C1.60938,-0.705729 1.72656,-0.846354 1.72656,-1.07031 L1.72656,-5.4375 C1.72656,-5.72396 1.68359,-5.93099 1.59766,-6.05859 C1.51172,-6.1862 1.38802,-6.26432 1.22656,-6.29297 C1.0651,-6.32161 0.815104,-6.33594 0.476563,-6.33594 L0.476563,-6.89844 L2.79688,-7.07031 L2.79688,-5.50781 C3.01042,-5.96615 3.32682,-6.34115 3.74609,-6.63281 C4.16536,-6.92448 4.6224,-7.07031 5.11719,-7.07031 C5.85677,-7.07031 6.41276,-6.89323 6.78516,-6.53906 C7.15755,-6.1849 7.34375,-5.64323 7.34375,-4.91406 L7.34375,-1.07031 C7.34375,-0.846354 7.46094,-0.705729 7.69531,-0.648438 C7.92969,-0.591146 8.22917,-0.5625 8.59375,-0.5625 L8.59375,0 L4.92969,0 L4.92969,-0.5625 C5.29427,-0.5625 5.59375,-0.591146 5.82813,-0.648438 C6.0625,-0.705729 6.17969,-0.846354 6.17969,-1.07031 L6.17969,-4.86719 C6.17969,-5.38802 6.10417,-5.81641 5.95313,-6.15234 C5.80208,-6.48828 5.49219,-6.65625 5.02344,-6.65625 C4.40365,-6.65625 3.89453,-6.40885 3.49609,-5.91406 C3.09766,-5.41927 2.89844,-4.85677 2.89844,-4.22656 L2.89844,-1.07031 C2.89844,-0.846354 3.01563,-0.705729 3.25,-0.648438 C3.48438,-0.591146 3.78125,-0.5625 4.14063,-0.5625 L4.14063,0 L0.476563,0"/>
</g>

<g fill="#212121" fill-opacity="1" stroke="none" transform="matrix(0.75,0,0,0.75,150,76.3999)"
font-family=".AppleSystemUIFont" font-size="13" font-weight="400" font-style="normal" 
>
<path vector-effect="none" fill-rule="evenodd" d="M0.53125,0 L0.53125,-0.5625 C1.63021,-0.5625 2.17969,-0.731771 2.17969,-1.07031 L2.17969,-9.85938 C2.17969,-10.1979 1.63021,-10.3672 0.53125,-10.3672 L0.53125,-10.9297 L5.55469,-10.9297 C6.15365,-10.9297 6.78255,-10.8216 7.44141,-10.6055 C8.10026,-10.3893 8.65104,-10.0599 9.09375,-9.61719 C9.53646,-9.17448 9.75781,-8.64583 9.75781,-8.03125 C9.75781,-7.58333 9.6237,-7.18359 9.35547,-6.83203 C9.08724,-6.48047 8.74349,-6.1862 8.32422,-5.94922 C7.90495,-5.71224 7.47656,-5.54167 7.03906,-5.4375 C7.51823,-5.27083 7.9375,-5.00521 8.29688,-4.64063 C8.65625,-4.27604 8.8724,-3.85938 8.94531,-3.39063 L9.17188,-1.96875 C9.27604,-1.32813 9.38542,-0.85026 9.5,-0.535156 C9.61458,-0.220052 9.86719,-0.0625 10.2578,-0.0625 C10.5911,-0.0625 10.8398,-0.217448 11.0039,-0.527344 C11.168,-0.83724 11.25,-1.17448 11.25,-1.53906 C11.25,-1.57552 11.2669,-1.60807 11.3008,-1.63672 C11.3346,-1.66536 11.3698,-1.67969 11.4063,-1.67969 L11.5547,-1.67969 C11.6589,-1.67969 11.7109,-1.60938 11.7109,-1.46875 C11.7109,-1.17708 11.6536,-0.891927 11.5391,-0.613281 C11.4245,-0.334635 11.2591,-0.104167 11.043,0.078125 C10.8268,0.260417 10.5703,0.351563 10.2734,0.351563 C9.5026,0.351563 8.83984,0.160156 8.28516,-0.222656 C7.73047,-0.605469 7.45313,-1.16667 7.45313,-1.90625 L7.45313,-3.32813 C7.45313,-3.85938 7.26823,-4.3151 6.89844,-4.69531 C6.52865,-5.07552 6.07552,-5.26563 5.53906,-5.26563 L3.61719,-5.26563 L3.61719,-1.07031 C3.61719,-0.731771 4.16667,-0.5625 5.26563,-0.5625 L5.26563,0 L0.53125,0 M3.61719,-5.67969 L5.32813,-5.67969 C6.21354,-5.67969 6.88802,-5.85807 7.35156,-6.21484 C7.8151,-6.57161 8.04688,-7.17708 8.04688,-8.03125 C8.04688,-8.88021 7.81771,-9.48177 7.35938,-9.83594 C6.90104,-10.1901 6.22396,-10.3672 5.32813,-10.3672 L4.42969,-10.3672 C4.23698,-10.3672 4.08724,-10.3594 3.98047,-10.3438 C3.8737,-10.3281 3.78646,-10.2826 3.71875,-10.207 C3.65104,-10.1315 3.61719,-10.0156 3.61719,-9.85938 L3.61719,-5.67969"/>
</g>

<g fill="#212121" fill-opacity="1" stroke="none" transform="matrix(0.75,0,0,0.75,159.275,76.3999)"
font-family=".AppleSystemUIFont" font-size="13" font-weight="400" font-style="normal" 
>
<path vector-effect="none" fill-rule="evenodd" d="M3.98438,0.179688 C3.33333,0.179688 2.73568,0.00911458 2.19141,-0.332031 C1.64714,-0.673177 1.22005,-1.12891 0.910156,-1.69922 C0.60026,-2.26953 0.445313,-2.8724 0.445313,-3.50781 C0.445313,-4.13281 0.58724,-4.72656 0.871094,-5.28906 C1.15495,-5.85156 1.55078,-6.30599 2.05859,-6.65234 C2.56641,-6.9987 3.13281,-7.17188 3.75781,-7.17188 C4.2474,-7.17188 4.67318,-7.08984 5.03516,-6.92578 C5.39714,-6.76172 5.69531,-6.53385 5.92969,-6.24219 C6.16406,-5.95052 6.34115,-5.60677 6.46094,-5.21094 C6.58073,-4.8151 6.64063,-4.38021 6.64063,-3.90625 C6.64063,-3.76563 6.58594,-3.69531 6.47656,-3.69531 L1.84375,-3.69531 L1.84375,-3.52344 C1.84375,-2.63802 2.02214,-1.8776 2.37891,-1.24219 C2.73568,-0.606771 3.31771,-0.289063 4.125,-0.289063 C4.45313,-0.289063 4.75651,-0.361979 5.03516,-0.507813 C5.3138,-0.653646 5.55599,-0.856771 5.76172,-1.11719 C5.96745,-1.3776 6.10677,-1.65625 6.17969,-1.95313 C6.1901,-1.98958 6.20964,-2.02214 6.23828,-2.05078 C6.26693,-2.07943 6.29948,-2.09375 6.33594,-2.09375 L6.47656,-2.09375 C6.58594,-2.09375 6.64063,-2.02604 6.64063,-1.89063 C6.48958,-1.28646 6.16406,-0.790365 5.66406,-0.402344 C5.16406,-0.0143229 4.60417,0.179688 3.98438,0.179688 M1.85938,-4.09375 L5.50781,-4.09375 C5.50781,-4.49479 5.45182,-4.90104 5.33984,-5.3125 C5.22786,-5.72396 5.04167,-6.06641 4.78125,-6.33984 C4.52083,-6.61328 4.17969,-6.75 3.75781,-6.75 C3.15365,-6.75 2.6862,-6.46745 2.35547,-5.90234 C2.02474,-5.33724 1.85938,-4.73438 1.85938,-4.09375 "/>
</g>

<g fill="#212121" fill-opacity="1" stroke="none" transform="matrix(0.75,0,0,0.75,164.875,76.3999)"
font-family=".AppleSystemUIFont" font-size="13" font-weight="400" font-style="normal" 
>
<path vector-effect="none" fill-rule="evenodd" d="M0.414063,3.10156 L0.414063,2.54688 C0.778646,2.54688 1.07813,2.51563 1.3125,2.45313 C1.54688,2.39063 1.66406,2.25 1.66406,2.03125 L1.66406,-5.67969 C1.66406,-5.97135 1.5599,-6.15365 1.35156,-6.22656 C1.14323,-6.29948 0.830729,-6.33594 0.414063,-6.33594 L0.414063,-6.89844 L2.78125,-7.07031 L2.78125,-6.07813 C3.07292,-6.40104 3.41276,-6.64714 3.80078,-6.81641 C4.1888,-6.98568 4.60156,-7.07031 5.03906,-7.07031 C5.66927,-7.07031 6.23698,-6.89974 6.74219,-6.55859 C7.2474,-6.21745 7.64193,-5.76953 7.92578,-5.21484 C8.20964,-4.66016 8.35156,-4.07292 8.35156,-3.45313 C8.35156,-2.80729 8.19401,-2.20573 7.87891,-1.64844 C7.5638,-1.09115 7.13411,-0.647135 6.58984,-0.316406 C6.04557,0.0143229 5.44792,0.179688 4.79688,0.179688 C4.02083,0.179688 3.36458,-0.135417 2.82813,-0.765625 L2.82813,2.03125 C2.82813,2.25 2.94661,2.39063 3.18359,2.45313 C3.42057,2.51563 3.71875,2.54688 4.07813,2.54688 L4.07813,3.10156 L0.414063,3.10156 M2.82813,-1.55469 C3.01563,-1.17448 3.27604,-0.860677 3.60938,-0.613281 C3.94271,-0.365885 4.30729,-0.242188 4.70313,-0.242188 C5.07292,-0.242188 5.39974,-0.341146 5.68359,-0.539063 C5.96745,-0.736979 6.20573,-1.0026 6.39844,-1.33594 C6.59115,-1.66927 6.73307,-2.01953 6.82422,-2.38672 C6.91536,-2.75391 6.96094,-3.10938 6.96094,-3.45313 C6.96094,-3.88021 6.88411,-4.34245 6.73047,-4.83984 C6.57682,-5.33724 6.34245,-5.75651 6.02734,-6.09766 C5.71224,-6.4388 5.33073,-6.60938 4.88281,-6.60938 C4.45052,-6.60938 4.05339,-6.4987 3.69141,-6.27734 C3.32943,-6.05599 3.04167,-5.75521 2.82813,-5.375 L2.82813,-1.55469"/>
</g>

<g fill="#212121" fill-opacity="1" stroke="none" transform="matrix(0.75,0,0,0.75,171.875,76.3999)"
font-family=".AppleSystemUIFont" font-size="13" font-weight="400" font-style="normal" 
>
<path vector-effect="none" fill-rule="evenodd" d="M0.492188,0 L0.492188,-0.5625 C0.856771,-0.5625 1.15625,-0.591146 1.39063,-0.648438 C1.625,-0.705729 1.74219,-0.846354 1.74219,-1.07031 L1.74219,-9.46875 C1.74219,-9.75521 1.69922,-9.96224 1.61328,-10.0898 C1.52734,-10.2174 1.40365,-10.2956 1.24219,-10.3242 C1.08073,-10.3529 0.830729,-10.3672 0.492188,-10.3672 L0.492188,-10.9297 L2.86719,-11.1016 L2.86719,-1.07031 C2.86719,-0.846354 2.98438,-0.705729 3.21875,-0.648438 C3.45313,-0.591146 3.75,-0.5625 4.10938,-0.5625 L4.10938,0 L0.492188,0"/>
</g>

<g fill="#212121" fill-opacity="1" stroke="none" transform="matrix(0.75,0,0,0.75,175.375,76.3999)"
font-family=".AppleSystemUIFont" font-size="13" font-weight="400" font-style="normal" 
>
<path vector-effect="none" fill-rule="evenodd" d="M0.492188,0 L0.492188,-0.5625 C0.856771,-0.5625 1.15625,-0.591146 1.39063,-0.648438 C1.625,-0.705729 1.74219,-0.846354 1.74219,-1.07031 L1.74219,-5.4375 C1.74219,-5.84896 1.66276,-6.10156 1.50391,-6.19531 C1.34505,-6.28906 1.03125,-6.33594 0.5625,-6.33594 L0.5625,-6.89844 L2.86719,-7.07031 L2.86719,-1.07031 C2.86719,-0.846354 2.96875,-0.705729 3.17188,-0.648438 C3.375,-0.591146 3.64583,-0.5625 3.98438,-0.5625 L3.98438,0 L0.492188,0 M1.17188,-9.82031 C1.17188,-10.0547 1.26042,-10.2604 1.4375,-10.4375 C1.61458,-10.6146 1.81771,-10.7031 2.04688,-10.7031 C2.19792,-10.7031 2.34375,-10.6641 2.48438,-10.5859 C2.625,-10.5078 2.73438,-10.3984 2.8125,-10.2578 C2.89063,-10.1172 2.92969,-9.97135 2.92969,-9.82031 C2.92969,-9.59115 2.84115,-9.38802 2.66406,-9.21094 C2.48698,-9.03385 2.28125,-8.94531 2.04688,-8.94531 C1.81771,-8.94531 1.61458,-9.03385 1.4375,-9.21094 C1.26042,-9.38802 1.17188,-9.59115 1.17188,-9.82031 "/>
</g>

<g fill="#212121" fill-opacity="1" stroke="none" transform="matrix(0.75,0,0,0.75,178.875,76.3999)"
font-family=".AppleSystemUIFont" font-size="13" font-weight="400" font-style="normal" 
>
<path vector-effect="none" fill-rule="evenodd" d="M3.98438,0.179688 C3.33854,0.179688 2.7526,0.0117188 2.22656,-0.324219 C1.70052,-0.660156 1.28646,-1.10807 0.984375,-1.66797 C0.682292,-2.22786 0.53125,-2.82292 0.53125,-3.45313 C0.53125,-4.08333 0.68099,-4.6875 0.980469,-5.26563 C1.27995,-5.84375 1.69401,-6.30599 2.22266,-6.65234 C2.7513,-6.9987 3.33854,-7.17188 3.98438,-7.17188 C4.60938,-7.17188 5.17839,-7.04948 5.69141,-6.80469 C6.20443,-6.5599 6.46094,-6.15885 6.46094,-5.60156 C6.46094,-5.39323 6.38672,-5.21224 6.23828,-5.05859 C6.08984,-4.90495 5.90885,-4.82813 5.69531,-4.82813 C5.48177,-4.82813 5.30078,-4.90495 5.15234,-5.05859 C5.00391,-5.21224 4.92969,-5.39323 4.92969,-5.60156 C4.92969,-5.78906 4.98958,-5.95182 5.10938,-6.08984 C5.22917,-6.22786 5.3776,-6.3151 5.55469,-6.35156 C5.1849,-6.58594 4.66667,-6.70313 4,-6.70313 C3.48958,-6.70313 3.07813,-6.53385 2.76563,-6.19531 C2.45313,-5.85677 2.23438,-5.4375 2.10938,-4.9375 C1.98438,-4.4375 1.92188,-3.94271 1.92188,-3.45313 C1.92188,-2.9375 1.9987,-2.4388 2.15234,-1.95703 C2.30599,-1.47526 2.55339,-1.07682 2.89453,-0.761719 C3.23568,-0.446615 3.66406,-0.289063 4.17969,-0.289063 C4.6849,-0.289063 5.11458,-0.44401 5.46875,-0.753906 C5.82292,-1.0638 6.0651,-1.46875 6.19531,-1.96875 C6.19531,-2.03125 6.23698,-2.0625 6.32031,-2.0625 L6.51563,-2.0625 C6.54688,-2.0625 6.57552,-2.04818 6.60156,-2.01953 C6.6276,-1.99089 6.64063,-1.95833 6.64063,-1.92188 L6.64063,-1.875 C6.47917,-1.24479 6.15885,-0.744792 5.67969,-0.375 C5.20052,-0.00520833 4.63542,0.179688 3.98438,0.179688 "/>
</g>

<g fill="#212121" fill-opacity="1" stroke="none" transform="matrix(0.75,0,0,0.75,184.475,76.3999)"
font-family=".AppleSystemUIFont" font-size="13" font-weight="400" font-style="normal" 
>
<path vector-effect="none" fill-rule="evenodd" d="M0.640625,-1.57031 C0.640625,-2.20573 0.890625,-2.72266 1.39063,-3.12109 C1.89063,-3.51953 2.49089,-3.80078 3.19141,-3.96484 C3.89193,-4.12891 4.55729,-4.21094 5.1875,-4.21094 L5.1875,-4.86719 C5.1875,-5.17448 5.11979,-5.47266 4.98438,-5.76172 C4.84896,-6.05078 4.65365,-6.28776 4.39844,-6.47266 C4.14323,-6.65755 3.86198,-6.75 3.55469,-6.75 C2.84635,-6.75 2.30729,-6.59115 1.9375,-6.27344 C2.14063,-6.27344 2.30859,-6.19661 2.44141,-6.04297 C2.57422,-5.88932 2.64063,-5.71094 2.64063,-5.50781 C2.64063,-5.29427 2.5651,-5.11198 2.41406,-4.96094 C2.26302,-4.8099 2.08333,-4.73438 1.875,-4.73438 C1.66146,-4.73438 1.47917,-4.8099 1.32813,-4.96094 C1.17708,-5.11198 1.10156,-5.29427 1.10156,-5.50781 C1.10156,-6.07031 1.35677,-6.48828 1.86719,-6.76172 C2.3776,-7.03516 2.9401,-7.17188 3.55469,-7.17188 C3.98698,-7.17188 4.42188,-7.07943 4.85938,-6.89453 C5.29688,-6.70964 5.65495,-6.44531 5.93359,-6.10156 C6.21224,-5.75781 6.35156,-5.35677 6.35156,-4.89844 L6.35156,-1.29688 C6.35156,-1.08854 6.39583,-0.897135 6.48438,-0.722656 C6.57292,-0.548177 6.71094,-0.460938 6.89844,-0.460938 C7.07552,-0.460938 7.20703,-0.549479 7.29297,-0.726563 C7.37891,-0.903646 7.42188,-1.09375 7.42188,-1.29688 L7.42188,-2.32031 L7.89063,-2.32031 L7.89063,-1.29688 C7.89063,-1.05729 7.82813,-0.829427 7.70313,-0.613281 C7.57813,-0.397135 7.41016,-0.22526 7.19922,-0.0976563 C6.98828,0.0299479 6.76042,0.09375 6.51563,0.09375 C6.20313,0.09375 5.93359,-0.0273438 5.70703,-0.269531 C5.48047,-0.511719 5.35417,-0.799479 5.32813,-1.13281 C5.13021,-0.731771 4.83854,-0.41276 4.45313,-0.175781 C4.06771,0.0611979 3.65625,0.179688 3.21875,0.179688 C2.8125,0.179688 2.41276,0.119792 2.01953,0 C1.6263,-0.119792 1.29818,-0.308594 1.03516,-0.566406 C0.772135,-0.824219 0.640625,-1.15885 0.640625,-1.57031 M1.9375,-1.57031 C1.9375,-1.19531 2.07552,-0.880208 2.35156,-0.625 C2.6276,-0.369792 2.95313,-0.242188 3.32813,-0.242188 C3.67188,-0.242188 3.98438,-0.328125 4.26563,-0.5 C4.54688,-0.671875 4.77083,-0.90625 4.9375,-1.20313 C5.10417,-1.5 5.1875,-1.8125 5.1875,-2.14063 L5.1875,-3.80469 C4.70313,-3.80469 4.20703,-3.72526 3.69922,-3.56641 C3.19141,-3.40755 2.77083,-3.15885 2.4375,-2.82031 C2.10417,-2.48177 1.9375,-2.0651 1.9375,-1.57031 "/>
</g>

<g fill="#212121" fill-opacity="1" stroke="none" transform="matrix(0.75,0,0,0.75,190.775,76.3999)"
font-family=".AppleSystemUIFont" font-size="13" font-weight="400" font-style="normal" 
>
<path vector-effect="none" fill-rule="evenodd" d="M1.63281,-1.92188 L1.63281,-6.33594 L0.304688,-6.33594 L0.304688,-6.75 C1.0026,-6.75 1.51563,-7.07552 1.84375,-7.72656 C2.17188,-8.3776 2.33594,-9.08333 2.33594,-9.84375 L2.79688,-9.84375 L2.79688,-6.89844 L5.05469,-6.89844 L5.05469,-6.33594 L2.79688,-6.33594 L2.79688,-1.95313 C2.79688,-1.51042 2.87109,-1.1224 3.01953,-0.789063 C3.16797,-0.455729 3.4349,-0.289063 3.82031,-0.289063 C4.1849,-0.289063 4.44792,-0.464844 4.60938,-0.816406 C4.77083,-1.16797 4.85156,-1.54688 4.85156,-1.95313 L4.85156,-2.89844 L5.3125,-2.89844 L5.3125,-1.92188 C5.3125,-1.58854 5.2513,-1.25911 5.12891,-0.933594 C5.00651,-0.608073 4.82552,-0.341146 4.58594,-0.132813 C4.34635,0.0755208 4.05469,0.179688 3.71094,0.179688 C3.07031,0.179688 2.5638,-0.0117188 2.19141,-0.394531 C1.81901,-0.777344 1.63281,-1.28646 1.63281,-1.92188 "/>
</g>

<g fill="#212121" fill-opacity="1" stroke="none" transform="matrix(0.75,0,0,0.75,195.675,76.3999)"
font-family=".AppleSystemUIFont" font-size="13" font-weight="400" font-style="normal" 
>
<path vector-effect="none" fill-rule="evenodd" d="M3.98438,0.179688 C3.33333,0.179688 2.73568,0.00911458 2.19141,-0.332031 C1.64714,-0.673177 1.22005,-1.12891 0.910156,-1.69922 C0.60026,-2.26953 0.445313,-2.8724 0.445313,-3.50781 C0.445313,-4.13281 0.58724,-4.72656 0.871094,-5.28906 C1.15495,-5.85156 1.55078,-6.30599 2.05859,-6.65234 C2.56641,-6.9987 3.13281,-7.17188 3.75781,-7.17188 C4.2474,-7.17188 4.67318,-7.08984 5.03516,-6.92578 C5.39714,-6.76172 5.69531,-6.53385 5.92969,-6.24219 C6.16406,-5.95052 6.34115,-5.60677 6.46094,-5.21094 C6.58073,-4.8151 6.64063,-4.38021 6.64063,-3.90625 C6.64063,-3.76563 6.58594,-3.69531 6.47656,-3.69531 L1.84375,-3.69531 L1.84375,-3.52344 C1.84375,-2.63802 2.02214,-1.8776 2.37891,-1.24219 C2.73568,-0.606771 3.31771,-0.289063 4.125,-0.289063 C4.45313,-0.289063 4.75651,-0.361979 5.03516,-0.507813 C5.3138,-0.653646 5.55599,-0.856771 5.76172,-1.11719 C5.96745,-1.3776 6.10677,-1.65625 6.17969,-1.95313 C6.1901,-1.98958 6.20964,-2.02214 6.23828,-2.05078 C6.26693,-2.07943 6.29948,-2.09375 6.33594,-2.09375 L6.47656,-2.09375 C6.58594,-2.09375 6.64063,-2.02604 6.64063,-1.89063 C6.48958,-1.28646 6.16406,-0.790365 5.66406,-0.402344 C5.16406,-0.0143229 4.60417,0.179688 3.98438,0.179688 M1.85938,-4.09375 L5.50781,-4.09375 C5.50781,-4.49479 5.45182,-4.90104 5.33984,-5.3125 C5.22786,-5.72396 5.04167,-6.06641 4.78125,-6.33984 C4.52083,-6.61328 4.17969,-6.75 3.75781,-6.75 C3.15365,-6.75 2.6862,-6.46745 2.35547,-5.90234 C2.02474,-5.33724 1.85938,-4.73438 1.85938,-4.09375 "/>
</g>

<g fill="#212121" fill-opacity="1" stroke="none" transform="matrix(0.75,0,0,0.75,201.275,76.3999)"
font-family=".AppleSystemUIFont" font-size="13" font-weight="400" font-style="normal" 
>
<path vector-effect="none" fill-rule="evenodd" d="M0.53125,0.046875 L0.53125,-2.5625 C0.53125,-2.64583 0.578125,-2.6875 0.671875,-2.6875 L0.867188,-2.6875 C0.929688,-2.6875 0.971354,-2.64583 0.992188,-2.5625 C1.28906,-1.01563 2.00781,-0.242188 3.14844,-0.242188 C3.65365,-0.242188 4.07682,-0.356771 4.41797,-0.585938 C4.75911,-0.815104 4.92969,-1.16927 4.92969,-1.64844 C4.92969,-1.99219 4.79688,-2.28516 4.53125,-2.52734 C4.26563,-2.76953 3.95052,-2.9349 3.58594,-3.02344 L2.51563,-3.23438 C2.15625,-3.3125 1.82943,-3.43229 1.53516,-3.59375 C1.24089,-3.75521 1,-3.97005 0.8125,-4.23828 C0.625,-4.50651 0.53125,-4.81771 0.53125,-5.17188 C0.53125,-5.64063 0.654948,-6.02474 0.902344,-6.32422 C1.14974,-6.6237 1.47135,-6.83984 1.86719,-6.97266 C2.26302,-7.10547 2.6901,-7.17188 3.14844,-7.17188 C3.69531,-7.17188 4.17188,-7.02604 4.57813,-6.73438 L5.03906,-7.13281 C5.03906,-7.15885 5.0651,-7.17188 5.11719,-7.17188 L5.23438,-7.17188 C5.26563,-7.17188 5.29427,-7.15755 5.32031,-7.12891 C5.34635,-7.10026 5.35938,-7.07031 5.35938,-7.03906 L5.35938,-4.94531 C5.35938,-4.84635 5.31771,-4.79688 5.23438,-4.79688 L5.03906,-4.79688 C4.94531,-4.79688 4.89844,-4.84635 4.89844,-4.94531 C4.89844,-5.5026 4.74349,-5.95052 4.43359,-6.28906 C4.1237,-6.6276 3.6901,-6.79688 3.13281,-6.79688 C2.65365,-6.79688 2.23828,-6.70833 1.88672,-6.53125 C1.53516,-6.35417 1.35938,-6.04948 1.35938,-5.61719 C1.35938,-5.32031 1.48568,-5.07682 1.73828,-4.88672 C1.99089,-4.69661 2.28646,-4.5599 2.625,-4.47656 L3.71094,-4.27344 C4.07552,-4.1901 4.41536,-4.04948 4.73047,-3.85156 C5.04557,-3.65365 5.29557,-3.40365 5.48047,-3.10156 C5.66536,-2.79948 5.75781,-2.45833 5.75781,-2.07813 C5.75781,-1.69271 5.69141,-1.35807 5.55859,-1.07422 C5.42578,-0.790365 5.24089,-0.554688 5.00391,-0.367188 C4.76693,-0.179688 4.48698,-0.0416667 4.16406,0.046875 C3.84115,0.135417 3.5026,0.179688 3.14844,0.179688 C2.48177,0.179688 1.91146,-0.0442708 1.4375,-0.492188 L0.851563,0.140625 C0.851563,0.166667 0.822917,0.179688 0.765625,0.179688 L0.671875,0.179688 C0.578125,0.179688 0.53125,0.135417 0.53125,0.046875 "/>
</g>

<g fill="none" stroke="#212121" stroke-opacity="1" stroke-width="0.8" stroke-linecap="butt" stroke-linejoin="miter" stroke-miterlimit="2" transform="matrix(0.75,0,0,0.75,0,0)"
font-family=".AppleSystemUIFont" font-size="13" font-weight="400" font-style="normal" 
>
<path vector-effect="none" fill-rule="evenodd" d="M153,110 L153,41 L389,41 L389,110 L153,110"/>
</g>
</g>
</svg>
